<?xml version="1.0" encoding="UTF-8"?>
<svg xmlns="http://www.w3.org/2000/svg" xmlns:xlink="http://www.w3.org/1999/xlink" version="1.2" >
<font id="AnsleyDisplay-Outline">
<font-face  font-family="Ansley Display" units-per-em="1000" ascent="750" descent="-250" font-style="normal" font-weight="400" font-stretch="normal" cap-height="733" x-height="527" underline-position="-75" underline-thickness="50" />
<missing-glyph  horiz-adv-x="500" d="" />
<glyph glyph-name="NULL" d="" />
<glyph glyph-name="nonmarkingreturn" unicode="&#xd;" horiz-adv-x="500" d="" />
<glyph glyph-name="space" unicode="&#x20;" horiz-adv-x="500" d="" />
<glyph glyph-name="C" unicode="C" horiz-adv-x="939" d="M435 95 Q648 95 730 285 L735 297 L809 263 L805 253 Q764 142 668.5 83.5 Q573 25 433 25 Q344 25 271 49.5 Q198 74 146 118.5 Q94 163 65.5 225.5 Q37 288 37 365 Q37 453 71.5 518 Q106 583 161.5 625.5 Q217 668 286.5 688.5 Q356 709 426 709 Q507 709 578.5 684 Q650 659 701 614 L701 696 L780 696 L780 470 L702 470 L700 480 Q692 519 665.5 548.5 Q639 578 601.5 598 Q564 618 519.5 628 Q475 638 431 638 Q364 638 308 618.5 Q252 599 212 563.5 Q172 528 149.5 478.5 Q127 429 127 369 Q127 309 149.5 258.5 Q172 208 213 171.5 Q254 135 310.5 115 Q367 95 435 95 Z M742 280 Q656 83 435 83 Q364 83 305 104 Q246 125 203.5 162.5 Q161 200 137.5 253 Q114 306 114 369 Q114 431 137 483 Q160 535 202 572.5 Q244 610 302.5 630.5 Q361 651 431 651 Q477 651 523.5 640 Q570 629 609 608 Q648 587 676 555.5 Q704 524 712 483 L767 483 L767 683 L714 683 L714 584 L703 594 Q655 642 581.5 669 Q508 696 426 696 Q358 696 291 676.5 Q224 657 170.5 616 Q117 575 83.5 512.5 Q50 450 50 365 Q50 291 77.5 231 Q105 171 155.5 128 Q206 85 276.5 61.5 Q347 38 433 38 Q569 38 661 94 Q753 150 793 256 L742 280 Z M855 282 L840 240 Q795 117 690 52.5 Q585 -12 433 -12 Q336 -12 256 15 Q176 42 119 91.5 Q62 141 31 210.5 Q0 280 0 365 Q0 434 25.5 502 Q51 570 103.5 624 Q156 678 236 712 Q316 746 426 746 Q492 746 552.5 730.5 Q613 715 664 686 L664 733 L817 733 L817 433 L672 433 L664 472 Q658 503 634.5 527.5 Q611 552 578.5 568.5 Q546 585 507 593.5 Q468 602 431 602 Q371 602 322 585 Q273 568 237.5 537.5 Q202 507 183 464 Q164 421 164 369 Q164 316 183.5 272 Q203 228 238.5 197 Q274 166 324 149 Q374 132 435 132 Q532 132 595.5 172.5 Q659 213 696 299 L717 347 L855 282 Z M839 275 L723 330 L708 294 Q669 204 602.5 161.5 Q536 119 435 119 Q371 119 319 137 Q267 155 229.5 188 Q192 221 171.5 267 Q151 313 151 369 Q151 424 171.5 469 Q192 514 228.5 546.5 Q265 579 316.5 596.5 Q368 614 431 614 Q470 614 511 605 Q552 596 586.5 578.5 Q621 561 645 535 Q669 509 676 475 L682 446 L804 446 L804 720 L677 720 L677 663 L667 669 Q563 733 426 733 Q319 733 241.5 700.5 Q164 668 113 615.5 Q62 563 37.5 497 Q13 431 13 365 Q13 283 43.5 216 Q74 149 129 101 Q184 53 261.5 27 Q339 1 433 1 Q582 1 683 63.5 Q784 126 828 244 L839 275 Z M118 498 Q104 469 97 436.5 Q90 404 90 369 Q90 273 139 200 L129 192 Q74 267 74 365 Q74 442 106 504 L118 498 Z " />
<glyph glyph-name="c" unicode="c" horiz-adv-x="939" d="M435 95 Q648 95 730 285 L735 297 L809 263 L805 253 Q764 142 668.5 83.5 Q573 25 433 25 Q344 25 271 49.5 Q198 74 146 118.5 Q94 163 65.5 225.5 Q37 288 37 365 Q37 453 71.5 518 Q106 583 161.5 625.5 Q217 668 286.5 688.5 Q356 709 426 709 Q507 709 578.5 684 Q650 659 701 614 L701 696 L780 696 L780 470 L702 470 L700 480 Q692 519 665.5 548.5 Q639 578 601.5 598 Q564 618 519.5 628 Q475 638 431 638 Q364 638 308 618.5 Q252 599 212 563.5 Q172 528 149.5 478.5 Q127 429 127 369 Q127 309 149.5 258.5 Q172 208 213 171.5 Q254 135 310.5 115 Q367 95 435 95 Z M742 280 Q656 83 435 83 Q364 83 305 104 Q246 125 203.5 162.5 Q161 200 137.5 253 Q114 306 114 369 Q114 431 137 483 Q160 535 202 572.5 Q244 610 302.5 630.5 Q361 651 431 651 Q477 651 523.5 640 Q570 629 609 608 Q648 587 676 555.5 Q704 524 712 483 L767 483 L767 683 L714 683 L714 584 L703 594 Q655 642 581.5 669 Q508 696 426 696 Q358 696 291 676.5 Q224 657 170.5 616 Q117 575 83.5 512.5 Q50 450 50 365 Q50 291 77.5 231 Q105 171 155.5 128 Q206 85 276.5 61.5 Q347 38 433 38 Q569 38 661 94 Q753 150 793 256 L742 280 Z M855 282 L840 240 Q795 117 690 52.5 Q585 -12 433 -12 Q336 -12 256 15 Q176 42 119 91.5 Q62 141 31 210.5 Q0 280 0 365 Q0 434 25.5 502 Q51 570 103.5 624 Q156 678 236 712 Q316 746 426 746 Q492 746 552.5 730.5 Q613 715 664 686 L664 733 L817 733 L817 433 L672 433 L664 472 Q658 503 634.5 527.5 Q611 552 578.5 568.5 Q546 585 507 593.5 Q468 602 431 602 Q371 602 322 585 Q273 568 237.5 537.5 Q202 507 183 464 Q164 421 164 369 Q164 316 183.5 272 Q203 228 238.5 197 Q274 166 324 149 Q374 132 435 132 Q532 132 595.5 172.5 Q659 213 696 299 L717 347 L855 282 Z M839 275 L723 330 L708 294 Q669 204 602.5 161.5 Q536 119 435 119 Q371 119 319 137 Q267 155 229.5 188 Q192 221 171.5 267 Q151 313 151 369 Q151 424 171.5 469 Q192 514 228.5 546.5 Q265 579 316.5 596.5 Q368 614 431 614 Q470 614 511 605 Q552 596 586.5 578.5 Q621 561 645 535 Q669 509 676 475 L682 446 L804 446 L804 720 L677 720 L677 663 L667 669 Q563 733 426 733 Q319 733 241.5 700.5 Q164 668 113 615.5 Q62 563 37.5 497 Q13 431 13 365 Q13 283 43.5 216 Q74 149 129 101 Q184 53 261.5 27 Q339 1 433 1 Q582 1 683 63.5 Q784 126 828 244 L839 275 Z M118 498 Q104 469 97 436.5 Q90 404 90 369 Q90 273 139 200 L129 192 Q74 267 74 365 Q74 442 106 504 L118 498 Z " />
<glyph glyph-name="D" unicode="D" horiz-adv-x="1023" d="M763 612 Q823 567 855.5 505 Q888 443 888 373 Q888 294 855 228.5 Q822 163 757 115 Q705 77 630 58.5 Q555 40 439 38 L433 38 L37 38 L37 108 L158 108 L158 625 L37 625 L37 696 L439 696 L439 695 Q553 692 631 672 Q709 652 763 612 Z M749 125 Q812 171 843.5 234 Q875 297 875 373 Q875 440 844 499.5 Q813 559 756 602 Q702 641 625 660.5 Q548 680 433 682 L426 683 L50 683 L50 638 L171 638 L171 96 L50 96 L50 50 L426 50 L426 51 L433 51 Q549 52 624 70 Q699 88 749 125 Z M434 638 Q438 638 467.5 636.5 Q497 635 539.5 627.5 Q582 620 630 603.5 Q678 587 719.5 557 Q761 527 788 481 Q815 435 816 369 Q816 359 815 349 Q814 341 813.5 331.5 Q813 322 811 315 Q783 179 616 124 Q584 114 554 108 Q524 102 499.5 99 Q475 96 458 95.5 Q441 95 435 95 L433 96 L230 96 L230 638 L434 638 Z M798 318 Q800 326 800.5 335 Q801 344 802 352 Q803 361 803 369 Q802 432 776 476 Q750 520 710 548.5 Q670 577 623.5 592.5 Q577 608 536 615 Q495 622 466.5 623.5 Q438 625 434 625 L243 625 L243 108 L435 108 Q441 108 457.5 108.5 Q474 109 498 112 Q522 115 551.5 120.5 Q581 126 612 136 Q772 188 798 317 L798 318 Z M434 601 Q437 601 464 600 Q491 599 529 592 Q567 585 611 571 Q655 557 692 531.5 Q729 506 753.5 466 Q778 426 779 369 Q779 361 779 354.5 Q779 348 778 341 L775 323 L775 322 Q766 275 737.5 243 Q709 211 672 190 Q635 169 594 157 Q553 145 518.5 139.5 Q484 134 460 133 Q436 132 433 132 L267 132 L267 601 L434 601 Z M433 145 Q526 148 599 173 Q630 183 660 199.5 Q690 216 713.5 239.5 Q737 263 751.5 295 Q766 327 766 369 Q766 423 742.5 460.5 Q719 498 683 522.5 Q647 547 605 560.5 Q563 574 526 580.5 Q489 587 463 588 Q437 589 434 589 L280 589 L280 145 L433 145 Z M785 641 Q852 592 888.5 522 Q925 452 925 373 Q925 284 888 211.5 Q851 139 779 85 Q777 84 756.5 71.5 Q736 59 697.5 44.5 Q659 30 602 17 Q545 4 470 1 L433 1 L0 1 L0 145 L121 145 L121 589 L0 589 L0 733 L470 733 Q546 733 604 719 Q662 705 702 688.5 Q742 672 762.5 657 Q783 642 785 641 Z M771 96 Q841 147 876.5 217.5 Q912 288 912 373 Q912 449 877 516 Q842 583 778 631 Q777 631 756.5 645 Q736 659 697 675.5 Q658 692 601 706 Q544 720 470 720 L13 720 L13 601 L134 601 L134 132 L13 132 L13 13 L433 13 L470 14 Q543 17 599.5 30 Q656 43 694 57.5 Q732 72 751.5 84 Q771 96 771 96 Z " />
<glyph glyph-name="d" unicode="d" horiz-adv-x="1033" d="M763 612 Q823 567 855.5 505 Q888 443 888 373 Q888 294 855 228.5 Q822 163 757 115 Q705 77 630 58.5 Q555 40 439 38 L433 38 L37 38 L37 108 L158 108 L158 625 L37 625 L37 696 L439 696 L439 695 Q553 692 631 672 Q709 652 763 612 Z M749 125 Q812 171 843.5 234 Q875 297 875 373 Q875 440 844 499.5 Q813 559 756 602 Q702 641 625 660.5 Q548 680 433 682 L426 683 L50 683 L50 638 L171 638 L171 96 L50 96 L50 50 L426 50 L426 51 L433 51 Q549 52 624 70 Q699 88 749 125 Z M434 638 Q438 638 467.5 636.5 Q497 635 539.5 627.5 Q582 620 630 603.5 Q678 587 719.5 557 Q761 527 788 481 Q815 435 816 369 Q816 359 815 349 Q814 341 813.5 331.5 Q813 322 811 315 Q783 179 616 124 Q584 114 554 108 Q524 102 499.5 99 Q475 96 458 95.5 Q441 95 435 95 L433 96 L230 96 L230 638 L434 638 Z M798 318 Q800 326 800.5 335 Q801 344 802 352 Q803 361 803 369 Q802 432 776 476 Q750 520 710 548.5 Q670 577 623.5 592.5 Q577 608 536 615 Q495 622 466.5 623.5 Q438 625 434 625 L243 625 L243 108 L435 108 Q441 108 457.5 108.5 Q474 109 498 112 Q522 115 551.5 120.5 Q581 126 612 136 Q772 188 798 317 L798 318 Z M434 601 Q437 601 464 600 Q491 599 529 592 Q567 585 611 571 Q655 557 692 531.5 Q729 506 753.5 466 Q778 426 779 369 Q779 361 779 354.5 Q779 348 778 341 L775 323 L775 322 Q766 275 737.5 243 Q709 211 672 190 Q635 169 594 157 Q553 145 518.5 139.5 Q484 134 460 133 Q436 132 433 132 L267 132 L267 601 L434 601 Z M433 145 Q526 148 599 173 Q630 183 660 199.5 Q690 216 713.5 239.5 Q737 263 751.5 295 Q766 327 766 369 Q766 423 742.5 460.5 Q719 498 683 522.5 Q647 547 605 560.5 Q563 574 526 580.5 Q489 587 463 588 Q437 589 434 589 L280 589 L280 145 L433 145 Z M785 641 Q852 592 888.5 522 Q925 452 925 373 Q925 284 888 211.5 Q851 139 779 85 Q777 84 756.5 71.5 Q736 59 697.5 44.5 Q659 30 602 17 Q545 4 470 1 L433 1 L0 1 L0 145 L121 145 L121 589 L0 589 L0 733 L470 733 Q546 733 604 719 Q662 705 702 688.5 Q742 672 762.5 657 Q783 642 785 641 Z M771 96 Q841 147 876.5 217.5 Q912 288 912 373 Q912 449 877 516 Q842 583 778 631 Q777 631 756.5 645 Q736 659 697 675.5 Q658 692 601 706 Q544 720 470 720 L13 720 L13 601 L134 601 L134 132 L13 132 L13 13 L433 13 L470 14 Q543 17 599.5 30 Q656 43 694 57.5 Q732 72 751.5 84 Q771 96 771 96 Z " />
<glyph glyph-name="E" unicode="E" horiz-adv-x="955" d="M825 490 L676 490 L676 589 L281 589 L281 447 L595 447 L595 303 L281 303 L281 145 L676 145 L676 246 L825 246 L825 1 L0 1 L0 145 L118 145 L118 302 L47 302 L47 447 L118 447 L118 589 L0 589 L0 733 L825 733 L825 490 Z M268 601 L688 601 L688 502 L812 502 L812 720 L13 720 L13 601 L131 601 L131 434 L60 434 L60 315 L131 315 L131 132 L13 132 L13 13 L812 13 L812 233 L688 233 L688 132 L268 132 L268 315 L582 315 L582 434 L268 434 L268 601 Z M713 526 L713 625 L244 625 L244 410 L558 410 L558 339 L244 339 L244 108 L713 108 L713 209 L788 209 L788 38 L37 38 L37 108 L155 108 L155 339 L84 339 L84 410 L155 410 L155 625 L37 625 L37 696 L788 696 L788 526 L713 526 Z M231 638 L725 638 L725 539 L775 539 L775 683 L50 683 L50 638 L168 638 L168 397 L97 397 L97 352 L168 352 L168 96 L50 96 L50 50 L775 50 L775 196 L725 196 L725 96 L231 96 L231 352 L545 352 L545 397 L231 397 L231 638 Z " />
<glyph glyph-name="e" unicode="e" horiz-adv-x="952" d="M825 490 L676 490 L676 589 L281 589 L281 447 L595 447 L595 303 L281 303 L281 145 L676 145 L676 246 L825 246 L825 1 L0 1 L0 145 L118 145 L118 302 L47 302 L47 447 L118 447 L118 589 L0 589 L0 733 L825 733 L825 490 Z M268 601 L688 601 L688 502 L812 502 L812 720 L13 720 L13 601 L131 601 L131 434 L60 434 L60 315 L131 315 L131 132 L13 132 L13 13 L812 13 L812 233 L688 233 L688 132 L268 132 L268 315 L582 315 L582 434 L268 434 L268 601 Z M713 526 L713 625 L244 625 L244 410 L558 410 L558 339 L244 339 L244 108 L713 108 L713 209 L788 209 L788 38 L37 38 L37 108 L155 108 L155 339 L84 339 L84 410 L155 410 L155 625 L37 625 L37 696 L788 696 L788 526 L713 526 Z M231 638 L725 638 L725 539 L775 539 L775 683 L50 683 L50 638 L168 638 L168 397 L97 397 L97 352 L168 352 L168 96 L50 96 L50 50 L775 50 L775 196 L725 196 L725 96 L231 96 L231 352 L545 352 L545 397 L231 397 L231 638 Z " />
<glyph glyph-name="F" unicode="F" horiz-adv-x="908" d="M0 733 L790 733 L790 489 L642 489 L642 589 L283 589 L283 447 L574 447 L574 303 L283 303 L283 145 L405 145 L405 1 L0 1 L0 145 L120 145 L120 302 L49 302 L49 447 L120 447 L120 589 L0 589 L0 733 Z M777 501 L777 720 L13 720 L13 601 L133 601 L133 434 L62 434 L62 315 L133 315 L133 132 L13 132 L13 13 L393 13 L393 132 L270 132 L270 315 L561 315 L561 434 L270 434 L270 601 L655 601 L655 501 L777 501 Z M157 410 L157 625 L37 625 L37 696 L753 696 L753 526 L679 526 L679 625 L246 625 L246 410 L537 410 L537 339 L246 339 L246 108 L369 108 L369 38 L37 38 L37 108 L157 108 L157 339 L86 339 L86 410 L157 410 Z M50 638 L170 638 L170 397 L99 397 L99 352 L170 352 L170 96 L50 96 L50 50 L356 50 L356 96 L233 96 L233 352 L524 352 L524 397 L233 397 L233 638 L691 638 L691 538 L740 538 L740 683 L50 683 L50 638 Z " />
<glyph glyph-name="ellipsis" unicode="&#x2026;" horiz-adv-x="833" d="" />
<glyph glyph-name="f" unicode="f" horiz-adv-x="908" d="M0 733 L790 733 L790 489 L642 489 L642 589 L283 589 L283 447 L574 447 L574 303 L283 303 L283 145 L405 145 L405 1 L0 1 L0 145 L120 145 L120 302 L49 302 L49 447 L120 447 L120 589 L0 589 L0 733 Z M777 501 L777 720 L13 720 L13 601 L133 601 L133 434 L62 434 L62 315 L133 315 L133 132 L13 132 L13 13 L393 13 L393 132 L270 132 L270 315 L561 315 L561 434 L270 434 L270 601 L655 601 L655 501 L777 501 Z M157 410 L157 625 L37 625 L37 696 L753 696 L753 526 L679 526 L679 625 L246 625 L246 410 L537 410 L537 339 L246 339 L246 108 L369 108 L369 38 L37 38 L37 108 L157 108 L157 339 L86 339 L86 410 L157 410 Z M50 638 L170 638 L170 397 L99 397 L99 352 L170 352 L170 96 L50 96 L50 50 L356 50 L356 96 L233 96 L233 352 L524 352 L524 397 L233 397 L233 638 L691 638 L691 538 L740 538 L740 683 L50 683 L50 638 Z " />
<glyph glyph-name="ydieresis" unicode="&#xff;" horiz-adv-x="833" d="" />
<glyph glyph-name="g" unicode="g" horiz-adv-x="1057" d="M926 -12 Q930 -13 933 -13.5 Q936 -14 940 -14 L947 -14 L947 -90 L940 -90 Q878 -90 844 -54 Q830 -40 822.5 -23.5 Q815 -7 812 7.5 Q809 22 808.5 31.5 Q808 41 808 42 L808 105 Q748 65 668.5 44 Q589 23 495 23 Q398 23 314 47.5 Q230 72 167 118 Q104 165 70.5 228.5 Q37 292 37 365 Q37 437 69.5 500.5 Q102 564 164 612 Q225 659 306 684 Q387 709 480 709 Q578 709 663 680.5 Q748 652 808 599 L808 696 L885 696 L885 468 L811 468 L809 474 Q796 511 765.5 542 Q735 573 691.5 595.5 Q648 618 594.5 630.5 Q541 643 483 643 Q406 643 340.5 622.5 Q275 602 228 565 Q181 528 154.5 478 Q128 428 128 368 Q128 306 155 254.5 Q182 203 230.5 166 Q279 129 347 108.5 Q415 88 497 88 Q535 88 579 94.5 Q623 101 666 115 Q709 129 746 152.5 Q783 176 808 209 L808 273 L538 273 L538 349 L885 349 L885 42 Q886 31 892 14 Q898 -3 918 -10 L919 -11 L921 -11 Q923 -12 926 -12 Z M934 -27 Q931 -26 928.5 -26 Q926 -26 924 -25 L923 -25 Q921 -25 920 -24.5 Q919 -24 918 -24 Q917 -23 914 -23 L913 -22 Q900 -17 892 -8.5 Q884 0 879.5 9.5 Q875 19 873.5 27.5 Q872 36 872 42 L872 337 L551 337 L551 286 L821 286 L821 204 L820 203 Q794 168 755.5 143.5 Q717 119 672.5 104 Q628 89 582.5 82.5 Q537 76 497 76 Q413 76 342.5 97.5 Q272 119 221.5 157.5 Q171 196 143 249.5 Q115 303 115 368 Q115 431 142.5 483.5 Q170 536 219 574.5 Q268 613 335.5 634.5 Q403 656 483 656 Q543 656 598 643 Q653 630 698 606.5 Q743 583 774.5 551 Q806 519 820 481 L872 481 L872 683 L821 683 L821 570 L810 580 Q752 636 666 666 Q580 696 480 696 Q389 696 310.5 672 Q232 648 172 602 Q112 556 81 495 Q50 434 50 365 Q50 295 82 234 Q114 173 175 128 Q235 83 317.5 59.5 Q400 36 495 36 Q590 36 671.5 58 Q753 80 811 122 L821 130 L821 42 Q821 42 821.5 33 Q822 24 825 11 Q828 -2 834.5 -17.5 Q841 -33 853 -46 Q884 -76 934 -77 L934 -27 Z M106 461 Q91 416 91 368 Q91 306 115 252 L103 246 Q74 302 74 365 Q74 417 94 465 L106 461 Z M984 23 L984 -127 L940 -127 Q864 -127 817 -80 Q800 -63 791 -43.5 Q782 -24 777.5 -7 Q773 10 772 23.5 Q771 37 771 42 Q712 14 642.5 0 Q573 -14 495 -14 Q392 -14 302 12 Q212 38 145 88 Q74 141 37 212 Q0 283 0 365 Q0 446 36 517 Q72 588 141 641 Q207 692 294 719 Q381 746 480 746 Q561 746 636 727 Q711 708 771 672 L771 733 L922 733 L922 431 L784 431 L774 461 Q763 492 736 518.5 Q709 545 670 564.5 Q631 584 583 595 Q535 606 483 606 Q414 606 355.5 588 Q297 570 254.5 538.5 Q212 507 188 463.5 Q164 420 164 368 Q164 314 188.5 269.5 Q213 225 257 193 Q301 161 362 143 Q423 125 497 125 Q533 125 572 130.5 Q611 136 648 148 Q685 160 717 178.5 Q749 197 771 222 L771 236 L501 236 L501 386 L922 386 L922 42 Q922 37 924 32 Q926 27 930 25 L933 24 Q936 23 940 23 L984 23 Z M971 10 L940 10 Q938 10 935.5 10.5 Q933 11 931 11 L928 12 L926 13 Q915 17 912 27 Q909 37 909 42 L909 374 L514 374 L514 249 L784 249 L784 217 L783 215 Q768 197 742 179 Q716 161 680 146.5 Q644 132 598 122.5 Q552 113 497 113 Q421 113 357.5 131.5 Q294 150 248.5 184 Q203 218 177.5 265 Q152 312 152 368 Q152 422 176.5 468 Q201 514 245.5 547.5 Q290 581 350.5 600 Q411 619 483 619 Q537 619 586.5 607.5 Q636 596 677 575 Q718 554 746.5 526 Q775 498 787 465 L793 444 L909 444 L909 720 L784 720 L784 648 L774 655 Q714 693 638.5 713 Q563 733 480 733 Q383 733 298.5 707 Q214 681 149 631 Q83 580 48 511.5 Q13 443 13 365 Q13 286 48.5 217.5 Q84 149 153 99 Q219 50 306.5 24.5 Q394 -1 495 -1 Q574 -1 645 14 Q716 29 775 58 L784 62 L784 43 Q784 40 784.5 28.5 Q785 17 789 0.5 Q793 -16 801.5 -35 Q810 -54 827 -71 Q867 -114 940 -114 L971 -114 L971 10 Z " />
<glyph glyph-name="G" unicode="G" horiz-adv-x="1070" d="M926 -12 Q930 -13 933 -13.5 Q936 -14 940 -14 L947 -14 L947 -90 L940 -90 Q878 -90 844 -54 Q830 -40 822.5 -23.5 Q815 -7 812 7.5 Q809 22 808.5 31.5 Q808 41 808 42 L808 105 Q748 65 668.5 44 Q589 23 495 23 Q398 23 314 47.5 Q230 72 167 118 Q104 165 70.5 228.5 Q37 292 37 365 Q37 437 69.5 500.5 Q102 564 164 612 Q225 659 306 684 Q387 709 480 709 Q578 709 663 680.5 Q748 652 808 599 L808 696 L885 696 L885 468 L811 468 L809 474 Q796 511 765.5 542 Q735 573 691.5 595.5 Q648 618 594.5 630.5 Q541 643 483 643 Q406 643 340.5 622.5 Q275 602 228 565 Q181 528 154.5 478 Q128 428 128 368 Q128 306 155 254.5 Q182 203 230.5 166 Q279 129 347 108.5 Q415 88 497 88 Q535 88 579 94.5 Q623 101 666 115 Q709 129 746 152.5 Q783 176 808 209 L808 273 L538 273 L538 349 L885 349 L885 42 Q886 31 892 14 Q898 -3 918 -10 L919 -11 L921 -11 Q923 -12 926 -12 Z M934 -27 Q931 -26 928.5 -26 Q926 -26 924 -25 L923 -25 Q921 -25 920 -24.5 Q919 -24 918 -24 Q917 -23 914 -23 L913 -22 Q900 -17 892 -8.5 Q884 0 879.5 9.5 Q875 19 873.5 27.5 Q872 36 872 42 L872 337 L551 337 L551 286 L821 286 L821 204 L820 203 Q794 168 755.5 143.5 Q717 119 672.5 104 Q628 89 582.5 82.5 Q537 76 497 76 Q413 76 342.5 97.5 Q272 119 221.5 157.5 Q171 196 143 249.5 Q115 303 115 368 Q115 431 142.5 483.5 Q170 536 219 574.5 Q268 613 335.5 634.5 Q403 656 483 656 Q543 656 598 643 Q653 630 698 606.5 Q743 583 774.5 551 Q806 519 820 481 L872 481 L872 683 L821 683 L821 570 L810 580 Q752 636 666 666 Q580 696 480 696 Q389 696 310.5 672 Q232 648 172 602 Q112 556 81 495 Q50 434 50 365 Q50 295 82 234 Q114 173 175 128 Q235 83 317.5 59.5 Q400 36 495 36 Q590 36 671.5 58 Q753 80 811 122 L821 130 L821 42 Q821 42 821.5 33 Q822 24 825 11 Q828 -2 834.5 -17.5 Q841 -33 853 -46 Q884 -76 934 -77 L934 -27 Z M106 461 Q91 416 91 368 Q91 306 115 252 L103 246 Q74 302 74 365 Q74 417 94 465 L106 461 Z M984 23 L984 -127 L940 -127 Q864 -127 817 -80 Q800 -63 791 -43.5 Q782 -24 777.5 -7 Q773 10 772 23.5 Q771 37 771 42 Q712 14 642.5 0 Q573 -14 495 -14 Q392 -14 302 12 Q212 38 145 88 Q74 141 37 212 Q0 283 0 365 Q0 446 36 517 Q72 588 141 641 Q207 692 294 719 Q381 746 480 746 Q561 746 636 727 Q711 708 771 672 L771 733 L922 733 L922 431 L784 431 L774 461 Q763 492 736 518.5 Q709 545 670 564.5 Q631 584 583 595 Q535 606 483 606 Q414 606 355.5 588 Q297 570 254.5 538.5 Q212 507 188 463.5 Q164 420 164 368 Q164 314 188.5 269.5 Q213 225 257 193 Q301 161 362 143 Q423 125 497 125 Q533 125 572 130.5 Q611 136 648 148 Q685 160 717 178.5 Q749 197 771 222 L771 236 L501 236 L501 386 L922 386 L922 42 Q922 37 924 32 Q926 27 930 25 L933 24 Q936 23 940 23 L984 23 Z M971 10 L940 10 Q938 10 935.5 10.5 Q933 11 931 11 L928 12 L926 13 Q915 17 912 27 Q909 37 909 42 L909 374 L514 374 L514 249 L784 249 L784 217 L783 215 Q768 197 742 179 Q716 161 680 146.5 Q644 132 598 122.5 Q552 113 497 113 Q421 113 357.5 131.5 Q294 150 248.5 184 Q203 218 177.5 265 Q152 312 152 368 Q152 422 176.5 468 Q201 514 245.5 547.5 Q290 581 350.5 600 Q411 619 483 619 Q537 619 586.5 607.5 Q636 596 677 575 Q718 554 746.5 526 Q775 498 787 465 L793 444 L909 444 L909 720 L784 720 L784 648 L774 655 Q714 693 638.5 713 Q563 733 480 733 Q383 733 298.5 707 Q214 681 149 631 Q83 580 48 511.5 Q13 443 13 365 Q13 286 48.5 217.5 Q84 149 153 99 Q219 50 306.5 24.5 Q394 -1 495 -1 Q574 -1 645 14 Q716 29 775 58 L784 62 L784 43 Q784 40 784.5 28.5 Q785 17 789 0.5 Q793 -16 801.5 -35 Q810 -54 827 -71 Q867 -114 940 -114 L971 -114 L971 10 Z " />
<glyph glyph-name="H" unicode="H" horiz-adv-x="1072" d="M902 625 L788 625 L788 107 L902 107 L902 36 L587 36 L587 107 L703 107 L703 331 L238 331 L238 107 L352 107 L352 36 L38 36 L38 107 L153 107 L153 625 L38 625 L38 696 L352 696 L352 625 L238 625 L238 402 L703 402 L703 625 L587 625 L587 696 L902 696 L902 625 Z M889 94 L775 94 L775 638 L889 638 L889 683 L600 683 L600 638 L716 638 L716 389 L225 389 L225 638 L339 638 L339 683 L50 683 L50 638 L165 638 L165 94 L50 94 L50 49 L339 49 L339 94 L225 94 L225 344 L716 344 L716 94 L600 94 L600 49 L889 49 L889 94 Z M939 588 L825 588 L825 144 L939 144 L939 0 L550 0 L550 144 L666 144 L666 294 L274 294 L274 144 L389 144 L389 0 L1 0 L1 144 L116 144 L116 588 L1 588 L1 733 L389 733 L389 588 L274 588 L274 439 L666 439 L666 588 L550 588 L550 733 L939 733 L939 588 Z M926 131 L812 131 L812 601 L926 601 L926 720 L563 720 L563 601 L679 601 L679 426 L262 426 L262 601 L376 601 L376 720 L13 720 L13 601 L128 601 L128 131 L13 131 L13 12 L376 12 L376 131 L262 131 L262 307 L679 307 L679 131 L563 131 L563 12 L926 12 L926 131 Z " />
<glyph glyph-name="h" unicode="h" horiz-adv-x="1067" d="M902 625 L788 625 L788 107 L902 107 L902 36 L587 36 L587 107 L703 107 L703 331 L238 331 L238 107 L352 107 L352 36 L38 36 L38 107 L153 107 L153 625 L38 625 L38 696 L352 696 L352 625 L238 625 L238 402 L703 402 L703 625 L587 625 L587 696 L902 696 L902 625 Z M889 94 L775 94 L775 638 L889 638 L889 683 L600 683 L600 638 L716 638 L716 389 L225 389 L225 638 L339 638 L339 683 L50 683 L50 638 L165 638 L165 94 L50 94 L50 49 L339 49 L339 94 L225 94 L225 344 L716 344 L716 94 L600 94 L600 49 L889 49 L889 94 Z M939 588 L825 588 L825 144 L939 144 L939 0 L550 0 L550 144 L666 144 L666 294 L274 294 L274 144 L389 144 L389 0 L1 0 L1 144 L116 144 L116 588 L1 588 L1 733 L389 733 L389 588 L274 588 L274 439 L666 439 L666 588 L550 588 L550 733 L939 733 L939 588 Z M926 131 L812 131 L812 601 L926 601 L926 720 L563 720 L563 601 L679 601 L679 426 L262 426 L262 601 L376 601 L376 720 L13 720 L13 601 L128 601 L128 131 L13 131 L13 12 L376 12 L376 131 L262 131 L262 307 L679 307 L679 131 L563 131 L563 12 L926 12 L926 131 Z " />
<glyph glyph-name="I" unicode="I" horiz-adv-x="531" d="M351 625 L236 625 L236 107 L351 107 L351 36 L37 36 L37 107 L151 107 L151 625 L37 625 L37 696 L351 696 L351 625 Z M339 94 L223 94 L223 638 L339 638 L339 683 L50 683 L50 638 L164 638 L164 94 L50 94 L50 49 L339 49 L339 94 Z M388 588 L273 588 L273 144 L388 144 L388 0 L0 0 L0 144 L114 144 L114 588 L0 588 L0 733 L388 733 L388 588 Z M375 131 L260 131 L260 601 L375 601 L375 720 L13 720 L13 601 L127 601 L127 131 L13 131 L13 12 L375 12 L375 131 Z " />
<glyph glyph-name="i" unicode="i" horiz-adv-x="523" d="M351 625 L236 625 L236 107 L351 107 L351 36 L37 36 L37 107 L151 107 L151 625 L37 625 L37 696 L351 696 L351 625 Z M339 94 L223 94 L223 638 L339 638 L339 683 L50 683 L50 638 L164 638 L164 94 L50 94 L50 49 L339 49 L339 94 Z M388 588 L273 588 L273 144 L388 144 L388 0 L0 0 L0 144 L114 144 L114 588 L0 588 L0 733 L388 733 L388 588 Z M375 131 L260 131 L260 601 L375 601 L375 720 L13 720 L13 601 L127 601 L127 131 L13 131 L13 12 L375 12 L375 131 Z " />
<glyph glyph-name="J" unicode="J" horiz-adv-x="489" d="M152 626 L37 626 L37 697 L352 697 L352 626 L237 626 L237 20 Q237 13 235.5 1.5 Q234 -10 230 -24 Q226 -38 218.5 -53 Q211 -68 199 -81 Q160 -122 88 -122 L82 -122 L82 -37 L88 -37 Q120 -37 135 -20 Q146 -9 148.5 3.5 Q151 16 152 22 L152 27 L152 626 Z M165 639 L165 27 Q165 22 162.5 4.5 Q160 -13 145 -29 Q127 -49 94 -50 L94 -109 Q155 -108 189 -72 Q203 -57 210 -40.5 Q217 -24 220 -9.5 Q223 5 223.5 15 Q224 25 224 26 L223 33 L224 33 L224 639 L339 639 L339 684 L50 684 L50 639 L165 639 Z M140 -62 Q152 -56 162 -46 Q166 -41 169.5 -36.5 Q173 -32 176 -27 L187 -33 Q180 -47 172 -55 Q162 -66 145 -74 L140 -62 Z M389 734 L389 589 L274 589 L274 -3 Q274 -21 267 -39.5 Q260 -58 251 -72.5 Q242 -87 234.5 -96 Q227 -105 226 -106 Q176 -159 88 -159 L45 -159 L45 0 L88 0 Q103 0 109 6 Q112 8 113 13 Q114 18 115 23 L115 589 L0 589 L0 734 L389 734 Z M376 721 L13 721 L13 602 L128 602 L128 22 Q127 18 125.5 10 Q124 2 118 -3 Q109 -13 88 -13 L57 -13 L57 -146 L88 -146 Q171 -146 216 -97 Q216 -97 223.5 -88.5 Q231 -80 239 -66.5 Q247 -53 254 -36.5 Q261 -20 261 -3 L261 602 L376 602 L376 721 Z " />
<glyph glyph-name="j" unicode="j" horiz-adv-x="474" d="M152 626 L37 626 L37 697 L352 697 L352 626 L237 626 L237 20 Q237 13 235.5 1.5 Q234 -10 230 -24 Q226 -38 218.5 -53 Q211 -68 199 -81 Q160 -122 88 -122 L82 -122 L82 -37 L88 -37 Q120 -37 135 -20 Q146 -9 148.5 3.5 Q151 16 152 22 L152 27 L152 626 Z M165 639 L165 27 Q165 22 162.5 4.5 Q160 -13 145 -29 Q127 -49 94 -50 L94 -109 Q155 -108 189 -72 Q203 -57 210 -40.5 Q217 -24 220 -9.5 Q223 5 223.5 15 Q224 25 224 26 L223 33 L224 33 L224 639 L339 639 L339 684 L50 684 L50 639 L165 639 Z M140 -62 Q152 -56 162 -46 Q166 -41 169.5 -36.5 Q173 -32 176 -27 L187 -33 Q180 -47 172 -55 Q162 -66 145 -74 L140 -62 Z M389 734 L389 589 L274 589 L274 -3 Q274 -21 267 -39.5 Q260 -58 251 -72.5 Q242 -87 234.5 -96 Q227 -105 226 -106 Q176 -159 88 -159 L45 -159 L45 0 L88 0 Q103 0 109 6 Q112 8 113 13 Q114 18 115 23 L115 589 L0 589 L0 734 L389 734 Z M376 721 L13 721 L13 602 L128 602 L128 22 Q127 18 125.5 10 Q124 2 118 -3 Q109 -13 88 -13 L57 -13 L57 -146 L88 -146 Q171 -146 216 -97 Q216 -97 223.5 -88.5 Q231 -80 239 -66.5 Q247 -53 254 -36.5 Q261 -20 261 -3 L261 602 L376 602 L376 721 Z " />
<glyph glyph-name="K" unicode="K" horiz-adv-x="1030" d="M387 414 L714 107 L849 107 L849 37 L535 37 L535 107 L620 107 L332 377 L237 313 L237 107 L352 107 L352 37 L37 37 L37 107 L152 107 L152 625 L37 625 L37 696 L352 696 L352 625 L237 625 L237 392 L587 625 L478 625 L478 696 L792 696 L792 624 L696 624 L387 414 Z M836 49 L836 95 L709 95 L366 416 L692 637 L779 637 L779 683 L491 683 L491 638 L629 638 L224 369 L224 638 L339 638 L339 683 L50 683 L50 638 L165 638 L165 95 L50 95 L50 49 L339 49 L339 95 L224 95 L224 318 L229 322 L333 393 L652 95 L548 95 L548 49 L836 49 Z M729 144 L886 144 L886 0 L498 0 L498 144 L526 144 L328 330 L274 293 L274 144 L389 144 L389 0 L0 0 L0 144 L115 144 L115 588 L0 588 L0 733 L389 733 L389 588 L274 588 L274 461 L464 588 L441 588 L441 733 L829 733 L829 587 L708 587 L446 410 L729 144 Z M873 12 L873 131 L724 131 L425 411 L704 600 L816 600 L816 720 L454 720 L454 601 L507 601 L261 438 L261 601 L376 601 L376 720 L13 720 L13 601 L128 601 L128 131 L13 131 L13 12 L376 12 L376 131 L261 131 L261 300 L330 346 L559 131 L511 131 L511 12 L873 12 Z " />
<glyph glyph-name="k" unicode="k" horiz-adv-x="1025" d="M387 414 L714 107 L849 107 L849 37 L535 37 L535 107 L620 107 L332 377 L237 313 L237 107 L352 107 L352 37 L37 37 L37 107 L152 107 L152 625 L37 625 L37 696 L352 696 L352 625 L237 625 L237 392 L587 625 L478 625 L478 696 L792 696 L792 624 L696 624 L387 414 Z M836 49 L836 95 L709 95 L366 416 L692 637 L779 637 L779 683 L491 683 L491 638 L629 638 L224 369 L224 638 L339 638 L339 683 L50 683 L50 638 L165 638 L165 95 L50 95 L50 49 L339 49 L339 95 L224 95 L224 318 L229 322 L333 393 L652 95 L548 95 L548 49 L836 49 Z M729 144 L886 144 L886 0 L498 0 L498 144 L526 144 L328 330 L274 293 L274 144 L389 144 L389 0 L0 0 L0 144 L115 144 L115 588 L0 588 L0 733 L389 733 L389 588 L274 588 L274 461 L464 588 L441 588 L441 733 L829 733 L829 587 L708 587 L446 410 L729 144 Z M873 12 L873 131 L724 131 L425 411 L704 600 L816 600 L816 720 L454 720 L454 601 L507 601 L261 438 L261 601 L376 601 L376 720 L13 720 L13 601 L128 601 L128 131 L13 131 L13 12 L376 12 L376 131 L261 131 L261 300 L330 346 L559 131 L511 131 L511 12 L873 12 Z " />
<glyph glyph-name="l" unicode="l" horiz-adv-x="895" d="M238 625 L238 107 L660 107 L660 209 L741 209 L741 36 L37 36 L37 107 L153 107 L153 625 L37 625 L37 696 L352 696 L352 625 L238 625 Z M673 95 L225 95 L225 638 L339 638 L339 683 L50 683 L50 638 L166 638 L166 95 L50 95 L50 49 L729 49 L729 197 L673 197 L673 95 Z M623 246 L778 246 L778 0 L0 0 L0 144 L116 144 L116 588 L0 588 L0 733 L389 733 L389 588 L275 588 L275 144 L623 144 L623 246 Z M766 12 L766 234 L636 234 L636 131 L262 131 L262 601 L376 601 L376 720 L13 720 L13 601 L129 601 L129 131 L13 131 L13 12 L766 12 Z " />
<glyph glyph-name="L" unicode="L" horiz-adv-x="882" d="M238 625 L238 107 L660 107 L660 209 L741 209 L741 36 L37 36 L37 107 L153 107 L153 625 L37 625 L37 696 L352 696 L352 625 L238 625 Z M673 95 L225 95 L225 638 L339 638 L339 683 L50 683 L50 638 L166 638 L166 95 L50 95 L50 49 L729 49 L729 197 L673 197 L673 95 Z M623 246 L778 246 L778 0 L0 0 L0 144 L116 144 L116 588 L0 588 L0 733 L389 733 L389 588 L275 588 L275 144 L623 144 L623 246 Z M766 12 L766 234 L636 234 L636 131 L262 131 L262 601 L376 601 L376 720 L13 720 L13 601 L129 601 L129 131 L13 131 L13 12 L766 12 Z " />
<glyph glyph-name="M" unicode="M" horiz-adv-x="1278" d="M1086 626 L970 626 L970 108 L1086 108 L1086 37 L772 37 L772 108 L888 108 L888 626 L879 626 L570 111 L549 111 L243 626 L235 626 L235 108 L352 108 L352 37 L37 37 L37 108 L153 108 L153 626 L37 626 L37 696 L279 696 L560 231 L848 696 L852 696 L1086 696 L1086 626 Z M1074 95 L957 95 L957 638 L1074 638 L1074 684 L855 683 L559 207 L272 683 L50 684 L50 638 L166 638 L166 95 L50 95 L50 50 L339 50 L339 95 L222 95 L222 638 L251 638 L556 124 L563 124 L872 638 L901 638 L901 95 L785 95 L785 50 L1074 50 L1074 95 Z M1123 589 L1007 589 L1007 145 L1123 145 L1123 0 L735 0 L735 145 L851 145 L851 508 L591 74 L528 74 L272 505 L272 145 L389 145 L389 0 L0 0 L0 145 L116 145 L116 589 L0 589 L0 733 L300 733 L560 302 L828 733 L831 733 L1123 733 L1123 589 Z M1111 132 L994 132 L994 601 L1111 601 L1111 721 L835 720 L560 277 L293 720 L13 721 L13 601 L129 601 L129 132 L13 132 L13 13 L376 13 L376 132 L259 132 L259 552 L535 87 L583 87 L864 554 L864 132 L748 132 L748 13 L1111 13 L1111 132 Z " />
<glyph glyph-name="m" unicode="m" horiz-adv-x="1286" d="M1086 626 L970 626 L970 108 L1086 108 L1086 37 L772 37 L772 108 L888 108 L888 626 L879 626 L570 111 L549 111 L243 626 L235 626 L235 108 L352 108 L352 37 L37 37 L37 108 L153 108 L153 626 L37 626 L37 696 L279 696 L560 231 L848 696 L852 696 L1086 696 L1086 626 Z M1074 95 L957 95 L957 638 L1074 638 L1074 684 L855 683 L559 207 L272 683 L50 684 L50 638 L166 638 L166 95 L50 95 L50 50 L339 50 L339 95 L222 95 L222 638 L251 638 L556 124 L563 124 L872 638 L901 638 L901 95 L785 95 L785 50 L1074 50 L1074 95 Z M1123 589 L1007 589 L1007 145 L1123 145 L1123 0 L735 0 L735 145 L851 145 L851 508 L591 74 L528 74 L272 505 L272 145 L389 145 L389 0 L0 0 L0 145 L116 145 L116 589 L0 589 L0 733 L300 733 L560 302 L828 733 L831 733 L1123 733 L1123 589 Z M1111 132 L994 132 L994 601 L1111 601 L1111 721 L835 720 L560 277 L293 720 L13 721 L13 601 L129 601 L129 132 L13 132 L13 13 L376 13 L376 132 L259 132 L259 552 L535 87 L583 87 L864 554 L864 132 L748 132 L748 13 L1111 13 L1111 132 Z " />
<glyph glyph-name="N" unicode="N" horiz-adv-x="1059" d="M749 134 L749 625 L628 625 L628 696 L943 696 L943 625 L822 625 L822 37 L746 37 L228 615 L228 107 L352 107 L352 36 L37 36 L37 107 L154 107 L154 625 L37 625 L37 696 L253 696 L749 134 Z M641 638 L762 638 L762 114 L750 114 L748 116 L247 683 L50 683 L50 638 L167 638 L167 94 L50 94 L50 49 L339 49 L339 94 L215 94 L215 635 L227 635 L752 49 L810 49 L810 638 L930 638 L930 683 L641 683 L641 638 Z M591 733 L980 733 L980 588 L859 588 L859 0 L729 0 L265 518 L265 144 L389 144 L389 -1 L345 -1 L0 -1 L0 144 L117 144 L117 588 L0 588 L0 733 L269 733 L712 232 L712 588 L591 588 L591 733 Z M967 601 L967 720 L604 720 L604 601 L725 601 L725 198 L263 720 L13 720 L13 601 L130 601 L130 131 L13 131 L13 12 L345 12 L376 12 L376 131 L252 131 L252 552 L735 12 L846 12 L846 601 L967 601 Z " />
<glyph glyph-name="n" unicode="n" horiz-adv-x="1080" d="M749 134 L749 625 L628 625 L628 696 L943 696 L943 625 L822 625 L822 37 L746 37 L228 615 L228 107 L352 107 L352 36 L37 36 L37 107 L154 107 L154 625 L37 625 L37 696 L253 696 L749 134 Z M641 638 L762 638 L762 114 L750 114 L748 116 L247 683 L50 683 L50 638 L167 638 L167 94 L50 94 L50 49 L339 49 L339 94 L215 94 L215 635 L227 635 L752 49 L810 49 L810 638 L930 638 L930 683 L641 683 L641 638 Z M591 733 L980 733 L980 588 L859 588 L859 0 L729 0 L265 518 L265 144 L389 144 L389 -1 L345 -1 L0 -1 L0 144 L117 144 L117 588 L0 588 L0 733 L269 733 L712 232 L712 588 L591 588 L591 733 Z M967 601 L967 720 L604 720 L604 601 L725 601 L725 198 L263 720 L13 720 L13 601 L130 601 L130 131 L13 131 L13 12 L345 12 L376 12 L376 131 L252 131 L252 552 L735 12 L846 12 L846 601 L967 601 Z " />
<glyph glyph-name="O" unicode="O" horiz-adv-x="1070" d="M482 709 Q579 709 660.5 683.5 Q742 658 801 612 Q860 566 893.5 503.5 Q927 441 927 366 Q927 293 894 230.5 Q861 168 802.5 122 Q744 76 664 50 Q584 24 491 24 Q391 24 307.5 49 Q224 74 164 119.5 Q104 165 70.5 228 Q37 291 37 366 Q37 441 70 503.5 Q103 566 162.5 612 Q222 658 303.5 683.5 Q385 709 482 709 Z M491 37 Q581 37 658.5 62 Q736 87 793 131 Q850 175 882 235 Q914 295 914 366 Q914 438 882 498.5 Q850 559 792.5 603 Q735 647 655.5 671.5 Q576 696 482 696 Q388 696 309 671.5 Q230 647 172.5 603 Q115 559 82.5 498.5 Q50 438 50 366 Q50 293 82.5 232.5 Q115 172 173 128.5 Q231 85 312 61 Q393 37 491 37 Z M482 656 Q562 656 629.5 634.5 Q697 613 746 574 Q795 535 822.5 482 Q850 429 850 366 Q850 303 822.5 250 Q795 197 746 158 Q697 119 629.5 97.5 Q562 76 482 76 Q402 76 334.5 97.5 Q267 119 218.5 158 Q170 197 142.5 250 Q115 303 115 366 Q115 429 142.5 482 Q170 535 218.5 574 Q267 613 334.5 634.5 Q402 656 482 656 Z M482 89 Q559 89 624 110 Q689 131 736.5 167.5 Q784 204 810.5 255 Q837 306 837 366 Q837 426 810.5 477 Q784 528 736.5 565 Q689 602 624 622.5 Q559 643 482 643 Q405 643 340 622.5 Q275 602 227.5 565 Q180 528 153.5 477 Q127 426 127 366 Q127 306 153.5 255 Q180 204 227.5 167.5 Q275 131 340 110 Q405 89 482 89 Z M482 746 Q587 746 675 717.5 Q763 689 827.5 638.5 Q892 588 928 518 Q964 448 964 366 Q964 285 928 215.5 Q892 146 828.5 95.5 Q765 45 678.5 16 Q592 -13 491 -13 Q383 -13 292.5 15 Q202 43 137 93 Q72 143 36 212.5 Q0 282 0 366 Q0 448 36 518 Q72 588 136.5 638.5 Q201 689 289 717.5 Q377 746 482 746 Z M491 0 Q589 0 673.5 28 Q758 56 819.5 105 Q881 154 916 221 Q951 288 951 366 Q951 446 916 513.5 Q881 581 818.5 629.5 Q756 678 670 705.5 Q584 733 482 733 Q380 733 294 705.5 Q208 678 145.5 629.5 Q83 581 48 513.5 Q13 446 13 366 Q13 285 48 217.5 Q83 150 146 102 Q209 54 297 27 Q385 0 491 0 Z M112 476 Q90 423 90 366 Q90 306 115 250 L104 244 Q74 301 74 366 Q74 428 101 482 L112 476 Z M863 482 Q890 428 890 366 Q890 308 866 257 L854 262 Q874 313 874 366 Q874 423 852 476 L863 482 Z M482 619 Q554 619 614.5 600 Q675 581 719.5 547.5 Q764 514 788.5 467.5 Q813 421 813 366 Q813 311 788.5 264.5 Q764 218 719.5 184.5 Q675 151 614.5 132 Q554 113 482 113 Q410 113 349.5 132 Q289 151 245 184.5 Q201 218 176.5 264.5 Q152 311 152 366 Q152 421 176.5 467.5 Q201 514 245 547.5 Q289 581 349.5 600 Q410 619 482 619 Z M482 126 Q551 126 609.5 144 Q668 162 710 194 Q752 226 776 270 Q800 314 800 366 Q800 418 776 462 Q752 506 710 538 Q668 570 609.5 588 Q551 606 482 606 Q413 606 354.5 588 Q296 570 254 538 Q212 506 188 462 Q164 418 164 366 Q164 314 188 270 Q212 226 254 194 Q296 162 354.5 144 Q413 126 482 126 Z " />
<glyph glyph-name="o" unicode="o" horiz-adv-x="1049" d="M482 709 Q579 709 660.5 683.5 Q742 658 801 612 Q860 566 893.5 503.5 Q927 441 927 366 Q927 293 894 230.5 Q861 168 802.5 122 Q744 76 664 50 Q584 24 491 24 Q391 24 307.5 49 Q224 74 164 119.5 Q104 165 70.5 228 Q37 291 37 366 Q37 441 70 503.5 Q103 566 162.5 612 Q222 658 303.5 683.5 Q385 709 482 709 Z M491 37 Q581 37 658.5 62 Q736 87 793 131 Q850 175 882 235 Q914 295 914 366 Q914 438 882 498.5 Q850 559 792.5 603 Q735 647 655.5 671.5 Q576 696 482 696 Q388 696 309 671.5 Q230 647 172.5 603 Q115 559 82.5 498.5 Q50 438 50 366 Q50 293 82.5 232.5 Q115 172 173 128.5 Q231 85 312 61 Q393 37 491 37 Z M482 656 Q562 656 629.5 634.5 Q697 613 746 574 Q795 535 822.5 482 Q850 429 850 366 Q850 303 822.5 250 Q795 197 746 158 Q697 119 629.5 97.5 Q562 76 482 76 Q402 76 334.5 97.5 Q267 119 218.5 158 Q170 197 142.5 250 Q115 303 115 366 Q115 429 142.5 482 Q170 535 218.5 574 Q267 613 334.5 634.5 Q402 656 482 656 Z M482 89 Q559 89 624 110 Q689 131 736.5 167.5 Q784 204 810.5 255 Q837 306 837 366 Q837 426 810.5 477 Q784 528 736.5 565 Q689 602 624 622.5 Q559 643 482 643 Q405 643 340 622.5 Q275 602 227.5 565 Q180 528 153.5 477 Q127 426 127 366 Q127 306 153.5 255 Q180 204 227.5 167.5 Q275 131 340 110 Q405 89 482 89 Z M482 746 Q587 746 675 717.5 Q763 689 827.5 638.5 Q892 588 928 518 Q964 448 964 366 Q964 285 928 215.5 Q892 146 828.5 95.5 Q765 45 678.5 16 Q592 -13 491 -13 Q383 -13 292.5 15 Q202 43 137 93 Q72 143 36 212.5 Q0 282 0 366 Q0 448 36 518 Q72 588 136.5 638.5 Q201 689 289 717.5 Q377 746 482 746 Z M491 0 Q589 0 673.5 28 Q758 56 819.5 105 Q881 154 916 221 Q951 288 951 366 Q951 446 916 513.5 Q881 581 818.5 629.5 Q756 678 670 705.5 Q584 733 482 733 Q380 733 294 705.5 Q208 678 145.5 629.5 Q83 581 48 513.5 Q13 446 13 366 Q13 285 48 217.5 Q83 150 146 102 Q209 54 297 27 Q385 0 491 0 Z M112 476 Q90 423 90 366 Q90 306 115 250 L104 244 Q74 301 74 366 Q74 428 101 482 L112 476 Z M863 482 Q890 428 890 366 Q890 308 866 257 L854 262 Q874 313 874 366 Q874 423 852 476 L863 482 Z M482 619 Q554 619 614.5 600 Q675 581 719.5 547.5 Q764 514 788.5 467.5 Q813 421 813 366 Q813 311 788.5 264.5 Q764 218 719.5 184.5 Q675 151 614.5 132 Q554 113 482 113 Q410 113 349.5 132 Q289 151 245 184.5 Q201 218 176.5 264.5 Q152 311 152 366 Q152 421 176.5 467.5 Q201 514 245 547.5 Q289 581 349.5 600 Q410 619 482 619 Z M482 126 Q551 126 609.5 144 Q668 162 710 194 Q752 226 776 270 Q800 314 800 366 Q800 418 776 462 Q752 506 710 538 Q668 570 609.5 588 Q551 606 482 606 Q413 606 354.5 588 Q296 570 254 538 Q212 506 188 462 Q164 418 164 366 Q164 314 188 270 Q212 226 254 194 Q296 162 354.5 144 Q413 126 482 126 Z " />
<glyph glyph-name="P" unicode="P" horiz-adv-x="851" d="M415 639 Q484 639 527 626 Q570 613 594.5 595 Q619 577 628.5 558 Q638 539 640 526 Q642 520 642 513.5 Q642 507 643 500 Q643 466 629 442 Q615 418 593 402 Q571 386 544.5 376.5 Q518 367 491.5 362 Q465 357 442.5 355.5 Q420 354 406 354 L395 354 Q392 354 391 355 L224 355 L224 638 L396 638 L401 638 Q403 638 406.5 638.5 Q410 639 415 639 Z M406 367 Q419 367 440.5 368.5 Q462 370 486.5 374.5 Q511 379 536.5 387.5 Q562 396 582.5 411 Q603 426 616 447.5 Q629 469 630 500 Q630 507 629.5 513 Q629 519 628 524 Q621 560 593.5 580 Q566 600 532 610.5 Q498 621 465 623.5 Q432 626 415 626 Q410 626 407 625.5 Q404 625 402 625 L397 625 L236 625 L236 367 L392 367 L406 367 Z M715 505 L715 503 L715 500 Q715 468 703 438 Q686 393 650.5 365.5 Q615 338 573.5 323 Q532 308 492 302.5 Q452 297 426 296 L236 296 L236 108 L352 108 L352 37 L37 37 L37 108 L151 108 L151 625 L37 625 L37 696 L421 696 Q553 696 630 648.5 Q707 601 714 515 L715 515 L715 507 L715 505 Z M691 443 Q702 471 702 500 L702 502 L702 503 L702 504 L702 507 Q699 590 625 636.5 Q551 683 421 683 L50 683 L50 638 L164 638 L164 95 L50 95 L50 50 L339 50 L339 95 L224 95 L224 309 L426 309 Q451 310 489.5 315 Q528 320 567.5 334.5 Q607 349 641 374.5 Q675 400 691 443 Z M415 602 Q426 602 454.5 600 Q483 598 514.5 590 Q546 582 572 566 Q598 550 604 521 Q605 516 605 511 Q605 506 606 501 Q605 476 593.5 457.5 Q582 439 563.5 427 Q545 415 522.5 408 Q500 401 478 397 Q456 393 436.5 392 Q417 391 406 391 L393 391 L391 391 L261 391 L261 601 L398 601 Q400 601 404 601.5 Q408 602 415 602 Z M406 404 Q422 404 453.5 406.5 Q485 409 515.5 418.5 Q546 428 569.5 447.5 Q593 467 593 501 Q593 505 592.5 509.5 Q592 514 591 519 Q588 536 575 548 Q562 560 543.5 567.5 Q525 575 504.5 579.5 Q484 584 465.5 586 Q447 588 433 588.5 Q419 589 415 589 L399 589 L273 589 L273 404 L393 404 L406 404 Z M745 553 Q745 552 748.5 536 Q752 520 752 500 Q752 461 737 425 Q717 372 677 339.5 Q637 307 591 290 Q545 273 500.5 267 Q456 261 428 260 L273 260 L273 145 L389 145 L389 0 L0 0 L0 145 L114 145 L114 589 L0 589 L0 733 L421 733 Q511 733 570.5 714.5 Q630 696 667 668.5 Q704 641 721.5 609.5 Q739 578 745 553 Z M725 429 Q739 465 739 500 Q739 510 738 518.5 Q737 527 736 534 Q734 542 733 549 Q718 605 681.5 638.5 Q645 672 599.5 690 Q554 708 506 714 Q458 720 421 720 L13 720 L13 601 L127 601 L127 132 L13 132 L13 13 L376 13 L376 132 L261 132 L261 272 L427 272 Q454 273 497 279 Q540 285 584.5 301.5 Q629 318 667.5 348.5 Q706 379 725 429 Z " />
<glyph glyph-name="p" unicode="p" horiz-adv-x="843" d="M415 639 Q484 639 527 626 Q570 613 594.5 595 Q619 577 628.5 558 Q638 539 640 526 Q642 520 642 513.5 Q642 507 643 500 Q643 466 629 442 Q615 418 593 402 Q571 386 544.5 376.5 Q518 367 491.5 362 Q465 357 442.5 355.5 Q420 354 406 354 L395 354 Q392 354 391 355 L224 355 L224 638 L396 638 L401 638 Q403 638 406.5 638.5 Q410 639 415 639 Z M406 367 Q419 367 440.5 368.5 Q462 370 486.5 374.5 Q511 379 536.5 387.5 Q562 396 582.5 411 Q603 426 616 447.5 Q629 469 630 500 Q630 507 629.5 513 Q629 519 628 524 Q621 560 593.5 580 Q566 600 532 610.5 Q498 621 465 623.5 Q432 626 415 626 Q410 626 407 625.5 Q404 625 402 625 L397 625 L236 625 L236 367 L392 367 L406 367 Z M715 505 L715 503 L715 500 Q715 468 703 438 Q686 393 650.5 365.5 Q615 338 573.5 323 Q532 308 492 302.5 Q452 297 426 296 L236 296 L236 108 L352 108 L352 37 L37 37 L37 108 L151 108 L151 625 L37 625 L37 696 L421 696 Q553 696 630 648.5 Q707 601 714 515 L715 515 L715 507 L715 505 Z M691 443 Q702 471 702 500 L702 502 L702 503 L702 504 L702 507 Q699 590 625 636.5 Q551 683 421 683 L50 683 L50 638 L164 638 L164 95 L50 95 L50 50 L339 50 L339 95 L224 95 L224 309 L426 309 Q451 310 489.5 315 Q528 320 567.5 334.5 Q607 349 641 374.5 Q675 400 691 443 Z M415 602 Q426 602 454.5 600 Q483 598 514.5 590 Q546 582 572 566 Q598 550 604 521 Q605 516 605 511 Q605 506 606 501 Q605 476 593.5 457.5 Q582 439 563.5 427 Q545 415 522.5 408 Q500 401 478 397 Q456 393 436.5 392 Q417 391 406 391 L393 391 L391 391 L261 391 L261 601 L398 601 Q400 601 404 601.5 Q408 602 415 602 Z M406 404 Q422 404 453.5 406.5 Q485 409 515.5 418.5 Q546 428 569.5 447.5 Q593 467 593 501 Q593 505 592.5 509.5 Q592 514 591 519 Q588 536 575 548 Q562 560 543.5 567.5 Q525 575 504.5 579.5 Q484 584 465.5 586 Q447 588 433 588.5 Q419 589 415 589 L399 589 L273 589 L273 404 L393 404 L406 404 Z M745 553 Q745 552 748.5 536 Q752 520 752 500 Q752 461 737 425 Q717 372 677 339.5 Q637 307 591 290 Q545 273 500.5 267 Q456 261 428 260 L273 260 L273 145 L389 145 L389 0 L0 0 L0 145 L114 145 L114 589 L0 589 L0 733 L421 733 Q511 733 570.5 714.5 Q630 696 667 668.5 Q704 641 721.5 609.5 Q739 578 745 553 Z M725 429 Q739 465 739 500 Q739 510 738 518.5 Q737 527 736 534 Q734 542 733 549 Q718 605 681.5 638.5 Q645 672 599.5 690 Q554 708 506 714 Q458 720 421 720 L13 720 L13 601 L127 601 L127 132 L13 132 L13 13 L376 13 L376 132 L261 132 L261 272 L427 272 Q454 273 497 279 Q540 285 584.5 301.5 Q629 318 667.5 348.5 Q706 379 725 429 Z " />
<glyph glyph-name="q" unicode="q" horiz-adv-x="1077" d="M824 141 Q827 127 838.5 113.5 Q850 100 878 100 L885 100 L885 24 L878 24 Q851 24 831 30 Q811 36 797 46 Q783 56 774 68.5 Q765 81 759 93 Q702 59 634 41.5 Q566 24 491 24 Q391 24 307.5 49 Q224 74 164 119.5 Q104 165 70.5 228 Q37 291 37 367 Q37 441 70 504 Q103 567 162.5 612.5 Q222 658 303.5 683.5 Q385 709 482 709 Q579 709 660.5 683.5 Q742 658 801 612.5 Q860 567 893.5 504 Q927 441 927 367 Q927 302 901 245 Q875 188 824 141 Z M872 88 Q854 89 842.5 95.5 Q831 102 824 110.5 Q817 119 814.5 128 Q812 137 811 143 L810 146 L813 148 Q914 240 914 367 Q914 439 882 499 Q850 559 792.5 603 Q735 647 655.5 671.5 Q576 696 482 696 Q388 696 309 671.5 Q230 647 172.5 603 Q115 559 82.5 499 Q50 439 50 367 Q50 294 82.5 233.5 Q115 173 173 129.5 Q231 86 312 61.5 Q393 37 491 37 Q566 37 634 55 Q702 73 759 108 L765 112 L768 104 Q792 40 872 37 L872 88 Z M482 657 Q562 657 629.5 635.5 Q697 614 746 575 Q795 536 822.5 483 Q850 430 850 367 Q850 275 791 204 L786 198 L781 204 Q752 243 692 245 L692 195 Q715 193 727 184 Q739 175 744 165 L747 160 L743 157 Q692 118 625 97.5 Q558 77 482 77 Q402 77 334.5 98.5 Q267 120 218.5 159 Q170 198 142.5 251 Q115 304 115 367 Q115 430 142.5 483 Q170 536 218.5 575 Q267 614 334.5 635.5 Q402 657 482 657 Z M786 218 Q837 286 837 367 Q837 427 810.5 478 Q784 529 736.5 565.5 Q689 602 624 623 Q559 644 482 644 Q405 644 340 623 Q275 602 227.5 565.5 Q180 529 153.5 478 Q127 427 127 367 Q127 307 153.5 256 Q180 205 227.5 168 Q275 131 340 110.5 Q405 90 482 90 Q554 90 618 109 Q682 128 730 163 Q717 182 685 182 L679 182 L679 258 L685 258 Q753 258 786 218 Z M852 258 Q874 311 874 367 Q874 422 852 477 L863 482 Q890 428 890 367 Q890 307 864 253 L852 258 Z M112 477 Q90 422 90 367 Q90 307 115 251 L104 245 Q74 300 74 367 Q74 428 101 482 L112 477 Z M482 620 Q554 620 614.5 601 Q675 582 719.5 548 Q764 514 788.5 468 Q813 422 813 367 Q813 309 786 261 L782 255 L777 258 Q739 282 685 282 L655 282 L655 148 L651 146 Q575 114 482 114 Q410 114 349.5 133 Q289 152 245 185.5 Q201 219 176.5 265.5 Q152 312 152 367 Q152 422 176.5 468 Q201 514 245 548 Q289 582 349.5 601 Q410 620 482 620 Z M778 273 Q789 295 794.5 318 Q800 341 800 367 Q800 419 776 463 Q752 507 710 539 Q668 571 609.5 589 Q551 607 482 607 Q413 607 354.5 589 Q296 571 254 539 Q212 507 188 463 Q164 419 164 367 Q164 315 188 271 Q212 227 254 195 Q296 163 354.5 145 Q413 127 482 127 Q570 127 642 156 L642 295 L685 295 Q740 295 778 273 Z M873 138 Q874 137 878 137 L922 137 L922 -13 L878 -13 Q825 -13 794 5.5 Q763 24 746 44 Q689 16 624.5 1.5 Q560 -13 491 -13 Q383 -13 292.5 15 Q202 43 137 93 Q72 143 36 213 Q0 283 0 367 Q0 449 36 519 Q72 589 136.5 639 Q201 689 289 717.5 Q377 746 482 746 Q587 746 675 717.5 Q763 689 827.5 639 Q892 589 928 519 Q964 449 964 367 Q964 304 941 245 Q918 186 873 138 Z M909 125 L878 125 Q863 125 858 129 L851 134 L857 139 Q903 187 927 245.5 Q951 304 951 367 Q951 446 916 513.5 Q881 581 818.5 629.5 Q756 678 670 705.5 Q584 733 482 733 Q380 733 294 705.5 Q208 678 145.5 629.5 Q83 581 48 513.5 Q13 446 13 367 Q13 286 48 218.5 Q83 151 146 102.5 Q209 54 297 27 Q385 0 491 0 Q560 0 624.5 14.5 Q689 29 745 58 L750 60 L753 56 Q795 0 878 0 L909 0 L909 125 Z " />
<glyph glyph-name="Q" unicode="Q" horiz-adv-x="1088" d="M824 141 Q827 127 838.5 113.5 Q850 100 878 100 L885 100 L885 24 L878 24 Q851 24 831 30 Q811 36 797 46 Q783 56 774 68.5 Q765 81 759 93 Q702 59 634 41.5 Q566 24 491 24 Q391 24 307.5 49 Q224 74 164 119.5 Q104 165 70.5 228 Q37 291 37 367 Q37 441 70 504 Q103 567 162.5 612.5 Q222 658 303.5 683.5 Q385 709 482 709 Q579 709 660.5 683.5 Q742 658 801 612.5 Q860 567 893.5 504 Q927 441 927 367 Q927 302 901 245 Q875 188 824 141 Z M872 88 Q854 89 842.5 95.5 Q831 102 824 110.5 Q817 119 814.5 128 Q812 137 811 143 L810 146 L813 148 Q914 240 914 367 Q914 439 882 499 Q850 559 792.5 603 Q735 647 655.5 671.5 Q576 696 482 696 Q388 696 309 671.5 Q230 647 172.5 603 Q115 559 82.5 499 Q50 439 50 367 Q50 294 82.5 233.5 Q115 173 173 129.5 Q231 86 312 61.5 Q393 37 491 37 Q566 37 634 55 Q702 73 759 108 L765 112 L768 104 Q792 40 872 37 L872 88 Z M482 657 Q562 657 629.5 635.5 Q697 614 746 575 Q795 536 822.5 483 Q850 430 850 367 Q850 275 791 204 L786 198 L781 204 Q752 243 692 245 L692 195 Q715 193 727 184 Q739 175 744 165 L747 160 L743 157 Q692 118 625 97.5 Q558 77 482 77 Q402 77 334.5 98.5 Q267 120 218.5 159 Q170 198 142.5 251 Q115 304 115 367 Q115 430 142.5 483 Q170 536 218.5 575 Q267 614 334.5 635.5 Q402 657 482 657 Z M786 218 Q837 286 837 367 Q837 427 810.5 478 Q784 529 736.5 565.5 Q689 602 624 623 Q559 644 482 644 Q405 644 340 623 Q275 602 227.5 565.5 Q180 529 153.5 478 Q127 427 127 367 Q127 307 153.5 256 Q180 205 227.5 168 Q275 131 340 110.5 Q405 90 482 90 Q554 90 618 109 Q682 128 730 163 Q717 182 685 182 L679 182 L679 258 L685 258 Q753 258 786 218 Z M852 258 Q874 311 874 367 Q874 422 852 477 L863 482 Q890 428 890 367 Q890 307 864 253 L852 258 Z M112 477 Q90 422 90 367 Q90 307 115 251 L104 245 Q74 300 74 367 Q74 428 101 482 L112 477 Z M482 620 Q554 620 614.5 601 Q675 582 719.5 548 Q764 514 788.5 468 Q813 422 813 367 Q813 309 786 261 L782 255 L777 258 Q739 282 685 282 L655 282 L655 148 L651 146 Q575 114 482 114 Q410 114 349.5 133 Q289 152 245 185.5 Q201 219 176.5 265.5 Q152 312 152 367 Q152 422 176.5 468 Q201 514 245 548 Q289 582 349.5 601 Q410 620 482 620 Z M778 273 Q789 295 794.5 318 Q800 341 800 367 Q800 419 776 463 Q752 507 710 539 Q668 571 609.5 589 Q551 607 482 607 Q413 607 354.5 589 Q296 571 254 539 Q212 507 188 463 Q164 419 164 367 Q164 315 188 271 Q212 227 254 195 Q296 163 354.5 145 Q413 127 482 127 Q570 127 642 156 L642 295 L685 295 Q740 295 778 273 Z M873 138 Q874 137 878 137 L922 137 L922 -13 L878 -13 Q825 -13 794 5.5 Q763 24 746 44 Q689 16 624.5 1.5 Q560 -13 491 -13 Q383 -13 292.5 15 Q202 43 137 93 Q72 143 36 213 Q0 283 0 367 Q0 449 36 519 Q72 589 136.5 639 Q201 689 289 717.5 Q377 746 482 746 Q587 746 675 717.5 Q763 689 827.5 639 Q892 589 928 519 Q964 449 964 367 Q964 304 941 245 Q918 186 873 138 Z M909 125 L878 125 Q863 125 858 129 L851 134 L857 139 Q903 187 927 245.5 Q951 304 951 367 Q951 446 916 513.5 Q881 581 818.5 629.5 Q756 678 670 705.5 Q584 733 482 733 Q380 733 294 705.5 Q208 678 145.5 629.5 Q83 581 48 513.5 Q13 446 13 367 Q13 286 48 218.5 Q83 151 146 102.5 Q209 54 297 27 Q385 0 491 0 Q560 0 624.5 14.5 Q689 29 745 58 L750 60 L753 56 Q795 0 878 0 L909 0 L909 125 Z " />
<glyph glyph-name="R" unicode="R" horiz-adv-x="978" d="M632 530 Q632 500 618.5 480 Q605 460 585 446.5 Q565 433 541 425.5 Q517 418 496 414.5 Q475 411 460.5 410.5 Q446 410 444 410 L225 410 L225 638 L444 638 L449 638 Q461 638 491 635.5 Q521 633 552.5 622.5 Q584 612 608 590.5 Q632 569 632 530 Z M534 437 Q619 464 619 530 Q619 564 596.5 583.5 Q574 603 545 612.5 Q516 622 488 624 Q460 626 449 626 Q447 626 446.5 625.5 Q446 625 445 625 L444 625 L237 625 L237 423 L444 423 Q445 423 453 423 Q461 423 473.5 424.5 Q486 426 501.5 429 Q517 432 534 437 Z M666 108 L809 108 L809 37 L618 37 L616 40 L425 352 L237 352 L237 108 L352 108 L352 37 L37 37 L37 108 L152 108 L152 355 L82 355 L82 426 L152 426 L152 625 L37 625 L37 696 L459 696 Q515 696 560 684.5 Q605 673 637 651 Q669 629 686.5 598.5 Q704 568 704 531 Q704 486 684.5 455.5 Q665 425 636.5 405 Q608 385 574 374.5 Q540 364 512 359 L666 108 Z M796 95 L659 95 L491 369 L500 370 Q527 374 560 383.5 Q593 393 622.5 411.5 Q652 430 671.5 459 Q691 488 691 531 Q691 566 674.5 594 Q658 622 628 642 Q598 662 555 672.5 Q512 683 459 683 L50 683 L50 638 L165 638 L165 413 L95 413 L95 368 L165 368 L165 95 L50 95 L50 50 L339 50 L339 95 L225 95 L225 365 L433 365 L434 362 L625 50 L796 50 L796 95 Z M846 145 L846 0 L597 0 L596 3 L405 315 L274 315 L274 145 L389 145 L389 0 L0 0 L0 145 L115 145 L115 318 L45 318 L45 463 L115 463 L115 589 L0 589 L0 733 L459 733 Q532 733 585.5 715.5 Q639 698 673.5 669.5 Q708 641 724.5 605 Q741 569 741 531 Q741 460 697 409.5 Q653 359 570 334 L687 145 L846 145 Z M833 132 L680 132 L550 342 L558 345 Q641 368 684.5 415.5 Q728 463 728 531 Q728 566 712 600 Q696 634 663 660.5 Q630 687 579.5 703.5 Q529 720 459 720 L13 720 L13 601 L128 601 L128 450 L58 450 L58 331 L128 331 L128 132 L13 132 L13 13 L376 13 L376 132 L261 132 L261 328 L412 328 L414 325 L605 13 L833 13 L833 132 Z M449 601 Q458 601 482 599.5 Q506 598 531 591 Q556 584 575.5 569.5 Q595 555 595 530 Q595 500 571.5 483 Q548 466 520 458 Q492 450 468 448.5 Q444 447 444 447 L261 447 L261 601 L449 601 Z M444 460 Q444 460 466 461.5 Q488 463 513.5 470 Q539 477 560.5 491 Q582 505 582 530 Q582 552 562 564 Q542 576 517.5 581.5 Q493 587 472 588 Q451 589 449 589 L445 589 L274 589 L274 460 L444 460 Z " />
<glyph glyph-name="r" unicode="r" horiz-adv-x="963" d="M632 530 Q632 500 618.5 480 Q605 460 585 446.5 Q565 433 541 425.5 Q517 418 496 414.5 Q475 411 460.5 410.5 Q446 410 444 410 L225 410 L225 638 L444 638 L449 638 Q461 638 491 635.5 Q521 633 552.5 622.5 Q584 612 608 590.5 Q632 569 632 530 Z M534 437 Q619 464 619 530 Q619 564 596.5 583.5 Q574 603 545 612.5 Q516 622 488 624 Q460 626 449 626 Q447 626 446.5 625.5 Q446 625 445 625 L444 625 L237 625 L237 423 L444 423 Q445 423 453 423 Q461 423 473.5 424.5 Q486 426 501.5 429 Q517 432 534 437 Z M666 108 L809 108 L809 37 L618 37 L616 40 L425 352 L237 352 L237 108 L352 108 L352 37 L37 37 L37 108 L152 108 L152 355 L82 355 L82 426 L152 426 L152 625 L37 625 L37 696 L459 696 Q515 696 560 684.5 Q605 673 637 651 Q669 629 686.5 598.5 Q704 568 704 531 Q704 486 684.5 455.5 Q665 425 636.5 405 Q608 385 574 374.5 Q540 364 512 359 L666 108 Z M796 95 L659 95 L491 369 L500 370 Q527 374 560 383.5 Q593 393 622.5 411.5 Q652 430 671.5 459 Q691 488 691 531 Q691 566 674.5 594 Q658 622 628 642 Q598 662 555 672.5 Q512 683 459 683 L50 683 L50 638 L165 638 L165 413 L95 413 L95 368 L165 368 L165 95 L50 95 L50 50 L339 50 L339 95 L225 95 L225 365 L433 365 L434 362 L625 50 L796 50 L796 95 Z M846 145 L846 0 L597 0 L596 3 L405 315 L274 315 L274 145 L389 145 L389 0 L0 0 L0 145 L115 145 L115 318 L45 318 L45 463 L115 463 L115 589 L0 589 L0 733 L459 733 Q532 733 585.5 715.5 Q639 698 673.5 669.5 Q708 641 724.5 605 Q741 569 741 531 Q741 460 697 409.5 Q653 359 570 334 L687 145 L846 145 Z M833 132 L680 132 L550 342 L558 345 Q641 368 684.5 415.5 Q728 463 728 531 Q728 566 712 600 Q696 634 663 660.5 Q630 687 579.5 703.5 Q529 720 459 720 L13 720 L13 601 L128 601 L128 450 L58 450 L58 331 L128 331 L128 132 L13 132 L13 13 L376 13 L376 132 L261 132 L261 328 L412 328 L414 325 L605 13 L833 13 L833 132 Z M449 601 Q458 601 482 599.5 Q506 598 531 591 Q556 584 575.5 569.5 Q595 555 595 530 Q595 500 571.5 483 Q548 466 520 458 Q492 450 468 448.5 Q444 447 444 447 L261 447 L261 601 L449 601 Z M444 460 Q444 460 466 461.5 Q488 463 513.5 470 Q539 477 560.5 491 Q582 505 582 530 Q582 552 562 564 Q542 576 517.5 581.5 Q493 587 472 588 Q451 589 449 589 L445 589 L274 589 L274 460 L444 460 Z " />
<glyph glyph-name="s" unicode="s" horiz-adv-x="778" d="M345 416 Q396 405 448 392.5 Q500 380 542 358 Q584 336 610 302 Q636 268 636 215 Q636 174 614.5 139.5 Q593 105 554.5 79.5 Q516 54 464 39.5 Q412 25 351 25 Q280 25 216 47 Q152 69 114 107 L114 38 L37 38 L37 275 L114 275 L114 243 Q114 212 133 184 Q152 156 184 135 Q216 114 259 102 Q302 90 350 90 Q392 90 428 99.5 Q464 109 490.5 126 Q517 143 531.5 166.5 Q546 190 546 218 Q546 249 527 270 Q508 291 476.5 305.5 Q445 320 404 329.5 Q363 339 320 348 Q268 359 217.5 371.5 Q167 384 127.5 404.5 Q88 425 63.5 457.5 Q39 490 39 540 Q39 577 58.5 608 Q78 639 113 661.5 Q148 684 196 696.5 Q244 709 301 709 Q366 709 422.5 692 Q479 675 518 643 L518 696 L594 696 L594 506 L518 506 L518 528 Q518 550 499.5 571 Q481 592 450.5 608 Q420 624 380.5 633.5 Q341 643 299 643 Q262 643 230 635 Q198 627 175 613.5 Q152 600 138.5 581 Q125 562 125 540 Q125 510 143.5 490 Q162 470 192.5 456.5 Q223 443 263 433.5 Q303 424 345 416 Z M351 38 Q409 38 459 51.5 Q509 65 545.5 88.5 Q582 112 602.5 144.5 Q623 177 623 215 Q623 264 597.5 296 Q572 328 532 348.5 Q492 369 442 381 Q392 393 343 403 Q298 412 256.5 421.5 Q215 431 183 446 Q151 461 131.5 483.5 Q112 506 112 540 Q112 565 126 586 Q140 607 165 622.5 Q190 638 224.5 647 Q259 656 299 656 Q344 656 386 645.5 Q428 635 460.5 617 Q493 599 512 576 Q531 553 531 528 L531 519 L581 519 L581 683 L531 683 L531 614 L520 624 Q483 658 425.5 677 Q368 696 301 696 Q247 696 201.5 684.5 Q156 673 122.5 652 Q89 631 70.5 602.5 Q52 574 52 540 Q52 494 75.5 464 Q99 434 137.5 414.5 Q176 395 224.5 383 Q273 371 323 361 Q368 352 410.5 341.5 Q453 331 486 315.5 Q519 300 539 276.5 Q559 253 559 218 Q559 187 543.5 161 Q528 135 500 116.5 Q472 98 433.5 87.5 Q395 77 350 77 Q299 77 254 90.5 Q209 104 175.5 126.5 Q142 149 122 179 Q102 209 102 243 L102 262 L50 262 L50 50 L102 50 L102 140 L113 127 Q148 86 212 62 Q276 38 351 38 Z M585 273 Q599 247 599 215 Q599 186 584 161 L572 166 Q583 193 583 218 Q583 246 573 267 L585 273 Z M353 452 Q406 441 463 427 Q520 413 566.5 387.5 Q613 362 643 321 Q673 280 673 215 Q673 166 648.5 124.5 Q624 83 581 52.5 Q538 22 479 5 Q420 -12 351 -12 Q296 -12 245 0 Q194 12 151 35 L151 1 L0 1 L0 312 L151 312 L151 243 Q151 220 167 199 Q183 178 210.5 162 Q238 146 274 136.5 Q310 127 350 127 Q384 127 413 134 Q442 141 463.5 153 Q485 165 497 181.5 Q509 198 509 218 Q509 237 495 250.5 Q481 264 455.5 274.5 Q430 285 393.5 294 Q357 303 313 312 Q261 323 206 337 Q151 351 106 375.5 Q61 400 32 439 Q3 478 3 540 Q3 585 25 622.5 Q47 660 87 687.5 Q127 715 181.5 730.5 Q236 746 301 746 Q401 746 481 709 L481 733 L631 733 L631 469 L481 469 L481 528 Q481 538 467.5 552 Q454 566 430 578 Q406 590 372.5 598.5 Q339 607 299 607 Q268 607 243 601 Q218 595 200 585.5 Q182 576 172 564 Q162 552 162 540 Q162 522 175.5 509.5 Q189 497 214 487 Q239 477 274 469 Q309 461 353 452 Z M351 1 Q417 1 473.5 17.5 Q530 34 571.5 62.5 Q613 91 636.5 130 Q660 169 660 215 Q660 276 631 314.5 Q602 353 557 377.5 Q512 402 457 415.5 Q402 429 350 439 Q304 448 267 457.5 Q230 467 203.5 478 Q177 489 163 504 Q149 519 149 540 Q149 555 159 569 Q169 583 188.5 594 Q208 605 236 612 Q264 619 299 619 Q338 619 373.5 610.5 Q409 602 436 589 Q463 576 478.5 559.5 Q494 543 494 528 L494 482 L618 482 L618 720 L494 720 L494 688 L484 693 Q445 713 398 723 Q351 733 301 733 Q239 733 186.5 718.5 Q134 704 96 678.5 Q58 653 36.5 617.5 Q15 582 15 540 Q15 482 43 445 Q71 408 115 385 Q159 362 212.5 348.5 Q266 335 316 325 Q362 315 400 305.5 Q438 296 465 284 Q492 272 507 256 Q522 240 522 218 Q522 196 509 177 Q496 158 473 144 Q450 130 418.5 122 Q387 114 350 114 Q308 114 269.5 124.5 Q231 135 202 153 Q173 171 156 194 Q139 217 139 243 L139 299 L13 299 L13 13 L139 13 L139 57 L148 51 Q190 27 242 14 Q294 1 351 1 Z " />
<glyph glyph-name="S" unicode="S" horiz-adv-x="781" d="M345 416 Q396 405 448 392.5 Q500 380 542 358 Q584 336 610 302 Q636 268 636 215 Q636 174 614.5 139.5 Q593 105 554.5 79.5 Q516 54 464 39.5 Q412 25 351 25 Q280 25 216 47 Q152 69 114 107 L114 38 L37 38 L37 275 L114 275 L114 243 Q114 212 133 184 Q152 156 184 135 Q216 114 259 102 Q302 90 350 90 Q392 90 428 99.5 Q464 109 490.5 126 Q517 143 531.5 166.5 Q546 190 546 218 Q546 249 527 270 Q508 291 476.5 305.5 Q445 320 404 329.5 Q363 339 320 348 Q268 359 217.5 371.5 Q167 384 127.5 404.5 Q88 425 63.5 457.5 Q39 490 39 540 Q39 577 58.5 608 Q78 639 113 661.5 Q148 684 196 696.5 Q244 709 301 709 Q366 709 422.5 692 Q479 675 518 643 L518 696 L594 696 L594 506 L518 506 L518 528 Q518 550 499.5 571 Q481 592 450.5 608 Q420 624 380.5 633.5 Q341 643 299 643 Q262 643 230 635 Q198 627 175 613.5 Q152 600 138.5 581 Q125 562 125 540 Q125 510 143.5 490 Q162 470 192.5 456.5 Q223 443 263 433.5 Q303 424 345 416 Z M351 38 Q409 38 459 51.5 Q509 65 545.5 88.5 Q582 112 602.5 144.5 Q623 177 623 215 Q623 264 597.5 296 Q572 328 532 348.5 Q492 369 442 381 Q392 393 343 403 Q298 412 256.5 421.5 Q215 431 183 446 Q151 461 131.5 483.5 Q112 506 112 540 Q112 565 126 586 Q140 607 165 622.5 Q190 638 224.5 647 Q259 656 299 656 Q344 656 386 645.5 Q428 635 460.5 617 Q493 599 512 576 Q531 553 531 528 L531 519 L581 519 L581 683 L531 683 L531 614 L520 624 Q483 658 425.5 677 Q368 696 301 696 Q247 696 201.5 684.5 Q156 673 122.5 652 Q89 631 70.5 602.5 Q52 574 52 540 Q52 494 75.5 464 Q99 434 137.5 414.5 Q176 395 224.5 383 Q273 371 323 361 Q368 352 410.5 341.5 Q453 331 486 315.5 Q519 300 539 276.5 Q559 253 559 218 Q559 187 543.5 161 Q528 135 500 116.5 Q472 98 433.5 87.5 Q395 77 350 77 Q299 77 254 90.5 Q209 104 175.5 126.5 Q142 149 122 179 Q102 209 102 243 L102 262 L50 262 L50 50 L102 50 L102 140 L113 127 Q148 86 212 62 Q276 38 351 38 Z M585 273 Q599 247 599 215 Q599 186 584 161 L572 166 Q583 193 583 218 Q583 246 573 267 L585 273 Z M353 452 Q406 441 463 427 Q520 413 566.5 387.5 Q613 362 643 321 Q673 280 673 215 Q673 166 648.5 124.5 Q624 83 581 52.5 Q538 22 479 5 Q420 -12 351 -12 Q296 -12 245 0 Q194 12 151 35 L151 1 L0 1 L0 312 L151 312 L151 243 Q151 220 167 199 Q183 178 210.5 162 Q238 146 274 136.5 Q310 127 350 127 Q384 127 413 134 Q442 141 463.5 153 Q485 165 497 181.5 Q509 198 509 218 Q509 237 495 250.5 Q481 264 455.5 274.5 Q430 285 393.5 294 Q357 303 313 312 Q261 323 206 337 Q151 351 106 375.5 Q61 400 32 439 Q3 478 3 540 Q3 585 25 622.5 Q47 660 87 687.5 Q127 715 181.5 730.5 Q236 746 301 746 Q401 746 481 709 L481 733 L631 733 L631 469 L481 469 L481 528 Q481 538 467.5 552 Q454 566 430 578 Q406 590 372.5 598.5 Q339 607 299 607 Q268 607 243 601 Q218 595 200 585.5 Q182 576 172 564 Q162 552 162 540 Q162 522 175.5 509.5 Q189 497 214 487 Q239 477 274 469 Q309 461 353 452 Z M351 1 Q417 1 473.5 17.5 Q530 34 571.5 62.5 Q613 91 636.5 130 Q660 169 660 215 Q660 276 631 314.5 Q602 353 557 377.5 Q512 402 457 415.5 Q402 429 350 439 Q304 448 267 457.5 Q230 467 203.5 478 Q177 489 163 504 Q149 519 149 540 Q149 555 159 569 Q169 583 188.5 594 Q208 605 236 612 Q264 619 299 619 Q338 619 373.5 610.5 Q409 602 436 589 Q463 576 478.5 559.5 Q494 543 494 528 L494 482 L618 482 L618 720 L494 720 L494 688 L484 693 Q445 713 398 723 Q351 733 301 733 Q239 733 186.5 718.5 Q134 704 96 678.5 Q58 653 36.5 617.5 Q15 582 15 540 Q15 482 43 445 Q71 408 115 385 Q159 362 212.5 348.5 Q266 335 316 325 Q362 315 400 305.5 Q438 296 465 284 Q492 272 507 256 Q522 240 522 218 Q522 196 509 177 Q496 158 473 144 Q450 130 418.5 122 Q387 114 350 114 Q308 114 269.5 124.5 Q231 135 202 153 Q173 171 156 194 Q139 217 139 243 L139 299 L13 299 L13 13 L139 13 L139 57 L148 51 Q190 27 242 14 Q294 1 351 1 Z " />
<glyph glyph-name="t" unicode="t" horiz-adv-x="911" d="M109 625 L109 480 L37 480 L37 696 L745 696 L745 480 L673 480 L673 625 L434 625 L434 108 L548 108 L548 37 L234 37 L234 108 L349 108 L349 625 L109 625 Z M96 493 L96 638 L361 638 L361 95 L246 95 L246 50 L535 50 L535 95 L421 95 L421 638 L686 638 L686 493 L732 493 L732 683 L50 683 L50 493 L96 493 Z M0 733 L782 733 L782 443 L636 443 L636 589 L470 589 L470 145 L585 145 L585 1 L197 1 L197 145 L312 145 L312 589 L146 589 L146 443 L0 443 L0 733 Z M769 456 L769 720 L13 720 L13 456 L133 456 L133 601 L324 601 L324 132 L209 132 L209 13 L572 13 L572 132 L458 132 L458 601 L649 601 L649 456 L769 456 Z " />
<glyph glyph-name="T" unicode="T" horiz-adv-x="916" d="M109 625 L109 480 L37 480 L37 696 L745 696 L745 480 L673 480 L673 625 L434 625 L434 108 L548 108 L548 37 L234 37 L234 108 L349 108 L349 625 L109 625 Z M96 493 L96 638 L361 638 L361 95 L246 95 L246 50 L535 50 L535 95 L421 95 L421 638 L686 638 L686 493 L732 493 L732 683 L50 683 L50 493 L96 493 Z M0 733 L782 733 L782 443 L636 443 L636 589 L470 589 L470 145 L585 145 L585 1 L197 1 L197 145 L312 145 L312 589 L146 589 L146 443 L0 443 L0 733 Z M769 456 L769 720 L13 720 L13 456 L133 456 L133 601 L324 601 L324 132 L209 132 L209 13 L572 13 L572 132 L458 132 L458 601 L649 601 L649 456 L769 456 Z " />
<glyph glyph-name="U" unicode="U" horiz-adv-x="1041" d="M678 625 L563 625 L563 696 L878 696 L878 625 L763 625 L763 230 Q763 182 745.5 148.5 Q728 115 701 92 Q674 69 640 55.5 Q606 42 572.5 35 Q539 28 510 26 Q481 24 464 24 Q362 24 300.5 45.5 Q239 67 205.5 98.5 Q172 130 161.5 165.5 Q151 201 151 230 L151 625 L37 625 L37 696 L351 696 L351 625 L236 625 L236 230 Q236 159 292 121.5 Q348 84 454 84 Q678 84 678 228 L678 625 Z M691 638 L691 228 Q691 71 454 71 Q342 71 282.5 112 Q223 153 223 230 L223 638 L338 638 L338 683 L50 683 L50 638 L164 638 L164 230 Q164 167 195 129 Q226 91 272 70.5 Q318 50 370 43.5 Q422 37 464 37 Q481 37 508.5 39 Q536 41 568 47.5 Q600 54 632.5 66.5 Q665 79 691 100.5 Q717 122 733.5 153.5 Q750 185 750 230 L750 638 L865 638 L865 683 L576 683 L576 638 L691 638 Z M915 733 L915 589 L800 589 L800 230 Q800 173 777 128 Q754 83 710.5 52 Q667 21 605 4.5 Q543 -12 464 -12 Q297 -12 205.5 51 Q114 114 114 230 L114 589 L0 589 L0 733 L388 733 L388 589 L273 589 L273 230 Q273 196 289.5 175 Q306 154 332.5 142 Q359 130 391 125.5 Q423 121 454 121 Q524 121 562 133.5 Q600 146 617.5 163.5 Q635 181 638 199 Q641 217 641 228 L641 589 L527 589 L527 733 L915 733 Z M902 720 L539 720 L539 601 L654 601 L654 228 Q654 209 648 188 Q642 167 621 149 Q600 131 560.5 119.5 Q521 108 454 108 Q358 108 309 139 Q260 170 260 230 L260 601 L375 601 L375 720 L13 720 L13 601 L127 601 L127 230 Q127 120 215 60 Q303 0 464 0 Q540 0 600 15.5 Q660 31 701.5 61 Q743 91 765 133.5 Q787 176 787 230 L787 601 L902 601 L902 720 Z " />
<glyph glyph-name="u" unicode="u" horiz-adv-x="1025" d="M678 625 L563 625 L563 696 L878 696 L878 625 L763 625 L763 230 Q763 182 745.5 148.5 Q728 115 701 92 Q674 69 640 55.5 Q606 42 572.5 35 Q539 28 510 26 Q481 24 464 24 Q362 24 300.5 45.5 Q239 67 205.5 98.5 Q172 130 161.5 165.5 Q151 201 151 230 L151 625 L37 625 L37 696 L351 696 L351 625 L236 625 L236 230 Q236 159 292 121.5 Q348 84 454 84 Q678 84 678 228 L678 625 Z M691 638 L691 228 Q691 71 454 71 Q342 71 282.5 112 Q223 153 223 230 L223 638 L338 638 L338 683 L50 683 L50 638 L164 638 L164 230 Q164 167 195 129 Q226 91 272 70.5 Q318 50 370 43.5 Q422 37 464 37 Q481 37 508.5 39 Q536 41 568 47.5 Q600 54 632.5 66.5 Q665 79 691 100.5 Q717 122 733.5 153.5 Q750 185 750 230 L750 638 L865 638 L865 683 L576 683 L576 638 L691 638 Z M915 733 L915 589 L800 589 L800 230 Q800 173 777 128 Q754 83 710.5 52 Q667 21 605 4.5 Q543 -12 464 -12 Q297 -12 205.5 51 Q114 114 114 230 L114 589 L0 589 L0 733 L388 733 L388 589 L273 589 L273 230 Q273 196 289.5 175 Q306 154 332.5 142 Q359 130 391 125.5 Q423 121 454 121 Q524 121 562 133.5 Q600 146 617.5 163.5 Q635 181 638 199 Q641 217 641 228 L641 589 L527 589 L527 733 L915 733 Z M902 720 L539 720 L539 601 L654 601 L654 228 Q654 209 648 188 Q642 167 621 149 Q600 131 560.5 119.5 Q521 108 454 108 Q358 108 309 139 Q260 170 260 230 L260 601 L375 601 L375 720 L13 720 L13 601 L127 601 L127 230 Q127 120 215 60 Q303 0 464 0 Q540 0 600 15.5 Q660 31 701.5 61 Q743 91 765 133.5 Q787 176 787 230 L787 601 L902 601 L902 720 Z " />
<glyph glyph-name="v" unicode="v" horiz-adv-x="1135" d="M508 134 L756 625 L649 625 L649 696 L964 696 L964 625 L832 625 L537 37 L468 37 L466 41 L163 625 L37 625 L37 696 L351 696 L351 625 L251 625 L508 134 Z M662 638 L776 638 L772 629 L508 106 L230 638 L338 638 L338 683 L50 683 L50 638 L171 638 L173 635 L476 50 L529 50 L824 638 L951 638 L951 683 L662 683 L662 638 Z M613 733 L1001 733 L1001 589 L855 589 L559 0 L446 0 L444 4 L141 589 L0 589 L0 733 L388 733 L388 589 L312 589 L507 215 L696 589 L613 589 L613 733 Z M988 601 L988 720 L625 720 L625 601 L716 601 L508 187 L291 601 L375 601 L375 720 L13 720 L13 601 L148 601 L150 598 L454 13 L551 13 L847 601 L988 601 Z " />
<glyph glyph-name="V" unicode="V" horiz-adv-x="1132" d="M508 134 L756 625 L649 625 L649 696 L964 696 L964 625 L832 625 L537 37 L468 37 L466 41 L163 625 L37 625 L37 696 L351 696 L351 625 L251 625 L508 134 Z M662 638 L776 638 L772 629 L508 106 L230 638 L338 638 L338 683 L50 683 L50 638 L171 638 L173 635 L476 50 L529 50 L824 638 L951 638 L951 683 L662 683 L662 638 Z M613 733 L1001 733 L1001 589 L855 589 L559 0 L446 0 L444 4 L141 589 L0 589 L0 733 L388 733 L388 589 L312 589 L507 215 L696 589 L613 589 L613 733 Z M988 601 L988 720 L625 720 L625 601 L716 601 L508 187 L291 601 L375 601 L375 720 L13 720 L13 601 L148 601 L150 598 L454 13 L551 13 L847 601 L988 601 Z " />
<glyph glyph-name="W" unicode="W" horiz-adv-x="1452" d="M915 132 L1096 625 L983 625 L983 696 L1287 696 L1287 625 L1168 625 L943 37 L879 37 L660 600 L454 37 L388 37 L386 41 L155 625 L37 625 L37 696 L341 696 L341 625 L239 625 L426 132 L607 625 L500 625 L500 695 L507 696 L828 696 L828 625 L722 625 L915 132 Z M996 638 L1114 638 L921 111 L909 111 L908 115 L703 638 L815 638 L815 683 L513 683 L513 638 L626 638 L431 111 L420 111 L221 638 L328 638 L328 683 L50 683 L50 638 L163 638 L396 49 L445 49 L654 621 L665 621 L888 49 L934 49 L1159 638 L1274 638 L1274 683 L996 683 L996 638 Z M946 733 L1324 733 L1324 588 L1193 588 L968 0 L854 0 L661 496 L480 0 L363 0 L361 4 L130 588 L0 588 L0 733 L378 733 L378 588 L292 588 L425 238 L554 588 L463 588 L463 732 L507 733 L865 733 L865 588 L776 588 L914 236 L1043 588 L946 588 L946 733 Z M1311 601 L1311 720 L959 720 L959 601 L1061 601 L914 200 L757 601 L852 601 L852 720 L507 720 L476 720 L476 601 L573 601 L425 201 L274 601 L365 601 L365 720 L13 720 L13 601 L138 601 L140 597 L371 13 L471 13 L661 532 L863 13 L960 13 L1184 601 L1311 601 Z " />
<glyph glyph-name="w" unicode="w" horiz-adv-x="1410" d="M915 132 L1096 625 L983 625 L983 696 L1287 696 L1287 625 L1168 625 L943 37 L879 37 L660 600 L454 37 L388 37 L386 41 L155 625 L37 625 L37 696 L341 696 L341 625 L239 625 L426 132 L607 625 L500 625 L500 695 L507 696 L828 696 L828 625 L722 625 L915 132 Z M996 638 L1114 638 L921 111 L909 111 L908 115 L703 638 L815 638 L815 683 L513 683 L513 638 L626 638 L431 111 L420 111 L221 638 L328 638 L328 683 L50 683 L50 638 L163 638 L396 49 L445 49 L654 621 L665 621 L888 49 L934 49 L1159 638 L1274 638 L1274 683 L996 683 L996 638 Z M946 733 L1324 733 L1324 588 L1193 588 L968 0 L854 0 L661 496 L480 0 L363 0 L361 4 L130 588 L0 588 L0 733 L378 733 L378 588 L292 588 L425 238 L554 588 L463 588 L463 732 L507 733 L865 733 L865 588 L776 588 L914 236 L1043 588 L946 588 L946 733 Z M1311 601 L1311 720 L959 720 L959 601 L1061 601 L914 200 L757 601 L852 601 L852 720 L507 720 L476 720 L476 601 L573 601 L425 201 L274 601 L365 601 L365 720 L13 720 L13 601 L138 601 L140 597 L371 13 L471 13 L661 532 L863 13 L960 13 L1184 601 L1311 601 Z " />
<glyph glyph-name="x" unicode="x" horiz-adv-x="1028" d="M530 625 L530 696 L852 696 L852 625 L709 625 L492 378 L731 108 L852 108 L852 37 L530 37 L530 44 L530 108 L630 108 L445 318 L262 108 L359 108 L359 37 L37 37 L37 108 L171 108 L400 369 L171 625 L37 625 L37 696 L359 696 L359 625 L273 625 L445 428 L621 625 L530 625 Z M543 683 L543 638 L649 638 L445 409 L244 638 L347 638 L347 683 L50 683 L50 638 L177 638 L179 636 L417 369 L177 95 L50 95 L50 50 L347 50 L347 95 L234 95 L445 338 L658 95 L543 95 L543 50 L840 50 L840 95 L726 95 L724 97 L475 377 L704 638 L840 638 L840 683 L543 683 Z M889 589 L726 589 L542 378 L748 145 L889 145 L889 0 L494 0 L493 145 L548 145 L446 262 L343 145 L396 145 L396 0 L0 0 L0 145 L155 145 L351 369 L155 589 L0 589 L0 733 L396 733 L396 589 L354 589 L446 484 L539 589 L493 589 L493 733 L889 733 L889 589 Z M524 378 L720 601 L877 601 L877 720 L506 720 L506 601 L567 601 L446 465 L326 601 L384 601 L384 720 L13 720 L13 601 L160 601 L368 369 L160 132 L13 132 L13 13 L384 13 L384 132 L315 132 L446 282 L577 132 L506 132 L506 13 L877 13 L877 132 L742 132 L740 134 L524 378 Z " />
<glyph glyph-name="X" unicode="X" horiz-adv-x="1025" d="M530 625 L530 696 L852 696 L852 625 L709 625 L492 378 L731 108 L852 108 L852 37 L530 37 L530 44 L530 108 L630 108 L445 318 L262 108 L359 108 L359 37 L37 37 L37 108 L171 108 L400 369 L171 625 L37 625 L37 696 L359 696 L359 625 L273 625 L445 428 L621 625 L530 625 Z M543 683 L543 638 L649 638 L445 409 L244 638 L347 638 L347 683 L50 683 L50 638 L177 638 L179 636 L417 369 L177 95 L50 95 L50 50 L347 50 L347 95 L234 95 L445 338 L658 95 L543 95 L543 50 L840 50 L840 95 L726 95 L724 97 L475 377 L704 638 L840 638 L840 683 L543 683 Z M889 589 L726 589 L542 378 L748 145 L889 145 L889 0 L494 0 L493 145 L548 145 L446 262 L343 145 L396 145 L396 0 L0 0 L0 145 L155 145 L351 369 L155 589 L0 589 L0 733 L396 733 L396 589 L354 589 L446 484 L539 589 L493 589 L493 733 L889 733 L889 589 Z M524 378 L720 601 L877 601 L877 720 L506 720 L506 601 L567 601 L446 465 L326 601 L384 601 L384 720 L13 720 L13 601 L160 601 L368 369 L160 132 L13 132 L13 13 L384 13 L384 132 L315 132 L446 282 L577 132 L506 132 L506 13 L877 13 L877 132 L742 132 L740 134 L524 378 Z " />
<glyph glyph-name="y" unicode="y" horiz-adv-x="1028" d="M456 391 L657 625 L560 625 L560 696 L874 696 L874 625 L744 625 L492 333 L492 108 L605 108 L605 37 L291 37 L291 108 L407 108 L407 333 L156 625 L37 625 L37 696 L351 696 L351 690 L351 625 L256 625 L456 391 Z M573 638 L685 638 L456 372 L229 638 L338 638 L338 683 L50 683 L50 638 L162 638 L420 337 L420 95 L304 95 L304 50 L593 50 L593 95 L479 95 L479 337 L738 638 L862 638 L862 683 L573 683 L573 638 Z M523 733 L911 733 L911 589 L761 589 L529 319 L529 145 L642 145 L642 0 L254 0 L254 145 L370 145 L370 319 L139 589 L0 589 L0 733 L387 733 L388 589 L336 589 L456 448 L577 589 L523 589 L523 733 Z M899 601 L899 720 L536 720 L536 601 L605 601 L456 428 L309 601 L375 601 L375 720 L13 720 L13 601 L145 601 L383 324 L383 132 L267 132 L267 13 L629 13 L629 132 L516 132 L516 324 L755 601 L899 601 Z " />
<glyph glyph-name="Y" unicode="Y" horiz-adv-x="1054" d="M456 391 L657 625 L560 625 L560 696 L874 696 L874 625 L744 625 L492 333 L492 108 L605 108 L605 37 L291 37 L291 108 L407 108 L407 333 L156 625 L37 625 L37 696 L351 696 L351 690 L351 625 L256 625 L456 391 Z M573 638 L685 638 L456 372 L229 638 L338 638 L338 683 L50 683 L50 638 L162 638 L420 337 L420 95 L304 95 L304 50 L593 50 L593 95 L479 95 L479 337 L738 638 L862 638 L862 683 L573 683 L573 638 Z M523 733 L911 733 L911 589 L761 589 L529 319 L529 145 L642 145 L642 0 L254 0 L254 145 L370 145 L370 319 L139 589 L0 589 L0 733 L387 733 L388 589 L336 589 L456 448 L577 589 L523 589 L523 733 Z M899 601 L899 720 L536 720 L536 601 L605 601 L456 428 L309 601 L375 601 L375 720 L13 720 L13 601 L145 601 L383 324 L383 132 L267 132 L267 13 L629 13 L629 132 L516 132 L516 324 L755 601 L899 601 Z " />
<glyph glyph-name="z" unicode="z" horiz-adv-x="882" d="M687 627 L148 108 L630 108 L630 210 L703 210 L703 37 L37 37 L37 104 L578 625 L138 625 L138 523 L66 523 L66 696 L689 696 L689 629 L687 627 Z M642 95 L116 95 L676 635 L676 683 L79 683 L79 535 L126 535 L126 638 L610 638 L50 99 L50 50 L690 50 L690 197 L642 197 L642 95 Z M593 247 L740 247 L740 1 L0 0 L0 120 L487 589 L175 589 L175 486 L29 486 L29 733 L726 733 L726 613 L724 612 L240 145 L593 145 L593 247 Z M727 13 L727 234 L605 234 L605 132 L208 132 L713 619 L713 720 L42 720 L42 498 L162 498 L162 601 L519 601 L13 115 L13 13 L727 13 Z " />
<glyph glyph-name="Z" unicode="Z" horiz-adv-x="880" d="M687 627 L148 108 L630 108 L630 210 L703 210 L703 37 L37 37 L37 104 L578 625 L138 625 L138 523 L66 523 L66 696 L689 696 L689 629 L687 627 Z M642 95 L116 95 L676 635 L676 683 L79 683 L79 535 L126 535 L126 638 L610 638 L50 99 L50 50 L690 50 L690 197 L642 197 L642 95 Z M593 247 L740 247 L740 1 L0 0 L0 120 L487 589 L175 589 L175 486 L29 486 L29 733 L726 733 L726 613 L724 612 L240 145 L593 145 L593 247 Z M727 13 L727 234 L605 234 L605 132 L208 132 L713 619 L713 720 L42 720 L42 498 L162 498 L162 601 L519 601 L13 115 L13 13 L727 13 Z " />
<glyph glyph-name="one" unicode="1" horiz-adv-x="505" d="M236 697 L236 108 L351 108 L351 37 L37 37 L37 108 L153 108 L153 626 L37 626 L37 697 L236 697 Z M338 95 L223 95 L223 684 L50 684 L50 639 L166 639 L166 95 L50 95 L50 50 L338 50 L338 95 Z M273 145 L388 145 L388 0 L0 0 L0 145 L116 145 L116 589 L0 589 L0 733 L273 733 L273 145 Z M375 13 L375 132 L260 132 L260 721 L13 721 L13 602 L129 602 L129 132 L13 132 L13 13 L375 13 Z " />
<glyph glyph-name="two" unicode="2" horiz-adv-x="729" d="M235 254 Q205 232 184.5 209.5 Q164 187 150.5 167.5 Q137 148 130.5 132.5 Q124 117 121 108 L496 108 L496 247 L564 247 L564 37 L38 37 L38 43 Q35 72 44.5 106 Q54 140 73.5 173.5 Q93 207 122 239 Q151 271 186 297 Q224 326 261 345 Q298 364 332 381 Q359 394 384 406.5 Q409 419 429 435 Q482 474 482 534 Q482 561 470 583.5 Q458 606 436.5 622 Q415 638 384.5 647 Q354 656 318 656 Q227 656 179.5 615 Q132 574 130 494 L130 478 L54 478 L54 697 L130 697 L130 653 Q201 709 317 709 Q372 709 417.5 696.5 Q463 684 494.5 660.5 Q526 637 543.5 604.5 Q561 572 561 532 Q561 449 491 398 Q471 383 444 369 Q417 355 387 341 Q351 323 311.5 302.5 Q272 282 235 254 Z M104 95 L106 103 Q113 135 142.5 179.5 Q172 224 227 265 Q265 293 305 314 Q345 335 382 352 Q411 366 437 380 Q463 394 483 408 Q516 433 532 463 Q548 493 548 532 Q548 569 531.5 599.5 Q515 630 485 651.5 Q455 673 412 684.5 Q369 696 317 696 Q197 696 128 635 L118 625 L118 684 L67 684 L67 490 L118 490 L118 495 Q119 580 170.5 624.5 Q222 669 318 669 Q357 669 389.5 659 Q422 649 445.5 631 Q469 613 482 588.5 Q495 564 495 534 Q495 502 480 473.5 Q465 445 437 424 Q416 408 390.5 395.5 Q365 383 337 369 Q304 353 267.5 334 Q231 315 193 287 Q160 263 133 233 Q106 203 87 171.5 Q68 140 58 108.5 Q48 77 50 50 L552 50 L552 234 L508 234 L508 95 L104 95 Z M601 284 L601 0 L5 0 L1 39 Q-3 73 7 111.5 Q17 150 39 188 Q61 226 92.5 262 Q124 298 164 327 Q204 356 242.5 376.5 Q281 397 316 414 Q343 427 366 438.5 Q389 450 407 464 Q421 474 433 491 Q445 508 445 534 Q445 572 410 595.5 Q375 619 318 619 Q242 619 205.5 588.5 Q169 558 167 494 L167 441 L17 441 L17 734 L167 734 L167 718 Q235 746 317 746 Q381 746 432.5 731 Q484 716 521 688 Q558 660 578 620.5 Q598 581 598 532 Q598 431 513 368 Q490 351 462 336.5 Q434 322 403 308 Q368 291 330 271 Q292 251 257 225 Q209 189 180 145 L459 145 L459 284 L601 284 Z M589 271 L472 271 L472 132 L157 132 L163 142 Q194 195 249 235 Q284 261 323 281.5 Q362 302 397 319 Q428 334 455.5 348 Q483 362 505 378 Q585 437 585 532 Q585 578 566 615 Q547 652 512 678 Q477 704 427.5 718.5 Q378 733 317 733 Q273 733 234.5 725.5 Q196 718 164 702 L154 698 L154 721 L30 721 L30 453 L154 453 L154 494 Q157 632 318 632 Q381 632 419.5 605 Q458 578 458 534 Q458 504 444 484.5 Q430 465 415 454 Q395 440 372 428 Q349 416 322 402 Q287 385 249 365.5 Q211 346 171 317 Q133 288 102.5 254 Q72 220 51 183.5 Q30 147 20.5 110.5 Q11 74 14 41 L16 13 L589 13 L589 271 Z " />
<glyph glyph-name="three" unicode="3" horiz-adv-x="752" d="M343 407 Q418 403 478 382 Q503 373 527.5 359.5 Q552 346 571 326.5 Q590 307 601.5 280.5 Q613 254 613 220 Q613 178 592 142 Q571 106 533 80 Q495 54 443 39.5 Q391 25 330 25 Q268 25 216 40.5 Q164 56 126 84.5 Q88 113 65.5 153 Q43 193 40 241 L39 248 L112 248 L113 242 Q119 197 140.5 165.5 Q162 134 192.5 114.5 Q223 95 259 86.5 Q295 78 331 78 Q391 78 430.5 93.5 Q470 109 493 131 Q516 153 525 178 Q534 203 534 221 Q534 247 524 266.5 Q514 286 498 300 Q482 314 461.5 323.5 Q441 333 420 339 Q370 352 307 353 L253 353 L253 420 L256 422 L485 626 L158 626 L158 487 L89 487 L89 697 L591 697 L591 630 L343 407 Z M600 220 Q600 253 588 277.5 Q576 302 557 320.5 Q538 339 513 352 Q488 365 463 373 Q402 392 326 394 L310 394 L578 635 L578 684 L102 684 L102 500 L145 500 L145 639 L519 639 L266 415 L266 366 L307 366 Q374 365 427 350 Q449 344 471 333.5 Q493 323 509.5 307.5 Q526 292 536.5 270.5 Q547 249 547 221 Q547 143 472 100 Q443 83 406 74.5 Q369 66 331 66 Q294 66 256 75 Q218 84 186 104 Q154 124 131 156 Q108 188 101 235 L53 235 Q57 191 79 154.5 Q101 118 137 92 Q173 66 222 52 Q271 38 330 38 Q388 38 437.5 51.5 Q487 65 523 89.5 Q559 114 579.5 147.5 Q600 181 600 220 Z M581 369 Q606 345 623 315 Q637 289 646 254 Q655 219 645 175 Q635 133 607 98.5 Q579 64 538 39.5 Q497 15 443.5 1.5 Q390 -12 329 -12 Q260 -12 202 6.5 Q144 25 101 58 Q58 91 32 137 Q6 183 3 238 L0 284 L144 284 L149 247 Q155 201 179 175 Q203 149 232 135.5 Q261 122 289 118.5 Q317 115 331 115 Q352 115 381 119.5 Q410 124 436 136 Q462 148 480 168.5 Q498 189 498 221 Q498 239 489.5 253 Q481 267 467.5 277.5 Q454 288 437 295 Q420 302 402 306 Q360 316 307 316 L217 316 L217 437 L388 589 L195 589 L195 450 L52 450 L52 734 L628 734 L628 613 L429 435 Q495 422 531.5 401 Q568 380 581 369 Z M633 184 Q641 223 632.5 255.5 Q624 288 610 311 Q594 338 572 359 Q567 363 555 372 Q543 381 523.5 390.5 Q504 400 476.5 409 Q449 418 414 424 L401 427 L615 619 L615 721 L65 721 L65 463 L182 463 L182 602 L422 602 L229 431 L229 329 L307 329 Q363 328 408 317 Q427 312 445.5 304.5 Q464 297 478 285.5 Q492 274 501 258.5 Q510 243 510 222 Q510 186 490.5 163 Q471 140 443.5 126.5 Q416 113 385 108 Q354 103 331 103 Q316 103 286 106.5 Q256 110 225.5 124.5 Q195 139 169.5 167 Q144 195 137 245 L133 272 L14 272 L16 239 Q19 186 43.5 142.5 Q68 99 109.5 67.5 Q151 36 207 18.5 Q263 1 329 1 Q389 1 441 14.5 Q493 28 533 52 Q573 76 599 109.5 Q625 143 633 184 Z " />
<glyph glyph-name="four" unicode="4" horiz-adv-x="729" d="M576 216 L422 216 L422 108 L543 108 L543 38 L229 38 L229 108 L351 108 L351 216 L37 216 L37 280 L38 282 L355 696 L422 696 L422 284 L576 284 L576 216 Z M530 95 L409 95 L409 229 L563 229 L563 271 L409 271 L409 683 L361 683 L50 276 L50 229 L364 229 L364 95 L242 95 L242 50 L530 50 L530 95 Z M364 271 L99 271 L364 613 L364 271 Z M351 284 L351 575 L125 284 L351 284 Z M613 179 L459 179 L459 145 L580 145 L580 1 L192 1 L192 145 L315 145 L315 179 L0 179 L0 292 L1 294 L336 733 L459 733 L459 321 L613 321 L613 179 Z M567 132 L446 132 L446 192 L600 192 L600 308 L446 308 L446 720 L343 720 L13 288 L13 192 L327 192 L327 132 L205 132 L205 13 L567 13 L567 132 Z M327 308 L174 308 L327 505 L327 308 Z M315 321 L315 468 L200 321 L315 321 Z " />
<glyph glyph-name="five" unicode="5" horiz-adv-x="721" d="M395 492 Q443 482 482.5 460.5 Q522 439 549.5 407.5 Q577 376 592.5 336 Q608 296 608 249 Q608 185 581.5 136 Q555 87 512 54 Q469 21 414 4.5 Q359 -12 302 -12 Q242 -12 190 5 Q138 22 99 52.5 Q60 83 35.5 125.5 Q11 168 5 219 L0 266 L144 266 L151 231 Q172 115 301 115 Q331 115 359.5 123 Q388 131 410.5 147.5 Q433 164 447 189 Q461 214 461 249 Q461 306 420.5 339 Q380 372 313 372 Q266 372 231.5 356.5 Q197 341 164 306 L142 282 L38 332 L83 734 L559 734 L559 509 L418 509 L418 589 L211 589 L198 478 Q237 492 268 495.5 Q299 499 312 499 L320 499 L326 499 Q340 499 353 498 Q366 497 379 495 L395 492 Z M302 1 Q357 1 409.5 17 Q462 33 503 64 Q544 95 569.5 141.5 Q595 188 595 249 Q595 293 580.5 331 Q566 369 539.5 399 Q513 429 475.5 449.5 Q438 470 393 479 L377 482 Q354 486 326 486 L321 486 L320 486 Q319 486 309 486 Q299 486 281.5 484 Q264 482 241 477.5 Q218 473 192 463 L183 459 L199 602 L430 602 L430 522 L546 522 L546 721 L94 721 L52 340 L139 298 L154 314 Q189 352 226 368.5 Q263 385 313 385 Q386 385 429.5 348.5 Q473 312 473 249 Q473 211 458 183.5 Q443 156 419 138 Q395 120 364 111 Q333 102 301 102 Q161 102 138 228 L134 254 L14 254 L18 220 Q23 172 46.5 131.5 Q70 91 107.5 62 Q145 33 194.5 17 Q244 1 302 1 Z M313 462 Q385 459 442 436 Q466 426 489 411 Q512 396 530.5 373.5 Q549 351 560 320 Q571 289 571 249 Q571 136 478 75 Q442 51 396 38 Q350 25 302 25 Q248 25 202.5 39 Q157 53 123 79 Q89 105 67.5 141.5 Q46 178 42 222 L41 230 L114 230 L114 224 Q127 153 175 115.5 Q223 78 301 78 Q336 78 371 88.5 Q406 99 434 120 Q462 141 479.5 173 Q497 205 497 249 Q497 285 483.5 314.5 Q470 344 446 365 Q422 386 388 397.5 Q354 409 313 409 Q258 409 216.5 391 Q175 373 137 331 L134 327 L77 354 L116 697 L522 697 L522 546 L454 546 L454 626 L178 626 L153 418 Q179 433 204.5 442 Q230 451 251.5 455.5 Q273 460 288.5 461 Q304 462 312 462 L313 462 Z M558 249 Q558 287 547.5 316 Q537 345 519.5 366 Q502 387 480 401.5 Q458 416 435 425 Q381 446 313 449 L312 449 Q304 449 288 448 Q272 447 250 442 Q228 437 202 427 Q176 417 149 400 L138 392 L166 639 L467 639 L467 559 L509 559 L509 684 L127 684 L91 362 L131 343 Q170 384 213.5 403 Q257 422 313 422 Q357 422 393.5 409.5 Q430 397 456 374 Q482 351 496 319.5 Q510 288 510 249 Q510 164 447 113 Q418 90 380.5 77.5 Q343 65 301 65 Q247 65 211 80.5 Q175 96 152.5 119 Q130 142 118.5 168.5 Q107 195 103 217 L56 217 Q62 177 82 144 Q102 111 134.5 87.5 Q167 64 209.5 51 Q252 38 302 38 Q348 38 392 50.5 Q436 63 471 86 Q558 144 558 249 Z " />
<glyph glyph-name="six" unicode="6" horiz-adv-x="687" d="M307 460 Q356 460 398 444 Q440 428 470 400 Q500 372 517 333 Q534 294 534 248 Q534 199 516.5 158 Q499 117 467 87.5 Q435 58 390.5 41.5 Q346 25 292 25 Q166 25 101.5 105 Q37 185 37 340 Q37 368 40 406 Q43 444 52.5 485 Q62 526 79.5 566 Q97 606 126 638 Q155 670 197.5 689.5 Q240 709 299 709 Q391 709 448 666 L448 696 L519 696 L519 540 L447 540 L446 545 Q429 656 306 656 Q212 656 164.5 590 Q117 524 109 384 Q151 421 202 440.5 Q253 460 307 460 Z M292 37 Q343 37 385.5 52 Q428 67 458 95 Q488 123 504.5 162 Q521 201 521 248 Q521 292 505.5 329 Q490 366 461.5 392.5 Q433 419 393.5 433.5 Q354 448 307 448 Q253 448 201 426.5 Q149 405 109 367 L105 363 L95 370 L96 373 Q98 421 106 473 Q114 525 136 568.5 Q158 612 198.5 640.5 Q239 669 306 669 Q370 669 408.5 639.5 Q447 610 458 553 L506 553 L506 683 L461 683 L461 638 L451 647 Q395 697 299 697 Q163 697 98 577 Q83 549 73.5 517.5 Q64 486 59 455 Q54 424 52 394.5 Q50 365 50 340 Q50 37 292 37 Z M299 420 Q344 420 377 405 Q410 390 431.5 365.5 Q453 341 463.5 310 Q474 279 474 247 Q474 162 425.5 113.5 Q377 65 292 65 Q196 65 146 131 Q96 197 96 322 L96 325 L97 327 Q139 370 193.5 395 Q248 420 299 420 Z M292 78 Q371 78 416 123.5 Q461 169 461 247 Q461 275 452.5 303.5 Q444 332 425 355 Q406 378 375 392.5 Q344 407 299 407 Q251 407 200 384 Q149 361 108 320 Q108 245 125.5 198 Q143 151 169.5 124 Q196 97 228.5 87.5 Q261 78 292 78 Z M307 497 Q364 497 412.5 478.5 Q461 460 496.5 427 Q532 394 551.5 348 Q571 302 571 248 Q571 191 550.5 143 Q530 95 493 60.5 Q456 26 404.5 7 Q353 -12 292 -12 Q124 -12 50 115 Q35 142 25 172 Q15 202 9.5 231.5 Q4 261 2 288.5 Q0 316 0 340 Q0 437 20 512.5 Q40 588 78 640 Q116 692 172 719 Q228 746 299 746 Q363 746 411 727 L411 733 L556 733 L556 503 L415 503 L409 540 Q397 619 306 619 Q283 619 259.5 614 Q236 609 215.5 592 Q195 575 179 543.5 Q163 512 154 460 Q228 497 307 497 Z M292 1 Q351 1 400 19 Q449 37 484 69.5 Q519 102 538.5 147.5 Q558 193 558 248 Q558 299 539.5 342.5 Q521 386 487.5 417.5 Q454 449 408 467 Q362 485 307 485 Q224 485 149 442 L137 436 L139 449 Q148 510 166 546 Q184 582 207 601 Q230 620 256 626 Q282 632 306 632 Q408 632 422 542 L426 516 L543 516 L543 720 L424 720 L424 708 L415 712 Q364 733 299 733 Q231 733 177.5 706.5 Q124 680 87.5 630 Q51 580 32 507 Q13 434 13 340 Q13 292 22.5 233.5 Q32 175 61.5 123 Q91 71 146 36 Q201 1 292 1 Z M299 383 Q337 383 363.5 371 Q390 359 406.5 339.5 Q423 320 430 296 Q437 272 437 247 Q437 178 399 140 Q361 102 292 102 Q138 102 133 307 L133 310 L135 312 Q171 345 214 364 Q257 383 299 383 Z M292 115 Q355 115 390 149.5 Q425 184 425 247 Q425 281 414 304.5 Q403 328 385 342.5 Q367 357 344.5 363.5 Q322 370 299 370 Q261 370 220.5 353 Q180 336 146 304 Q152 115 292 115 Z " />
<glyph glyph-name="seven" unicode="7" horiz-adv-x="723" d="M109 625 L109 540 L37 540 L37 696 L560 696 L560 630 L559 629 L320 108 L435 108 L435 37 L121 37 L121 108 L242 108 L479 625 L109 625 Z M96 553 L96 638 L499 638 L250 95 L133 95 L133 50 L422 50 L422 95 L300 95 L547 633 L547 683 L50 683 L50 553 L96 553 Z M0 733 L597 733 L597 624 L596 622 L377 145 L472 145 L472 0 L84 0 L84 145 L218 145 L421 588 L146 588 L146 503 L0 503 L0 733 Z M584 626 L584 720 L13 720 L13 516 L133 516 L133 601 L441 601 L226 132 L96 132 L96 13 L459 13 L459 132 L357 132 L584 626 Z " />
<glyph glyph-name="eight" unicode="8" horiz-adv-x="757" d="M511 528 Q511 468 460 433 Q409 398 320 398 Q231 398 180 433 Q129 468 129 528 Q129 558 143 582.5 Q157 607 182 624.5 Q207 642 242.5 652 Q278 662 320 662 Q325 662 341 661 Q357 660 378.5 656 Q400 652 423 644 Q446 636 465.5 621 Q485 606 498 583.5 Q511 561 511 528 Z M141 528 Q141 474 189 442.5 Q237 411 320 411 Q403 411 450.5 442.5 Q498 474 498 528 Q498 557 486 578 Q474 599 456 612.5 Q438 626 416 633.5 Q394 641 374.5 644.5 Q355 648 340 649 Q325 650 320 650 Q281 650 248 641 Q215 632 191 616 Q167 600 154 577.5 Q141 555 141 528 Z M458 384 Q527 364 565 321.5 Q603 279 603 221 Q603 178 582 141.5 Q561 105 523 79 Q485 53 433 38 Q381 23 320 23 Q257 23 205 37.5 Q153 52 115.5 78.5 Q78 105 57.5 141 Q37 177 37 221 Q37 278 74.5 321 Q112 364 180 384 Q126 401 95 439.5 Q64 478 64 529 Q64 569 83 602 Q102 635 135.5 658.5 Q169 682 216 695 Q263 708 320 708 Q375 708 422 694.5 Q469 681 503.5 657.5 Q538 634 557 601 Q576 568 576 529 Q576 478 544 439.5 Q512 401 458 384 Z M320 36 Q379 36 428.5 50 Q478 64 514 88.5 Q550 113 570 147 Q590 181 590 221 Q590 279 548 320 Q506 361 431 377 L401 384 L431 390 Q492 403 527.5 440 Q563 477 563 529 Q563 565 545 596 Q527 627 494.5 649 Q462 671 417.5 683.5 Q373 696 320 696 Q266 696 221.5 683.5 Q177 671 145 649 Q113 627 95 596.5 Q77 566 77 529 Q77 478 111.5 440.5 Q146 403 207 390 L235 384 L207 378 Q132 361 91 319.5 Q50 278 50 221 Q50 180 70 146 Q90 112 125.5 87.5 Q161 63 210.5 49.5 Q260 36 320 36 Z M320 367 Q379 367 420 354 Q461 341 486.5 320.5 Q512 300 523 274.5 Q534 249 534 224 Q534 189 518.5 160.5 Q503 132 475 112 Q447 92 407.5 81 Q368 70 320 70 Q271 70 231.5 81 Q192 92 164 112 Q136 132 120.5 160.5 Q105 189 105 224 Q105 290 163 328.5 Q221 367 320 367 Z M320 82 Q365 82 402.5 92 Q440 102 466 121 Q492 140 506.5 166 Q521 192 521 224 Q521 246 510.5 269.5 Q500 293 476.5 311.5 Q453 330 414.5 342 Q376 354 320 354 Q226 354 172 319 Q118 284 118 224 Q118 159 173 120.5 Q228 82 320 82 Z M474 528 Q474 496 455 477.5 Q436 459 410.5 449.5 Q385 440 359 437.5 Q333 435 320 435 Q306 435 280.5 437.5 Q255 440 229.5 449.5 Q204 459 185 477.5 Q166 496 166 528 Q166 572 208.5 598.5 Q251 625 320 625 Q326 625 351 623 Q376 621 403 612 Q430 603 452 583.5 Q474 564 474 528 Z M320 448 Q332 448 356 450 Q380 452 403 460 Q426 468 443.5 484 Q461 500 461 528 Q461 559 441 576 Q421 593 396 601 Q371 609 348.5 611 Q326 613 320 613 Q257 613 217.5 589.5 Q178 566 178 528 Q178 500 195.5 484 Q213 468 236.5 460 Q260 452 284 450 Q308 448 320 448 Z M543 387 Q590 358 615 315.5 Q640 273 640 221 Q640 170 616 127 Q592 84 549.5 53 Q507 22 448 4.5 Q389 -13 320 -13 Q249 -13 190.5 4 Q132 21 89.5 52 Q47 83 23.5 126 Q0 169 0 221 Q0 272 24.5 315 Q49 358 97 387 Q63 414 45 450.5 Q27 487 27 529 Q27 577 48.5 616.5 Q70 656 109 684.5 Q148 713 201.5 729 Q255 745 320 745 Q384 745 437.5 729 Q491 713 530 684.5 Q569 656 591 616 Q613 576 613 529 Q613 487 595 450.5 Q577 414 543 387 Z M320 -1 Q387 -1 443 15.5 Q499 32 540 61.5 Q581 91 604 132 Q627 173 627 221 Q627 272 601.5 313 Q576 354 528 381 L519 386 L528 392 Q563 417 581.5 452 Q600 487 600 529 Q600 573 579 610.5 Q558 648 520.5 675 Q483 702 432 717.5 Q381 733 320 733 Q258 733 206.5 718 Q155 703 118 676 Q81 649 60.5 611.5 Q40 574 40 529 Q40 487 58.5 452 Q77 417 112 392 L120 386 L111 381 Q63 354 38 313 Q13 272 13 221 Q13 172 35.5 131 Q58 90 98.5 61 Q139 32 195.5 15.5 Q252 -1 320 -1 Z M320 330 Q369 330 403 320.5 Q437 311 458 295.5 Q479 280 488 261 Q497 242 497 224 Q497 170 448.5 138 Q400 106 320 106 Q288 106 256 112 Q224 118 198.5 132 Q173 146 157.5 168.5 Q142 191 142 224 Q142 253 157.5 273.5 Q173 294 198.5 306.5 Q224 319 256 324.5 Q288 330 320 330 Z M320 119 Q394 119 439 147.5 Q484 176 484 224 Q484 240 475.5 256.5 Q467 273 447.5 286.5 Q428 300 396.5 308.5 Q365 317 320 317 Q290 317 260.5 312 Q231 307 207.5 296 Q184 285 169.5 267.5 Q155 250 155 224 Q155 195 169.5 175 Q184 155 207.5 142.5 Q231 130 260.5 124.5 Q290 119 320 119 Z " />
<glyph glyph-name="nine" unicode="9" horiz-adv-x="684" d="M280 708 Q406 708 470.5 628 Q535 548 535 393 Q535 365 532 327 Q529 289 519.5 248 Q510 207 492.5 167 Q475 127 446 95 Q417 63 374.5 43.5 Q332 24 273 24 Q181 24 124 67 L124 37 L53 37 L53 193 L125 193 L126 188 Q143 77 266 77 Q360 77 407.5 143 Q455 209 463 349 Q421 312 370 292.5 Q319 273 265 273 Q215 273 173.5 289 Q132 305 102 333 Q72 361 55 400 Q38 439 38 485 Q38 534 55.5 575 Q73 616 105 645.5 Q137 675 181.5 691.5 Q226 708 280 708 Z M273 36 Q409 36 474 156 Q489 184 498.5 215.5 Q508 247 513 278 Q518 309 520 338.5 Q522 368 522 393 Q522 696 280 696 Q229 696 186.5 680.5 Q144 665 114 637.5 Q84 610 67.5 571 Q51 532 51 485 Q51 441 66.5 404 Q82 367 110.5 340.5 Q139 314 178.5 299.5 Q218 285 265 285 Q319 285 371 306.5 Q423 328 463 366 L467 370 L477 363 L476 359 Q474 312 466 260 Q458 208 436 164.5 Q414 121 373.5 92.5 Q333 64 266 64 Q202 64 163.5 93.5 Q125 123 114 180 L66 180 L66 50 L111 50 L111 95 L121 86 Q177 36 273 36 Z M280 668 Q376 668 426 602 Q476 536 476 411 L476 408 L475 406 Q433 363 378.5 338 Q324 313 273 313 Q228 313 195 328 Q162 343 140.5 367.5 Q119 392 108.5 423 Q98 454 98 486 Q98 571 146.5 619.5 Q195 668 280 668 Z M273 326 Q321 326 372 349 Q423 372 464 413 Q464 488 446.5 535 Q429 582 402.5 609 Q376 636 343.5 645.5 Q311 655 280 655 Q201 655 156 609.5 Q111 564 111 486 Q111 458 119.5 429.5 Q128 401 147 378 Q166 355 197 340.5 Q228 326 273 326 Z M522 618 Q537 591 547 561 Q557 531 562.5 501.5 Q568 472 570 444.5 Q572 417 572 393 Q572 296 552 220.5 Q532 145 493.5 93 Q455 41 399.5 14 Q344 -13 273 -13 Q209 -13 161 6 L161 0 L16 0 L16 230 L157 230 L163 193 Q175 114 266 114 Q289 114 312.5 119 Q336 124 356.5 141 Q377 158 393 189 Q409 220 418 273 Q344 236 265 236 Q208 236 159.5 254.5 Q111 273 75.5 306 Q40 339 20.5 385 Q1 431 1 485 Q1 542 21.5 590 Q42 638 79 672.5 Q116 707 167 726 Q218 745 280 745 Q448 745 522 618 Z M273 -1 Q341 -1 394.5 25.5 Q448 52 484.5 102.5 Q521 153 540 226 Q559 299 559 393 Q559 441 549.5 499.5 Q540 558 510.5 610 Q481 662 426 697 Q371 732 280 732 Q221 732 172 714 Q123 696 88 663.5 Q53 631 33.5 585.5 Q14 540 14 485 Q14 434 32.5 390.5 Q51 347 84.5 315.5 Q118 284 164 266 Q210 248 265 248 Q348 248 423 291 L435 297 L433 284 Q424 223 406 187 Q388 151 365 132 Q342 113 316 107 Q290 101 266 101 Q163 101 150 191 L146 217 L29 217 L29 13 L148 13 L148 25 L157 21 Q210 -1 273 -1 Z M280 631 Q434 631 439 426 L439 423 L437 421 Q401 388 358 369 Q315 350 273 350 Q235 350 208.5 362 Q182 374 165.5 393.5 Q149 413 142 437 Q135 461 135 486 Q135 555 173 593 Q211 631 280 631 Z M273 363 Q311 363 351.5 380 Q392 397 426 429 Q420 618 280 618 Q217 618 182 583.5 Q147 549 147 486 Q147 452 158 428.5 Q169 405 187 390.5 Q205 376 227.5 369.5 Q250 363 273 363 Z " />
<glyph glyph-name="zero" unicode="0" horiz-adv-x="812" d="M351 656 Q408 656 455.5 634.5 Q503 613 537.5 574 Q572 535 591.5 482 Q611 429 611 366 Q611 303 591.5 250 Q572 197 537.5 158.5 Q503 120 455.5 98.5 Q408 77 351 77 Q295 77 247 98.5 Q199 120 164.5 158.5 Q130 197 110.5 250 Q91 303 91 366 Q91 429 110.5 482 Q130 535 164.5 574 Q199 613 247 634.5 Q295 656 351 656 Z M351 90 Q405 90 450.5 110.5 Q496 131 528.5 168 Q561 205 579.5 255.5 Q598 306 598 366 Q598 426 579.5 477 Q561 528 528.5 565 Q496 602 450.5 622.5 Q405 643 351 643 Q297 643 252 622.5 Q207 602 174 565 Q141 528 122.5 477 Q104 426 104 366 Q104 306 122.5 255.5 Q141 205 174 168 Q207 131 252 110.5 Q297 90 351 90 Z M351 708 Q420 708 477.5 682.5 Q535 657 577 611.5 Q619 566 642.5 503.5 Q666 441 666 366 Q666 293 642.5 230.5 Q619 168 577.5 122 Q536 76 480 50 Q424 24 358 24 Q287 24 228 49 Q169 74 126.5 119.5 Q84 165 60.5 228 Q37 291 37 366 Q37 441 60.5 503.5 Q84 566 126 611.5 Q168 657 225.5 682.5 Q283 708 351 708 Z M358 37 Q421 37 475 62 Q529 87 568.5 131.5 Q608 176 630.5 236 Q653 296 653 366 Q653 438 630.5 498.5 Q608 559 567.5 603 Q527 647 472 671.5 Q417 696 351 696 Q286 696 230.5 671.5 Q175 647 135 603 Q95 559 72.5 498.5 Q50 438 50 366 Q50 294 72.5 233.5 Q95 173 135.5 129.5 Q176 86 233 61.5 Q290 37 358 37 Z M351 619 Q400 619 441 600 Q482 581 511.5 547.5 Q541 514 557.5 467.5 Q574 421 574 366 Q574 311 557.5 265 Q541 219 511.5 185.5 Q482 152 441 133 Q400 114 351 114 Q303 114 262 133 Q221 152 191 185.5 Q161 219 144.5 265 Q128 311 128 366 Q128 421 144.5 467.5 Q161 514 191 547.5 Q221 581 262 600 Q303 619 351 619 Z M351 127 Q397 127 435.5 145 Q474 163 502 195 Q530 227 546 270.5 Q562 314 562 366 Q562 418 546 462 Q530 506 502 538 Q474 570 435.5 588 Q397 606 351 606 Q306 606 267.5 588 Q229 570 201 538 Q173 506 157 462 Q141 418 141 366 Q141 314 157 270.5 Q173 227 201 195 Q229 163 267.5 145 Q306 127 351 127 Z M351 745 Q427 745 492 716.5 Q557 688 603.5 638 Q650 588 676.5 518 Q703 448 703 366 Q703 285 676.5 216 Q650 147 604 96 Q558 45 494.5 16.5 Q431 -12 358 -12 Q279 -12 213 15.5 Q147 43 100 93 Q53 143 26.5 212.5 Q0 282 0 366 Q0 448 26.5 518 Q53 588 99.5 638 Q146 688 210.5 716.5 Q275 745 351 745 Z M358 0 Q429 0 489.5 28 Q550 56 594.5 105 Q639 154 664.5 221 Q690 288 690 366 Q690 446 664.5 513.5 Q639 581 594 629.5 Q549 678 487 705.5 Q425 733 351 733 Q277 733 215 705.5 Q153 678 108 629.5 Q63 581 38 513.5 Q13 446 13 366 Q13 285 38.5 218 Q64 151 109.5 102.5 Q155 54 218.5 27 Q282 0 358 0 Z " />
<glyph glyph-name="asciitilde" unicode="&#x7e;" horiz-adv-x="500" d="M397 445 L397 316 L380 306 Q372 301 363 297.5 Q354 294 346 290 Q309 276 267 276 Q215 276 172 303 Q155 314 132 314 Q108 314 85.5 304.5 Q63 295 50 287 L0 259 L0 380 L16 387 Q76 416 133 416 Q186 416 228 391 Q243 380 267 380 Q280 380 292.5 383.5 Q305 387 316 392 Q327 397 335.5 402 Q344 407 349 411 L397 445 Z M384 420 L357 400 Q352 396 342.5 390.5 Q333 385 321 379.5 Q309 374 295.5 370.5 Q282 367 267 367 Q241 367 221 380 Q183 403 133 403 Q78 403 21 376 L13 372 L13 281 L44 298 Q57 306 81.5 316.5 Q106 327 132 327 Q146 327 157 323.5 Q168 320 179 314 Q219 289 267 289 Q307 289 342 302 Q350 305 357.5 308.5 Q365 312 373 317 L384 323 L384 420 Z M216 364 Q239 350 267 350 Q283 350 297.5 354 Q312 358 325 363.5 Q338 369 347.5 375 Q357 381 362 385 L372 392 L372 332 L369 330 Q368 329 356 323 Q344 317 338 315 Q305 303 272 303 Q224 303 184 328 Q161 343 132 343 Q106 343 81 333 Q56 323 39 313 L29 307 L29 361 L33 363 Q84 387 131 387.5 Q178 388 216 364 Z M360 368 Q345 358 320.5 347.5 Q296 337 267 337 Q235 337 209 354 Q174 376 131.5 375.5 Q89 375 42 353 L42 329 Q60 339 83 347 Q106 355 132 355 Q166 355 191 339 Q255 300 334 327 Q338 329 346 333 Q354 337 360 339 L360 368 Z " />
<glyph glyph-name="exclam" unicode="&#x21;" horiz-adv-x="237" d="M139 187 L8 187 L0 733 L147 733 L139 187 Z M134 720 L13 720 L20 200 L126 200 L134 720 Z M0 0 L0 144 L146 144 L146 0 L0 0 Z M13 131 L13 13 L133 13 L133 131 L13 131 Z M37 216 L37 222 L29 703 L117 703 L110 216 L37 216 Z M104 691 L42 691 L49 228 L97 228 L104 691 Z M30 29 L30 114 L116 114 L116 29 L30 29 Z M42 102 L42 42 L104 42 L104 102 L42 102 Z " />
<glyph glyph-name="numbersign" unicode="&#x23;" horiz-adv-x="794" d="M691 356 L517 356 L509 302 L686 302 L659 180 L485 180 L453 0 L326 0 L358 180 L305 180 L273 0 L146 0 L178 180 L0 180 L27 302 L201 302 L210 356 L33 356 L60 477 L234 477 L265 657 L392 657 L360 477 L414 477 L446 657 L573 657 L541 477 L719 477 L691 356 Z M670 289 L493 289 L507 369 L681 369 L703 465 L526 465 L557 645 L456 645 L425 465 L345 465 L377 645 L276 645 L244 465 L70 465 L49 369 L225 369 L212 289 L37 289 L16 193 L193 193 L161 13 L262 13 L294 193 L373 193 L341 13 L442 13 L474 193 L648 193 L670 289 Z M405 369 L392 289 L313 289 L326 369 L405 369 Z M381 302 L390 356 L337 356 L328 302 L381 302 Z M280 259 L300 397 L438 397 L418 259 L280 259 Z M424 385 L311 385 L295 272 L407 272 L424 385 Z M672 384 L492 385 L475 272 L651 272 L639 210 L459 209 L427 29 L359 29 L391 209 L278 209 L247 29 L178 29 L210 209 L39 209 L52 272 L227 272 L243 385 L72 385 L85 448 L260 448 L292 628 L360 628 L328 448 L440 448 L472 628 L540 628 L508 448 L684 448 L672 384 Z M461 259 L481 397 L661 397 L668 435 L493 435 L525 615 L483 615 L451 435 L313 435 L345 615 L302 615 L271 435 L95 435 L87 397 L258 397 L238 259 L62 259 L55 222 L226 222 L194 42 L236 42 L268 222 L406 222 L374 42 L416 42 L448 222 L628 223 L636 259 L461 259 Z " />
<glyph glyph-name="asterisk" unicode="&#x2a;" horiz-adv-x="463" d="M379 567 L379 443 L280 453 L343 372 L231 307 L188 404 L141 306 L37 372 L98 453 L2 443 L2 567 L98 556 L36 639 L146 702 L190 606 L233 703 L342 641 L279 556 L379 567 Z M366 457 L366 553 L251 539 L323 637 L239 685 L190 575 L140 684 L55 635 L126 540 L14 553 L14 457 L125 468 L55 375 L136 324 L189 435 L237 326 L324 376 L252 468 L366 457 Z M300 631 L227 526 L350 537 L350 471 L227 482 L302 382 L240 347 L190 463 L133 345 L76 381 L155 481 L31 473 L31 539 L154 528 L78 629 L136 663 L190 543 L244 663 L300 631 Z M337 523 L209 511 L209 522 L282 627 L250 645 L195 524 L185 524 L130 645 L97 626 L172 524 L172 513 L44 525 L44 487 L173 495 L173 485 L95 385 L128 364 L185 483 L195 483 L246 365 L283 386 L209 486 L209 497 L337 485 L337 523 Z " />
<glyph glyph-name="dollar" unicode="&#x24;" horiz-adv-x="783" d="M394 430 Q419 425 449 418 Q479 411 510 399.5 Q541 388 570 372 Q599 356 621.5 333 Q644 310 657.5 279 Q671 248 671 207 Q671 163 650.5 125.5 Q630 88 593.5 59 Q557 30 506 11 Q455 -8 394 -13 L394 -44 L272 -44 L272 -8 Q231 -1 194 12.5 Q157 26 128 46 L128 -1 L0 -1 L0 293 L128 293 L128 237 Q128 195 168 160 Q208 125 272 110 L272 332 Q233 340 186.5 352.5 Q140 365 99 388.5 Q58 412 30.5 449.5 Q3 487 3 545 Q3 586 22.5 621 Q42 656 77.5 682.5 Q113 709 162.5 725 Q212 741 272 744 L272 775 L394 775 L394 736 Q423 729 450.5 719.5 Q478 710 501 697 L501 732 L627 732 L627 486 L501 486 L501 534 Q501 557 471 579.5 Q441 602 394 616 L394 430 Z M386 1 Q446 5 496 22.5 Q546 40 581.5 67 Q617 94 637 130 Q657 166 657 207 Q657 265 628 302.5 Q599 340 557 363 Q515 386 468.5 398 Q422 410 386 418 L380 419 L380 634 L389 632 Q445 617 479.5 590 Q514 563 514 534 L514 500 L614 500 L614 718 L514 718 L514 673 L504 679 Q479 694 449 705.5 Q419 717 386 723 L380 724 L380 762 L286 762 L286 731 L279 731 Q221 729 172.5 714 Q124 699 89.5 674.5 Q55 650 35.5 617 Q16 584 16 545 Q16 495 39.5 461 Q63 427 100.5 404.5 Q138 382 185 368 Q232 354 280 344 L286 343 L286 93 L278 95 Q242 102 211.5 116.5 Q181 131 159.5 150 Q138 169 126 191 Q114 213 114 237 L114 279 L14 279 L14 12 L114 12 L114 72 L125 64 Q156 42 195.5 27 Q235 12 280 5 L286 4 L286 -30 L380 -30 L380 0 L386 1 Z M278 440 Q243 448 215 457.5 Q187 467 167 479.5 Q147 492 136 508 Q125 524 125 545 Q125 564 136.5 581.5 Q148 599 168.5 612 Q189 625 217.5 633 Q246 641 279 643 L286 643 L286 438 L278 440 Z M272 629 Q243 627 218.5 619.5 Q194 612 176 601 Q158 590 148 575.5 Q138 561 138 545 Q138 514 169 493.5 Q200 473 272 456 L272 629 Z M389 321 Q424 312 452.5 302.5 Q481 293 501.5 280 Q522 267 533 250 Q544 233 544 210 Q544 163 501 130 Q458 97 388 89 L380 89 L380 323 L389 321 Z M394 104 Q456 112 493 141 Q530 170 530 210 Q530 243 499 265 Q468 287 394 305 L394 104 Z M357 357 Q395 349 434 337.5 Q473 326 504.5 308.5 Q536 291 555.5 267 Q575 243 575 210 Q575 178 559 151 Q543 124 514 104.5 Q485 85 444.5 74.5 Q404 64 356 64 L349 64 L349 359 L357 357 Z M363 77 Q407 78 443.5 88 Q480 98 506 115.5 Q532 133 546.5 157 Q561 181 561 210 Q561 239 543.5 260 Q526 281 497.5 297 Q469 313 433.5 323.5 Q398 334 363 342 L363 77 Z M370 408 Q416 399 464 386.5 Q512 374 551 352 Q590 330 615 295.5 Q640 261 640 207 Q640 167 619.5 133 Q599 99 562.5 74 Q526 49 475 34 Q424 19 363 17 L363 -13 L303 -13 L303 20 Q239 28 184 49.5 Q129 71 97 102 L97 30 L31 30 L31 261 L97 261 L97 228 Q97 202 113 177 Q129 152 157 131 Q185 110 222.5 95 Q260 80 303 73 L303 358 L301 359 Q251 369 203.5 381 Q156 393 118 413 Q80 433 57 464.5 Q34 496 34 545 Q34 582 53.5 613 Q73 644 108 666.5 Q143 689 193 701 Q243 713 303 713 L303 744 L363 744 L363 716 Q408 708 453 688.5 Q498 669 530 644 L530 699 L599 699 L598 512 L528 513 L529 533 Q529 552 516 571 Q503 590 481.5 607.5 Q460 625 431 638 Q402 651 370 658 L370 408 Z M356 30 Q416 31 465.5 45 Q515 59 550.5 82.5 Q586 106 606 137.5 Q626 169 626 207 Q626 254 605 285 Q584 316 548 337 Q512 358 464 371.5 Q416 385 362 396 L357 397 L357 675 L365 673 Q401 667 433 652.5 Q465 638 489.5 619 Q514 600 528 577.5 Q542 555 542 533 L542 527 L585 526 L585 685 L544 685 L544 613 L532 624 Q502 652 452.5 674 Q403 696 355 703 L349 704 L349 730 L317 730 L317 700 L307 700 Q250 700 202 688.5 Q154 677 119.5 656.5 Q85 636 66 607.5 Q47 579 47 545 Q47 500 68.5 471 Q90 442 126 423.5 Q162 405 208 393.5 Q254 382 303 372 L317 369 L317 58 L309 59 Q256 66 214 83.5 Q172 101 143 124.5 Q114 148 98.5 175 Q83 202 83 228 L83 248 L45 248 L45 43 L83 43 L83 137 L95 123 Q109 106 131.5 91.5 Q154 77 182.5 65 Q211 53 243.5 45 Q276 37 311 33 L317 32 L317 0 L349 0 L349 30 L356 30 Z M308 674 L317 674 L317 401 L309 403 Q271 411 233 422 Q195 433 164 449.5 Q133 466 113.5 489.5 Q94 513 94 545 Q94 573 110 596.5 Q126 620 154 637 Q182 654 220.5 664 Q259 674 304 674 L308 674 Z M303 661 Q261 661 225.5 652 Q190 643 163.5 627.5 Q137 612 122 591 Q107 570 107 545 Q107 517 124.5 496.5 Q142 476 170 461 Q198 446 233 435.5 Q268 425 303 418 L303 661 Z " />
<glyph glyph-name="parenleft" unicode="&#x28;" horiz-adv-x="377" d="M157 366 Q157 186 244 54 L278 1 L118 1 L108 15 Q3 162 3 366 Q3 469 29.5 556.5 Q56 644 108 719 L118 733 L279 733 L243 680 Q157 552 157 366 Z M253 14 L232 46 Q143 182 143 366 Q143 555 232 688 L254 720 L125 720 L119 711 Q18 568 16 366 Q16 168 119 23 L125 14 L253 14 Z M125 365 Q125 179 214 44 L225 28 L135 28 L132 32 Q34 170 34 365 Q34 465 58.5 548 Q83 631 132 701 L135 705 L225 705 L214 689 Q125 558 125 365 Z M199 41 Q112 177 112 365 Q112 559 199 692 L143 692 Q48 558 47 365 Q47 176 142 41 L199 41 Z " />
<glyph glyph-name="parenright" unicode="&#x29;" horiz-adv-x="380" d="M125 368 Q125 548 38 680 L3 733 L163 733 L174 719 Q279 572 279 368 Q277 163 174 15 L164 1 L3 1 L38 54 Q125 181 125 368 Z M29 720 L49 688 Q139 553 139 368 Q139 179 50 46 L28 14 L157 14 L163 23 Q265 169 265 368 Q265 567 163 711 L156 720 L29 720 Z M156 369 Q156 554 68 690 L57 706 L146 706 L149 702 Q200 632 224 550 Q248 468 248 369 Q247 170 149 33 L146 29 L57 29 L68 45 Q156 176 156 369 Z M82 693 Q170 556 170 369 Q170 176 82 42 L139 42 Q187 111 210.5 191.5 Q234 272 234 369 Q234 558 139 693 L82 693 Z " />
<glyph glyph-name="underscore" unicode="&#x5f;" horiz-adv-x="494" d="M0 123 L365 123 L365 0 L0 0 L0 123 Z M352 13 L352 110 L13 110 L13 13 L352 13 Z M336 93 L336 29 L29 29 L29 93 L336 93 Z M323 41 L323 81 L42 81 L42 41 L323 41 Z " />
<glyph glyph-name="plus" unicode="&#x2b;" horiz-adv-x="515" d="M282 332 L431 332 L431 199 L282 199 L282 50 L149 50 L149 199 L0 199 L0 332 L149 332 L149 481 L282 481 L282 332 Z M418 212 L418 319 L269 319 L269 468 L162 468 L162 319 L13 319 L13 212 L162 212 L162 63 L269 63 L269 212 L418 212 Z M253 451 L253 303 L402 303 L402 228 L253 228 L253 79 L178 79 L178 228 L29 228 L29 303 L178 303 L178 451 L253 451 Z M389 290 L240 290 L240 439 L191 439 L191 290 L42 290 L42 240 L191 240 L191 92 L240 92 L240 240 L389 240 L389 290 Z " />
<glyph glyph-name="equal" unicode="&#x3d;" horiz-adv-x="505" d="M1 405 L394 405 L394 290 L1 290 L1 405 Z M381 303 L381 393 L14 393 L14 303 L381 303 Z M1 148 L1 263 L394 263 L394 148 L1 148 Z M14 250 L14 161 L381 161 L381 250 L14 250 Z M365 376 L365 319 L30 319 L30 376 L365 376 Z M352 332 L352 363 L43 363 L43 332 L352 332 Z M30 177 L30 233 L365 233 L365 177 L30 177 Z M43 221 L43 189 L352 189 L352 221 L43 221 Z " />
<glyph glyph-name="endash" unicode="&#x2013;" horiz-adv-x="338" d="M1 388 L233 388 L233 271 L1 271 L1 388 Z M220 284 L220 375 L14 375 L14 284 L220 284 Z M203 358 L203 301 L31 301 L31 358 L203 358 Z M191 313 L191 345 L44 345 L44 313 L191 313 Z " />
<glyph glyph-name="emdash" unicode="&#x2014;" horiz-adv-x="354" d="M1 388 L233 388 L233 271 L1 271 L1 388 Z M220 284 L220 375 L14 375 L14 284 L220 284 Z M203 358 L203 301 L31 301 L31 358 L203 358 Z M191 313 L191 345 L44 345 L44 313 L191 313 Z " />
<glyph glyph-name="hyphen" unicode="&#x2d;" horiz-adv-x="338" d="M1 388 L233 388 L233 271 L1 271 L1 388 Z M220 284 L220 375 L14 375 L14 284 L220 284 Z M203 358 L203 301 L31 301 L31 358 L203 358 Z M191 313 L191 345 L44 345 L44 313 L191 313 Z " />
<glyph glyph-name="question" unicode="&#x3f;" horiz-adv-x="489" d="M99 147 L247 147 L247 -1 L99 -1 L99 147 Z M112 12 L234 12 L234 134 L112 134 L112 12 Z M364 404 L342 382 L242 269 L242 165 L102 165 L102 214 L102 218 L102 333 L121 353 L230 469 L230 595 Q228 597 221 600.5 Q214 604 204 604 L159 604 Q148 604 141 600.5 Q134 597 134 595 L134 502 L0 502 L0 561 Q0 583 2 613 Q4 643 16 670 Q28 697 54.5 715.5 Q81 734 129 734 L234 734 Q274 734 299.5 718.5 Q325 703 339.5 682.5 Q354 662 359 642 Q364 622 364 613 L364 404 Z M351 409 L351 613 Q351 613 348 630 Q345 647 333.5 667 Q322 687 298.5 704 Q275 721 234 721 L129 721 Q85 721 61.5 705 Q38 689 27.5 665 Q17 641 15 613 Q13 585 13 561 L13 515 L121 515 L121 595 Q121 606 134 611.5 Q147 617 159 617 L204 617 Q218 617 230.5 610.5 Q243 604 243 596 L243 464 L241 462 L115 328 L115 218 L115 215 L115 178 L229 178 L229 274 L333 391 L351 409 Z M130 116 L216 116 L216 29 L130 29 L130 116 Z M143 43 L203 43 L203 103 L143 103 L143 43 Z M234 705 Q264 705 283.5 694 Q303 683 314 668 Q325 653 329 637.5 Q333 622 333 613 L333 413 L318 397 L212 278 L212 195 L132 195 L132 215 L132 217 L132 320 L138 325 L260 460 L260 595 Q260 607 253.5 614.5 Q247 622 238 626.5 Q229 631 219.5 632.5 Q210 634 204 634 L159 634 Q157 634 148 633 Q139 632 129 628.5 Q119 625 111 617 Q103 609 103 595 L103 532 L30 532 L30 560 Q30 594 32 620.5 Q34 647 44 666 Q54 685 74 695 Q94 705 129 705 L234 705 Z M320 613 Q320 613 318.5 625.5 Q317 638 309 653 Q301 668 283.5 680 Q266 692 234 692 L129 692 Q98 692 81 683.5 Q64 675 55.5 658.5 Q47 642 45.5 617.5 Q44 593 44 560 L44 545 L90 545 L90 595 Q90 622 111.5 634.5 Q133 647 159 647 L204 647 Q214 647 226.5 644 Q239 641 249 635 Q259 629 266 619 Q273 609 273 595 L273 455 L272 453 L145 314 L145 217 L145 216 L145 208 L199 208 L199 283 L214 299 L309 406 L320 418 L320 613 Z " />
<glyph glyph-name="bar" unicode="&#x7c;" horiz-adv-x="245" d="M0 735 L141 735 L141 -1 L0 -1 L0 735 Z M128 12 L128 722 L13 722 L13 12 L128 12 Z M111 704 L111 29 L30 29 L30 704 L111 704 Z M97 43 L97 691 L44 691 L44 43 L97 43 Z " />
<glyph glyph-name="fraction" unicode="&#x2044;" horiz-adv-x="354" d="M131 733 L272 733 L146 0 L4 0 L131 733 Z M135 12 L257 720 L141 720 L20 12 L135 12 Z M157 702 L238 702 L119 30 L39 30 L157 702 Z M108 43 L222 689 L168 689 L55 43 L108 43 Z " />
<glyph glyph-name="backslash" unicode="&#x5c;" horiz-adv-x="380" d="M272 0 L131 0 L4 733 L146 733 L272 0 Z M257 12 L135 720 L20 720 L141 12 L257 12 Z M238 30 L157 30 L39 703 L119 703 L238 30 Z M222 44 L108 690 L55 690 L168 44 L222 44 Z " />
<glyph glyph-name="bracketleft" unicode="&#x5b;" horiz-adv-x="372" d="M251 592 L141 592 L141 141 L251 141 L251 0 L0 0 L0 733 L251 733 L251 592 Z M238 128 L128 128 L128 605 L238 605 L238 719 L13 719 L13 13 L238 13 L238 128 Z M221 622 L111 622 L111 110 L221 110 L221 30 L31 30 L31 702 L221 702 L221 622 Z M207 97 L97 97 L97 635 L207 635 L207 689 L44 689 L44 43 L207 43 L207 97 Z " />
<glyph glyph-name="bracketright" unicode="&#x5d;" horiz-adv-x="401" d="M0 141 L110 141 L110 592 L0 592 L0 733 L251 733 L251 0 L0 0 L0 141 Z M13 605 L123 605 L123 128 L13 128 L13 13 L238 13 L238 719 L13 719 L13 605 Z M31 111 L140 111 L140 623 L31 623 L31 703 L221 703 L221 31 L31 31 L31 111 Z M44 636 L154 636 L154 97 L44 97 L44 44 L207 44 L207 689 L44 689 L44 636 Z " />
<glyph glyph-name="braceleft" unicode="&#x7b;" horiz-adv-x="419" d="M305 592 L195 592 L195 437 L251 437 L251 296 L195 296 L195 141 L305 141 L305 0 L54 0 L54 296 L0 296 L0 437 L54 437 L54 733 L305 733 L305 592 Z M238 424 L182 424 L182 605 L292 605 L292 719 L68 719 L68 424 L13 424 L13 309 L68 309 L68 13 L292 13 L292 128 L182 128 L182 309 L238 309 L238 424 Z M275 622 L165 622 L165 406 L220 406 L220 326 L165 326 L165 110 L275 110 L275 30 L85 30 L85 326 L30 326 L30 406 L85 406 L85 702 L275 702 L275 622 Z M207 393 L152 393 L152 635 L261 635 L261 689 L98 689 L98 393 L44 393 L44 339 L98 339 L98 43 L261 43 L261 97 L152 97 L152 339 L207 339 L207 393 Z " />
<glyph glyph-name="braceright" unicode="&#x7d;" horiz-adv-x="406" d="M0 141 L110 141 L110 296 L54 296 L54 437 L110 437 L110 592 L0 592 L0 733 L251 733 L251 437 L305 437 L305 296 L251 296 L251 0 L0 0 L0 141 Z M68 309 L123 309 L123 128 L13 128 L13 13 L238 13 L238 309 L292 309 L292 423 L238 423 L238 719 L13 719 L13 605 L123 605 L123 423 L68 423 L68 309 Z M31 111 L140 111 L140 327 L85 327 L85 407 L140 407 L140 623 L31 623 L31 703 L220 703 L220 407 L275 407 L275 327 L220 327 L220 31 L31 31 L31 111 Z M98 340 L154 340 L154 97 L44 97 L44 44 L207 44 L207 340 L261 340 L261 393 L207 393 L207 689 L44 689 L44 636 L154 636 L154 393 L98 393 L98 340 Z " />
<glyph glyph-name="asciicircum" unicode="&#x5e;" horiz-adv-x="502" d="M249 729 L388 373 L256 373 L194 540 L132 373 L0 373 L143 733 L247 733 L249 729 Z M194 578 L265 386 L368 386 L238 720 L152 720 L20 386 L123 386 L194 578 Z M224 702 L347 403 L280 403 L194 609 L109 403 L42 403 L166 702 L224 702 Z M194 644 L289 417 L327 417 L215 689 L175 689 L62 417 L100 417 L194 644 Z " />
<glyph glyph-name="less" unicode="&#x3c;" horiz-adv-x="463" d="M361 412 L194 350 L361 288 L361 156 L1 298 L1 403 L5 404 L361 543 L361 412 Z M348 278 L156 350 L348 421 L348 524 L14 394 L14 307 L348 175 L348 278 Z M330 435 L125 350 L330 265 L330 198 L31 322 L31 380 L330 502 L330 435 Z M317 256 L90 350 L317 444 L317 482 L45 371 L45 331 L317 218 L317 256 Z " />
<glyph glyph-name="greater" unicode="&#x3e;" horiz-adv-x="463" d="M1 287 L168 349 L1 412 L1 543 L361 401 L361 296 L357 295 L1 156 L1 287 Z M14 421 L206 349 L14 278 L14 175 L348 306 L348 392 L14 524 L14 421 Z M31 264 L237 349 L31 434 L31 501 L330 378 L330 319 L31 197 L31 264 Z M45 443 L272 349 L45 255 L45 217 L317 328 L317 369 L45 481 L45 443 Z " />
<glyph glyph-name="percent" unicode="&#x25;" horiz-adv-x="801" d="M602 732 L192 1 L38 1 L449 732 L602 732 Z M579 719 L456 719 L60 14 L184 14 L579 719 Z M548 292 Q556 292 565.5 289.5 Q575 287 583.5 278.5 Q592 270 598 254 Q604 238 604 211 Q604 185 598 169 Q592 153 583.5 144.5 Q575 136 565.5 133 Q556 130 548 130 Q540 130 530.5 133 Q521 136 512.5 144.5 Q504 153 498 169 Q492 185 492 211 Q492 238 498 254 Q504 270 512.5 278.5 Q521 287 530.5 289.5 Q540 292 548 292 Z M548 144 Q590 144 590 211 Q590 279 548 279 Q505 279 505 211 Q505 144 548 144 Z M548 399 Q579 399 607.5 384 Q636 369 657 344 Q678 319 690.5 285 Q703 251 703 214 Q703 174 691 139 Q679 104 658 78.5 Q637 53 609 38 Q581 23 548 23 Q516 23 487.5 38 Q459 53 438 78.5 Q417 104 405 138 Q393 172 393 211 Q393 250 405 284 Q417 318 438 343.5 Q459 369 487.5 384 Q516 399 548 399 Z M548 37 Q578 37 603.5 50.5 Q629 64 648 88 Q667 112 678 144.5 Q689 177 689 214 Q689 249 678 280 Q667 311 647.5 334.5 Q628 358 602.5 372 Q577 386 548 386 Q519 386 493 372 Q467 358 447.5 334.5 Q428 311 417 279 Q406 247 406 211 Q406 175 417 143.5 Q428 112 447.5 88 Q467 64 493 50.5 Q519 37 548 37 Z M157 529 Q149 529 139.5 532 Q130 535 121.5 543.5 Q113 552 107 568 Q101 584 101 610 Q101 636 107 652 Q113 668 121.5 676.5 Q130 685 139.5 688 Q149 691 157 691 Q165 691 174.5 688 Q184 685 192.5 676.5 Q201 668 207 652 Q213 636 213 610 Q213 584 207 568 Q201 552 192.5 543.5 Q184 535 174.5 532 Q165 529 157 529 Z M157 677 Q115 677 115 610 Q115 543 157 543 Q200 543 200 610 Q200 677 157 677 Z M157 422 Q125 422 97 436.5 Q69 451 48 476.5 Q27 502 14.5 536.5 Q2 571 2 610 Q2 649 14.5 683 Q27 717 48 742.5 Q69 768 97 783 Q125 798 157 798 Q188 798 216.5 783 Q245 768 266 743 Q287 718 299.5 684 Q312 650 312 613 Q312 573 300 538 Q288 503 267 477.5 Q246 452 218 437 Q190 422 157 422 Z M157 784 Q128 784 102 770.5 Q76 757 57 733 Q38 709 27 677.5 Q16 646 16 610 Q16 574 27 542.5 Q38 511 57 487 Q76 463 102 449.5 Q128 436 157 436 Q187 436 213 449.5 Q239 463 258 487 Q277 511 288 543 Q299 575 299 613 Q299 648 287.5 679 Q276 710 256.5 733.5 Q237 757 211.5 770.5 Q186 784 157 784 Z M548 701 L171 31 L89 31 L467 701 L548 701 Z M526 688 L474 688 L111 44 L163 44 L526 688 Z M548 368 Q574 368 597 356 Q620 344 636.5 323.5 Q653 303 662.5 275 Q672 247 672 214 Q672 179 663 149.5 Q654 120 637.5 99 Q621 78 598 66 Q575 54 548 54 Q521 54 498 65.5 Q475 77 458.5 98 Q442 119 433 148 Q424 177 424 211 Q424 245 433 274 Q442 303 458.5 324 Q475 345 498 356.5 Q521 368 548 368 Z M548 68 Q597 68 627.5 108.5 Q658 149 658 214 Q658 244 649.5 269.5 Q641 295 626.5 314 Q612 333 592 343.5 Q572 354 548 354 Q524 354 503.5 343.5 Q483 333 468.5 314 Q454 295 445.5 268.5 Q437 242 437 211 Q437 180 445.5 153.5 Q454 127 468.5 108 Q483 89 503.5 78.5 Q524 68 548 68 Z M548 323 Q586 323 610.5 291.5 Q635 260 635 211 Q635 162 610.5 130.5 Q586 99 548 99 Q510 99 485 130.5 Q460 162 460 211 Q460 260 485 291.5 Q510 323 548 323 Z M548 112 Q580 112 600.5 140 Q621 168 621 211 Q621 254 600.5 281.5 Q580 309 548 309 Q516 309 495 281.5 Q474 254 474 211 Q474 168 495 140 Q516 112 548 112 Z M157 497 Q119 497 94.5 529 Q70 561 70 610 Q70 659 94.5 690.5 Q119 722 157 722 Q195 722 220 690.5 Q245 659 245 610 Q245 561 220 529 Q195 497 157 497 Z M157 708 Q125 708 104.5 680.5 Q84 653 84 610 Q84 566 104.5 538.5 Q125 511 157 511 Q189 511 210 538.5 Q231 566 231 610 Q231 653 210 680.5 Q189 708 157 708 Z M157 453 Q130 453 107 464.5 Q84 476 67.5 497 Q51 518 42 547 Q33 576 33 610 Q33 644 42 672.5 Q51 701 67.5 722 Q84 743 107 754.5 Q130 766 157 766 Q184 766 206.5 754.5 Q229 743 245.5 722 Q262 701 271.5 673 Q281 645 281 612 Q281 577 272 547.5 Q263 518 246.5 497 Q230 476 207 464.5 Q184 453 157 453 Z M157 753 Q133 753 113 742.5 Q93 732 78 713 Q63 694 55 667.5 Q47 641 47 610 Q47 579 55 552.5 Q63 526 78 507 Q93 488 113 477 Q133 466 157 466 Q206 466 237 506.5 Q268 547 268 612 Q268 642 259.5 668 Q251 694 236 712.5 Q221 731 201 742 Q181 753 157 753 Z " />
<glyph glyph-name="ampersand" unicode="&#x26;" horiz-adv-x="786" d="M236 454 L232 460 Q215 483 208.5 505 Q202 527 202 556 Q202 594 221.5 616.5 Q241 639 273 639 Q291 639 303.5 632.5 Q316 626 323.5 615.5 Q331 605 334.5 592.5 Q338 580 338 567 Q338 531 309.5 506 Q281 481 241 458 L236 454 Z M216 556 Q216 531 221 512 Q226 493 240 473 Q282 498 303.5 519 Q325 540 325 567 Q325 571 324 580.5 Q323 590 317.5 600 Q312 610 301.5 618 Q291 626 273 626 Q257 626 246 620 Q235 614 228.5 604 Q222 594 219 581.5 Q216 569 216 556 Z M205 330 Q258 269 293 230 Q328 191 354 162 L367 149 L362 144 Q347 131 321.5 117 Q296 103 253 103 Q197 103 162 135.5 Q127 168 127 220 Q127 243 135 261.5 Q143 280 154 293.5 Q165 307 176.5 316 Q188 325 196 331 L201 334 L205 330 Z M253 117 Q288 117 310.5 127.5 Q333 138 347 150 L344 152 Q318 181 284 219 Q250 257 199 316 Q176 299 158 277 Q140 255 140 220 Q140 174 171.5 145.5 Q203 117 253 117 Z M679 130 L679 -1 L486 -1 L478 8 Q467 18 456.5 29 Q446 40 433 54 Q349 -12 239 -12 Q180 -12 135.5 7.5 Q91 27 60.5 58.5 Q30 90 14.5 129.5 Q-1 169 -1 210 Q-1 336 120 415 Q97 447 86 481.5 Q75 516 75 549 Q75 586 89 621.5 Q103 657 129 685 Q155 713 193 730.5 Q231 748 279 748 Q317 748 350.5 734 Q384 720 408.5 696 Q433 672 447.5 640 Q462 608 462 571 Q462 498 401 440 L635 440 L635 303 L598 303 Q587 255 572 220.5 Q557 186 534 154 Q537 150 541 147 L545 142 L557 130 L679 130 Z M665 116 L551 116 L549 118 Q545 123 542 126 Q539 129 536 132 L531 137 L520 148 L516 152 L519 157 Q543 189 558.5 225 Q574 261 585 312 L587 317 L622 317 L622 427 L385 427 Q379 421 372 417 L372 322 Q374 321 378 317 L472 317 L467 300 Q462 280 458 269 Q454 258 445 241 L441 233 L434 239 Q423 251 411 263.5 Q399 276 385 290 Q377 299 368 307.5 Q359 316 351 324 Q338 337 325 350 Q312 363 298 378 L292 384 L300 388 Q376 428 412 472.5 Q448 517 448 571 Q448 605 434.5 634.5 Q421 664 398 686 Q375 708 344.5 721 Q314 734 279 734 Q234 734 199 718 Q164 702 139 675.5 Q114 649 101 616 Q88 583 88 549 Q88 482 135 417 L139 411 L133 407 Q13 333 13 210 Q13 172 27.5 135 Q42 98 70.5 68.5 Q99 39 141.5 20.5 Q184 2 239 2 Q349 2 429 69 L434 73 L439 68 Q453 52 464.5 40 Q476 28 487 17 L492 13 L665 13 L665 116 Z M359 407 Q338 393 314 380 Q325 368 336.5 357.5 Q348 347 359 336 L359 407 Z M395 300 Q406 288 417 277.5 Q428 267 438 256 Q443 267 446 277 Q449 287 454 303 L392 303 L395 300 Z M516 130 Q523 123 529 116.5 Q535 110 543 102 L648 102 L648 30 L496 30 L494 32 Q480 46 466 61 Q452 76 435 94 Q353 19 239 19 Q185 19 146 36 Q107 53 81.5 80 Q56 107 43.5 141 Q31 175 31 210 Q31 335 162 407 Q106 477 106 548 Q106 579 117 609.5 Q128 640 149.5 663.5 Q171 687 203.5 701.5 Q236 716 279 716 Q312 716 340 705.5 Q368 695 388 676 Q408 657 419 630 Q430 603 430 571 Q430 514 394.5 471 Q359 428 282 390 L274 386 Q298 358 325 329.5 Q352 301 378 275 Q396 257 412.5 239.5 Q429 222 442 208 Q458 233 470.5 264 Q483 295 492 334 L390 334 L390 409 L604 409 L604 334 L571 334 Q557 270 539 226.5 Q521 183 495 151 L516 130 Z M634 88 L537 88 L534 92 L506 120 Q501 126 495 131.5 Q489 137 483 144 L477 151 L483 158 Q509 188 526.5 231.5 Q544 275 558 340 L560 348 L590 348 L590 395 L404 395 L404 348 L509 348 L506 335 Q487 252 452 197 L444 186 L435 196 Q408 226 369 265 Q342 293 314 322.5 Q286 352 261 381 L251 391 L276 402 Q349 438 383 478.5 Q417 519 417 571 Q417 630 378.5 666.5 Q340 703 279 703 Q240 703 210 689.5 Q180 676 160 654.5 Q140 633 130 605 Q120 577 120 548 Q120 482 173 415 L175 412 L175 399 L170 396 Q44 328 44 210 Q44 178 55.5 146 Q67 114 91 88.5 Q115 63 152 47.5 Q189 32 239 32 Q348 32 428 106 L435 113 L443 106 Q460 87 474 72 Q488 57 502 43 L634 43 L634 88 Z M224 423 Q173 486 173 556 Q173 577 180 597.5 Q187 618 200 634 Q213 650 231.5 660 Q250 670 273 670 Q297 670 315 660 Q333 650 345 634.5 Q357 619 363.5 601 Q370 583 370 567 Q370 543 359 522.5 Q348 502 329.5 484 Q311 466 287 450.5 Q263 435 238 420 L230 416 L224 423 Z M273 656 Q253 656 237 647.5 Q221 639 210 624.5 Q199 610 193 592 Q187 574 187 556 Q187 493 233 433 Q257 447 279 462 Q301 477 318.5 493.5 Q336 510 346 528 Q356 546 356 567 Q356 581 350.5 597 Q345 613 334.5 626 Q324 639 308.5 647.5 Q293 656 273 656 Z M211 365 Q262 308 309 256 Q356 204 386 170 L406 148 L400 141 Q393 133 379.5 121.5 Q366 110 347.5 99 Q329 88 305 80 Q281 72 253 72 Q220 72 191.5 83.5 Q163 95 141.5 115 Q120 135 107.5 162 Q95 189 95 220 Q95 251 107.5 275.5 Q120 300 137 318.5 Q154 337 171.5 349 Q189 361 198 367 L206 372 L211 365 Z M253 85 Q278 85 299.5 92 Q321 99 338 109 Q355 119 367.5 129.5 Q380 140 388 148 L376 161 Q361 177 341.5 199 Q322 221 299.5 246 Q277 271 252.5 298.5 Q228 326 203 354 Q193 348 177 336.5 Q161 325 146 308 Q131 291 120 269 Q109 247 109 220 Q109 192 120.5 167.5 Q132 143 151.5 124.5 Q171 106 197 95.5 Q223 85 253 85 Z " />
<glyph glyph-name="at" unicode="&#x40;" horiz-adv-x="523" d="M398 208 Q398 187 392.5 163.5 Q387 140 366 124 L398 124 L398 -1 L131 -1 Q88 -1 62.5 11.5 Q37 24 23 42.5 Q9 61 4.5 82 Q0 103 0 120 L0 319 Q0 379 32 413 Q64 447 120 447 L278 447 Q314 447 337 436 Q360 425 373.5 409 Q387 393 392.5 375 Q398 357 398 342 L398 208 Z M283 111 L334 124 Q351 128 361 137 Q371 146 376.5 157.5 Q382 169 383.5 182 Q385 195 385 208 L385 342 Q385 345 383 360 Q381 375 370.5 391 Q360 407 338.5 420.5 Q317 434 278 434 L120 434 Q69 434 41 403.5 Q13 373 13 319 L13 120 Q13 87 24 66 Q35 45 52 33 Q69 21 90 17 Q111 13 131 13 L385 13 L385 111 L283 111 Z M142 302 L140 302 L140 128 L127 128 L127 304 Q127 313 132 314.5 Q137 316 142 316 L146 316 L252 316 Q271 316 271 296 L271 226 L258 226 L258 296 Q258 301 257.5 301.5 Q257 302 252 302 L142 302 Z M368 207 Q368 172 353.5 150.5 Q339 129 293 129 L162 129 L162 267 L234 267 L234 201 L268 201 Q296 201 296 230 L296 319 Q296 348 267 348 L138 348 Q102 348 102 319 L102 130 Q102 101 131 101 L368 101 L368 29 L131 29 Q108 29 90 32.5 Q72 36 58.5 46 Q45 56 38 73.5 Q31 91 31 119 L31 319 Q31 416 120 416 L278 416 Q368 416 368 342 L368 207 Z M293 143 Q332 143 343 159 Q354 175 354 207 L354 342 Q354 402 278 403 L120 403 Q80 403 62 383.5 Q44 364 44 319 L44 119 Q44 71 66 57 Q88 43 131 43 L354 43 L354 87 L131 87 Q89 88 89 130 L89 146 L89 319 Q89 361 138 361 L267 361 Q287 361 298 350 Q309 339 309 319 L309 230 Q309 188 268 188 L221 187 L221 254 L175 254 L175 143 L293 143 Z " />
<glyph glyph-name="period" unicode="&#x2e;" horiz-adv-x="221" d="M99 28 L28 28 L28 99 L99 99 L99 28 L99 28 Z M41 41 L86 41 L86 87 L41 87 L41 41 L41 41 Z M127 0 L0 0 L0 128 L127 128 L127 0 L127 0 Z M12 13 L115 13 L115 115 L12 115 L12 13 L12 13 Z " />
<glyph glyph-name="colon" unicode="&#x3a;" horiz-adv-x="232" d="M127 0 L0 0 L0 128 L127 128 L127 0 L127 0 Z M12 13 L115 13 L115 115 L12 115 L12 13 L12 13 Z M99 28 L28 28 L28 99 L99 99 L99 28 L99 28 Z M41 41 L86 41 L86 87 L41 87 L41 41 L41 41 Z M127 272 L0 272 L0 399 L127 399 L127 272 L127 272 Z M12 284 L115 284 L115 387 L12 387 L12 284 L12 284 Z M127 272 L0 272 L0 399 L127 399 L127 272 L127 272 Z M12 284 L115 284 L115 387 L12 387 L12 284 L12 284 Z M127 272 L0 272 L0 399 L127 399 L127 272 L127 272 Z M12 284 L115 284 L115 387 L12 387 L12 284 L12 284 Z M99 300 L28 300 L28 370 L99 370 L99 300 L99 300 Z M41 312 L86 312 L86 358 L41 358 L41 312 L41 312 Z " />
<glyph glyph-name="semicolon" unicode="&#x3b;" horiz-adv-x="221" d="M128 272 L1 272 L1 399 L128 399 L128 272 L128 272 Z M13 284 L116 284 L116 387 L13 387 L13 284 L13 284 Z M128 272 L1 272 L1 399 L128 399 L128 272 L128 272 Z M13 284 L116 284 L116 387 L13 387 L13 284 L13 284 Z M128 272 L1 272 L1 399 L128 399 L128 272 L128 272 Z M13 284 L116 284 L116 387 L13 387 L13 284 L13 284 Z M128 272 L1 272 L1 399 L128 399 L128 272 L128 272 Z M13 284 L116 284 L116 387 L13 387 L13 284 L13 284 Z M100 300 L29 300 L29 370 L100 370 L100 300 L100 300 Z M41 312 L87 312 L87 358 L41 358 L41 312 L41 312 Z M84 -17 L38 -17 L51 22 L29 22 L29 93 L100 93 L99 26 L84 -17 L84 -17 Z M55 -5 L75 -5 L87 29 L87 80 L41 80 L41 34 L69 34 L55 -5 L55 -5 Z M106 -45 L2 -45 L15 1 L1 1 L1 121 L128 121 L128 23 L106 -45 L106 -45 Z M18 -33 L97 -33 L116 26 L116 109 L13 109 L13 14 L32 14 L18 -33 L18 -33 Z " />
<glyph glyph-name="comma" unicode="&#x2c;" horiz-adv-x="224" d="M84 -17 L38 -17 L51 22 L29 22 L29 93 L100 93 L99 26 L84 -17 L84 -17 Z M55 -5 L75 -5 L87 29 L87 80 L41 80 L41 34 L69 34 L55 -5 L55 -5 Z M106 -45 L2 -45 L15 1 L1 1 L1 121 L128 121 L128 23 L106 -45 L106 -45 Z M18 -33 L97 -33 L116 26 L116 109 L13 109 L13 14 L32 14 L18 -33 L18 -33 Z " />
<glyph glyph-name="slash" unicode="&#x2f;" horiz-adv-x="351" d="M272 733 L146 0 L4 0 L131 733 L272 733 Z M257 720 L141 720 L20 12 L135 12 L257 720 Z M238 702 L119 30 L39 30 L157 702 L238 702 Z M222 689 L168 689 L55 43 L108 43 L222 689 Z " />
<glyph glyph-name="quotedbl" unicode="&#x22;" horiz-adv-x="375" d="M112 557 L1 557 L15 606 L0 606 L0 733 L134 733 L134 629 L112 557 L112 557 Z M19 570 L102 570 L121 632 L121 720 L13 720 L13 619 L33 619 L19 570 L19 570 Z M112 557 L1 557 L15 606 L0 606 L0 733 L134 733 L134 629 L112 557 L112 557 Z M19 570 L102 570 L121 632 L121 720 L13 720 L13 619 L33 619 L19 570 L19 570 Z M88 586 L40 586 L53 628 L30 628 L30 702 L105 702 L104 632 L88 586 L88 586 Z M58 599 L79 599 L91 635 L91 689 L43 689 L43 641 L72 641 L58 599 L58 599 Z M112 557 L1 557 L15 606 L0 606 L0 733 L134 733 L134 629 L112 557 L112 557 Z M19 570 L102 570 L121 632 L121 720 L13 720 L13 619 L33 619 L19 570 L19 570 Z M88 586 L40 586 L53 628 L30 628 L30 702 L105 702 L104 632 L88 586 L88 586 Z M58 599 L79 599 L91 635 L91 689 L43 689 L43 641 L72 641 L58 599 L58 599 Z M263 557 L153 557 L167 606 L152 606 L152 733 L286 733 L286 629 L263 557 L263 557 Z M170 570 L254 570 L273 632 L273 720 L165 720 L165 619 L184 619 L170 570 L170 570 Z M263 557 L153 557 L167 606 L152 606 L152 733 L286 733 L286 629 L263 557 L263 557 Z M170 570 L254 570 L273 632 L273 720 L165 720 L165 619 L184 619 L170 570 L170 570 Z M263 557 L153 557 L167 606 L152 606 L152 733 L286 733 L286 629 L263 557 L263 557 Z M170 570 L254 570 L273 632 L273 720 L165 720 L165 619 L184 619 L170 570 L170 570 Z M240 586 L191 586 L205 628 L182 628 L182 702 L256 702 L256 632 L240 586 L240 586 Z M209 599 L230 599 L243 635 L243 689 L195 689 L195 641 L223 641 L209 599 L209 599 Z M263 557 L153 557 L167 606 L152 606 L152 733 L286 733 L286 629 L263 557 L263 557 Z M170 570 L254 570 L273 632 L273 720 L165 720 L165 619 L184 619 L170 570 L170 570 Z M240 586 L191 586 L205 628 L182 628 L182 702 L256 702 L256 632 L240 586 L240 586 Z M209 599 L230 599 L243 635 L243 689 L195 689 L195 641 L223 641 L209 599 L209 599 Z " />
<glyph glyph-name="quotedblright" unicode="&#x201d;" horiz-adv-x="375" d="M112 557 L1 557 L15 606 L0 606 L0 733 L134 733 L134 629 L112 557 L112 557 Z M19 570 L102 570 L121 632 L121 720 L13 720 L13 619 L33 619 L19 570 L19 570 Z M112 557 L1 557 L15 606 L0 606 L0 733 L134 733 L134 629 L112 557 L112 557 Z M19 570 L102 570 L121 632 L121 720 L13 720 L13 619 L33 619 L19 570 L19 570 Z M88 586 L40 586 L53 628 L30 628 L30 702 L105 702 L104 632 L88 586 L88 586 Z M58 599 L79 599 L91 635 L91 689 L43 689 L43 641 L72 641 L58 599 L58 599 Z M112 557 L1 557 L15 606 L0 606 L0 733 L134 733 L134 629 L112 557 L112 557 Z M19 570 L102 570 L121 632 L121 720 L13 720 L13 619 L33 619 L19 570 L19 570 Z M88 586 L40 586 L53 628 L30 628 L30 702 L105 702 L104 632 L88 586 L88 586 Z M58 599 L79 599 L91 635 L91 689 L43 689 L43 641 L72 641 L58 599 L58 599 Z M263 557 L153 557 L167 606 L152 606 L152 733 L286 733 L286 629 L263 557 L263 557 Z M170 570 L254 570 L273 632 L273 720 L165 720 L165 619 L184 619 L170 570 L170 570 Z M263 557 L153 557 L167 606 L152 606 L152 733 L286 733 L286 629 L263 557 L263 557 Z M170 570 L254 570 L273 632 L273 720 L165 720 L165 619 L184 619 L170 570 L170 570 Z M263 557 L153 557 L167 606 L152 606 L152 733 L286 733 L286 629 L263 557 L263 557 Z M170 570 L254 570 L273 632 L273 720 L165 720 L165 619 L184 619 L170 570 L170 570 Z M240 586 L191 586 L205 628 L182 628 L182 702 L256 702 L256 632 L240 586 L240 586 Z M209 599 L230 599 L243 635 L243 689 L195 689 L195 641 L223 641 L209 599 L209 599 Z M263 557 L153 557 L167 606 L152 606 L152 733 L286 733 L286 629 L263 557 L263 557 Z M170 570 L254 570 L273 632 L273 720 L165 720 L165 619 L184 619 L170 570 L170 570 Z M240 586 L191 586 L205 628 L182 628 L182 702 L256 702 L256 632 L240 586 L240 586 Z M209 599 L230 599 L243 635 L243 689 L195 689 L195 641 L223 641 L209 599 L209 599 Z " />
<glyph glyph-name="quotedblleft" unicode="&#x201c;" horiz-adv-x="388" d="M152 629 L152 733 L286 733 L286 606 L271 606 L285 557 L175 557 L152 629 L152 629 Z M254 619 L273 619 L273 720 L165 720 L165 632 L184 570 L268 570 L254 619 L254 619 Z M152 629 L152 733 L286 733 L286 606 L271 606 L285 557 L175 557 L152 629 L152 629 Z M254 619 L273 619 L273 720 L165 720 L165 632 L184 570 L268 570 L254 619 L254 619 Z M182 632 L182 702 L256 702 L256 628 L233 628 L247 586 L198 586 L182 632 L182 632 Z M214 641 L243 641 L243 689 L195 689 L195 635 L207 599 L228 599 L214 641 L214 641 Z M152 629 L152 733 L286 733 L286 606 L271 606 L285 557 L175 557 L152 629 L152 629 Z M254 619 L273 619 L273 720 L165 720 L165 632 L184 570 L268 570 L254 619 L254 619 Z M182 632 L182 702 L256 702 L256 628 L233 628 L247 586 L198 586 L182 632 L182 632 Z M214 641 L243 641 L243 689 L195 689 L195 635 L207 599 L228 599 L214 641 L214 641 Z M0 629 L0 733 L134 733 L134 606 L119 606 L133 557 L23 557 L0 629 L0 629 Z M102 619 L121 619 L121 720 L13 720 L13 632 L32 570 L116 570 L102 619 L102 619 Z M0 629 L0 733 L134 733 L134 606 L119 606 L133 557 L23 557 L0 629 L0 629 Z M102 619 L121 619 L121 720 L13 720 L13 632 L32 570 L116 570 L102 619 L102 619 Z M0 629 L0 733 L134 733 L134 606 L119 606 L133 557 L23 557 L0 629 L0 629 Z M102 619 L121 619 L121 720 L13 720 L13 632 L32 570 L116 570 L102 619 L102 619 Z M30 632 L30 702 L105 702 L105 628 L81 628 L95 586 L46 586 L30 632 L30 632 Z M63 641 L91 641 L91 689 L43 689 L43 635 L56 599 L77 599 L63 641 L63 641 Z M0 629 L0 733 L134 733 L134 606 L119 606 L133 557 L23 557 L0 629 L0 629 Z M102 619 L121 619 L121 720 L13 720 L13 632 L32 570 L116 570 L102 619 L102 619 Z M30 632 L30 702 L105 702 L105 628 L81 628 L95 586 L46 586 L30 632 L30 632 Z M63 641 L91 641 L91 689 L43 689 L43 635 L56 599 L77 599 L63 641 L63 641 Z " />
<glyph glyph-name="quoteleft" unicode="&#x2018;" horiz-adv-x="245" d="M0 629 L0 733 L134 733 L134 606 L119 606 L133 557 L23 557 L0 629 L0 629 Z M102 619 L121 619 L121 720 L13 720 L13 632 L32 570 L116 570 L102 619 L102 619 Z M0 629 L0 733 L134 733 L134 606 L119 606 L133 557 L23 557 L0 629 L0 629 Z M102 619 L121 619 L121 720 L13 720 L13 632 L32 570 L116 570 L102 619 L102 619 Z M0 629 L0 733 L134 733 L134 606 L119 606 L133 557 L23 557 L0 629 L0 629 Z M102 619 L121 619 L121 720 L13 720 L13 632 L32 570 L116 570 L102 619 L102 619 Z M30 632 L30 702 L105 702 L105 628 L81 628 L95 586 L46 586 L30 632 L30 632 Z M63 641 L91 641 L91 689 L43 689 L43 635 L56 599 L77 599 L63 641 L63 641 Z M0 629 L0 733 L134 733 L134 606 L119 606 L133 557 L23 557 L0 629 L0 629 Z M102 619 L121 619 L121 720 L13 720 L13 632 L32 570 L116 570 L102 619 L102 619 Z M30 632 L30 702 L105 702 L105 628 L81 628 L95 586 L46 586 L30 632 L30 632 Z M63 641 L91 641 L91 689 L43 689 L43 635 L56 599 L77 599 L63 641 L63 641 Z " />
<glyph glyph-name="quoteright" unicode="&#x2019;" horiz-adv-x="219" d="M112 557 L1 557 L15 606 L0 606 L0 733 L134 733 L134 629 L112 557 L112 557 Z M19 570 L102 570 L121 632 L121 720 L13 720 L13 619 L33 619 L19 570 L19 570 Z M112 557 L1 557 L15 606 L0 606 L0 733 L134 733 L134 629 L112 557 L112 557 Z M19 570 L102 570 L121 632 L121 720 L13 720 L13 619 L33 619 L19 570 L19 570 Z M112 557 L1 557 L15 606 L0 606 L0 733 L134 733 L134 629 L112 557 L112 557 Z M19 570 L102 570 L121 632 L121 720 L13 720 L13 619 L33 619 L19 570 L19 570 Z M88 586 L40 586 L53 628 L30 628 L30 702 L105 702 L104 632 L88 586 L88 586 Z M58 599 L79 599 L91 635 L91 689 L43 689 L43 641 L72 641 L58 599 L58 599 Z M112 557 L1 557 L15 606 L0 606 L0 733 L134 733 L134 629 L112 557 L112 557 Z M19 570 L102 570 L121 632 L121 720 L13 720 L13 619 L33 619 L19 570 L19 570 Z M88 586 L40 586 L53 628 L30 628 L30 702 L105 702 L104 632 L88 586 L88 586 Z M58 599 L79 599 L91 635 L91 689 L43 689 L43 641 L72 641 L58 599 L58 599 Z " />
<glyph glyph-name="quotesingle" unicode="&#x27;" horiz-adv-x="242" d="M112 557 L1 557 L15 606 L0 606 L0 733 L134 733 L134 629 L112 557 L112 557 Z M19 570 L102 570 L121 632 L121 720 L13 720 L13 619 L33 619 L19 570 L19 570 Z M112 557 L1 557 L15 606 L0 606 L0 733 L134 733 L134 629 L112 557 L112 557 Z M19 570 L102 570 L121 632 L121 720 L13 720 L13 619 L33 619 L19 570 L19 570 Z M112 557 L1 557 L15 606 L0 606 L0 733 L134 733 L134 629 L112 557 L112 557 Z M19 570 L102 570 L121 632 L121 720 L13 720 L13 619 L33 619 L19 570 L19 570 Z M88 586 L40 586 L53 628 L30 628 L30 702 L105 702 L104 632 L88 586 L88 586 Z M58 599 L79 599 L91 635 L91 689 L43 689 L43 641 L72 641 L58 599 L58 599 Z M112 557 L1 557 L15 606 L0 606 L0 733 L134 733 L134 629 L112 557 L112 557 Z M19 570 L102 570 L121 632 L121 720 L13 720 L13 619 L33 619 L19 570 L19 570 Z M88 586 L40 586 L53 628 L30 628 L30 702 L105 702 L104 632 L88 586 L88 586 Z M58 599 L79 599 L91 635 L91 689 L43 689 L43 641 L72 641 L58 599 L58 599 Z " />
<glyph glyph-name="quotesinglbase" unicode="&#x201a;" horiz-adv-x="219" d="M84 -17 L38 -17 L51 22 L29 22 L29 93 L100 93 L99 26 L84 -17 Z M55 -5 L75 -5 L87 29 L87 80 L41 80 L41 34 L69 34 L55 -5 Z M106 -45 L2 -45 L15 1 L1 1 L1 121 L128 121 L128 23 L106 -45 Z M18 -33 L97 -33 L116 26 L116 109 L13 109 L13 14 L32 14 L18 -33 Z " />
<glyph glyph-name="grave" unicode="&#x60;" horiz-adv-x="242" d="M66 582 L0 733 L136 733 L179 583 L66 582 L66 582 Z M20 720 L75 596 L162 596 L126 720 L20 720 L20 720 Z M85 612 L42 702 L114 702 L142 612 L85 612 L85 612 Z M63 689 L93 625 L124 625 L104 689 L63 689 L63 689 Z " />
<glyph glyph-name="bullet" unicode="&#x2022;" horiz-adv-x="310" d="M109 300 Q75 300 51 323.5 Q27 347 27 382 Q27 416 51 440 Q75 464 109 464 Q143 464 167 440 Q191 416 191 382 Q191 347 167 323.5 Q143 300 109 300 Z M109 454 Q79 454 58 433 Q37 412 37 382 Q37 352 58 331 Q79 310 109 310 Q139 310 160 331 Q181 352 181 382 Q181 412 160 433 Q139 454 109 454 Z M109 275 Q87 275 67.5 283.5 Q48 292 33.5 306.5 Q19 321 10.5 340.5 Q2 360 2 382 Q2 404 10.5 423.5 Q19 443 33.5 457.5 Q48 472 67.5 480.5 Q87 489 109 489 Q131 489 150.5 480.5 Q170 472 184.5 457.5 Q199 443 207.5 423.5 Q216 404 216 382 Q216 360 207.5 340.5 Q199 321 184.5 306.5 Q170 292 150.5 283.5 Q131 275 109 275 Z M109 479 Q89 479 71.5 471.5 Q54 464 40.5 450.5 Q27 437 19.5 419.5 Q12 402 12 382 Q12 362 19.5 344 Q27 326 40.5 313 Q54 300 71.5 292.5 Q89 285 109 285 Q129 285 146.5 292.5 Q164 300 177.5 313 Q191 326 198.5 344 Q206 362 206 382 Q206 402 198.5 419.5 Q191 437 177.5 450.5 Q164 464 146.5 471.5 Q129 479 109 479 Z " />
<glyph glyph-name="A" unicode="A" horiz-adv-x="1171" d="M593 397 L419 397 L504 555 L593 397 Z M504 528 L441 410 L571 410 L504 528 Z M892 145 L1018 145 L1018 1 L641 1 L641 145 L720 145 L652 266 L363 266 L298 145 L384 145 L384 1 L1 1 L1 145 L129 145 L195 266 L160 266 L160 410 L273 410 L370 589 L265 589 L265 733 L752 733 L752 589 L648 589 L892 145 Z M1005 13 L1005 132 L884 132 L627 601 L740 601 L740 720 L278 720 L278 601 L391 601 L281 398 L273 397 L173 397 L173 278 L216 278 L137 132 L14 132 L14 13 L371 13 L371 132 L277 132 L355 278 L660 278 L742 132 L654 132 L654 13 L1005 13 Z M586 625 L870 108 L981 108 L981 38 L678 38 L678 108 L783 108 L674 303 L341 303 L237 108 L347 108 L347 38 L38 38 L38 108 L151 108 L257 303 L197 303 L197 373 L295 373 L432 625 L302 625 L302 696 L715 696 L715 625 L586 625 Z M968 50 L968 96 L862 96 L564 638 L703 638 L703 683 L315 683 L315 638 L453 638 L303 360 L210 360 L210 315 L278 315 L159 96 L51 96 L51 50 L334 50 L334 96 L215 96 L333 315 L681 315 L805 96 L691 96 L691 50 L968 50 Z M358 360 L503 631 L656 360 L358 360 Z M634 373 L504 605 L379 373 L634 373 Z " />
<glyph glyph-name="a" unicode="a" horiz-adv-x="1153" d="M593 397 L419 397 L504 555 L593 397 Z M504 528 L441 410 L571 410 L504 528 Z M892 145 L1018 145 L1018 1 L641 1 L641 145 L720 145 L652 266 L363 266 L298 145 L384 145 L384 1 L1 1 L1 145 L129 145 L195 266 L160 266 L160 410 L273 410 L370 589 L265 589 L265 733 L752 733 L752 589 L648 589 L892 145 Z M1005 13 L1005 132 L884 132 L627 601 L740 601 L740 720 L278 720 L278 601 L391 601 L281 398 L273 397 L173 397 L173 278 L216 278 L137 132 L14 132 L14 13 L371 13 L371 132 L277 132 L355 278 L660 278 L742 132 L654 132 L654 13 L1005 13 Z M586 625 L870 108 L981 108 L981 38 L678 38 L678 108 L783 108 L674 303 L341 303 L237 108 L347 108 L347 38 L38 38 L38 108 L151 108 L257 303 L197 303 L197 373 L295 373 L432 625 L302 625 L302 696 L715 696 L715 625 L586 625 Z M968 50 L968 96 L862 96 L564 638 L703 638 L703 683 L315 683 L315 638 L453 638 L303 360 L210 360 L210 315 L278 315 L159 96 L51 96 L51 50 L334 50 L334 96 L215 96 L333 315 L681 315 L805 96 L691 96 L691 50 L968 50 Z M358 360 L503 631 L656 360 L358 360 Z M634 373 L504 605 L379 373 L634 373 Z " />
<glyph glyph-name="B" unicode="B" horiz-adv-x="898" d="M413 359 Q423 359 445 358 Q467 357 494.5 352.5 Q522 348 550.5 340 Q579 332 603 317 Q627 302 642 279.5 Q657 257 657 225 Q657 193 641 171 Q625 149 601 134.5 Q577 120 548.5 112.5 Q520 105 495 101 Q470 97 452.5 96.5 Q435 96 433 96 L246 96 L246 359 L407 359 L413 359 Z M542 124 Q644 153 644 225 Q644 254 629.5 274 Q615 294 592.5 307.5 Q570 321 543 328.5 Q516 336 490.5 340 Q465 344 444 345 Q423 346 413 346 L407 346 L258 346 L258 108 L433 108 Q434 108 443.5 108.5 Q453 109 468.5 110.5 Q484 112 503 115 Q522 118 542 124 Z M603 566 Q607 558 609 548 Q611 540 611 528.5 Q611 517 609 503 Q603 479 586 462 Q569 445 547.5 434 Q526 423 502 417 Q478 411 457.5 408 Q437 405 423 404.5 Q409 404 407 404 L246 404 L246 638 L433 638 L434 638 Q435 638 436 638.5 Q437 639 439 639 Q451 639 474 637 Q497 635 522 627.5 Q547 620 569.5 605.5 Q592 591 603 566 Z M596 506 Q598 516 598 525.5 Q598 535 596 543 Q594 552 592 560 Q582 583 561 596 Q540 609 516.5 616 Q493 623 471.5 624.5 Q450 626 439 626 L433 626 L258 626 L258 417 L407 417 Q407 417 420 417.5 Q433 418 452 420.5 Q471 423 494 428.5 Q517 434 538 444 Q559 454 575 469 Q591 484 596 506 Z M569 387 Q729 347 729 229 Q729 218 727 203.5 Q725 189 718.5 172.5 Q712 156 700 138.5 Q688 121 669 105 Q593 41 439 38 L433 38 L37 38 L37 108 L174 108 L174 626 L37 626 L37 696 L433 696 Q518 694 567.5 674.5 Q617 655 643 628 Q669 601 676.5 573 Q684 545 684 526 Q684 428 569 387 Z M433 51 Q484 52 535 61.5 Q586 71 626 92 Q666 113 691 147 Q716 181 716 229 Q716 286 673 324 Q630 362 547 379 L542 380 L542 392 L547 394 Q671 430 671 526 Q671 543 664 569 Q657 595 632.5 620 Q608 645 561 663 Q514 681 433 683 L50 684 L50 638 L186 638 L186 96 L50 96 L50 51 L426 51 L433 51 Z M413 322 Q415 322 431.5 321.5 Q448 321 471 318 Q494 315 520 309.5 Q546 304 568.5 293 Q591 282 605.5 265.5 Q620 249 620 225 Q620 169 525 144 Q508 139 491.5 137 Q475 135 462 134 Q447 133 433 133 L283 133 L283 322 L413 322 Z M433 145 Q434 145 447 145.5 Q460 146 479 148.5 Q498 151 520.5 156 Q543 161 562.5 170 Q582 179 594.5 192.5 Q607 206 607 225 Q607 277 515 298 Q497 302 479 304.5 Q461 307 446.5 308 Q432 309 423 309 Q414 309 413 309 L295 309 L295 145 L433 145 Z M570 551 Q572 545 573 539 Q574 534 574.5 527 Q575 520 573 512 Q568 491 547 477 Q526 463 499.5 455 Q473 447 447.5 444 Q422 441 407 441 L289 441 L283 441 L283 602 L440 602 Q459 602 479.5 599 Q500 596 518 590 Q536 584 550 574.5 Q564 565 570 551 Z M560 515 Q562 520 561.5 525.5 Q561 531 560 536 Q559 541 558 546 Q553 557 541 565 Q529 573 512.5 578.5 Q496 584 477 586.5 Q458 589 440 589 L435 589 L295 589 L295 454 L407 454 Q423 454 447.5 457 Q472 460 496 467.5 Q520 475 538 486.5 Q556 498 560 515 Z M658 394 Q693 376 714 353.5 Q735 331 746.5 308.5 Q758 286 762 265 Q766 244 766 229 Q766 220 763.5 201.5 Q761 183 752 159.5 Q743 136 724.5 110 Q706 84 674 62 Q642 40 593.5 24 Q545 8 476 3 L476 1 L433 1 L0 1 L0 145 L137 145 L137 589 L0 589 L0 733 L433 733 Q500 731 547 718.5 Q594 706 626 687 Q658 668 676.5 644.5 Q695 621 705 599 Q715 577 717.5 557.5 Q720 538 720 526 Q720 497 708 461 Q696 425 658 394 Z M469 15 Q536 19 583.5 34.5 Q631 50 662.5 71 Q694 92 712 116 Q730 140 739 162.5 Q748 185 750.5 203 Q753 221 753 229 Q753 247 748.5 267.5 Q744 288 732 309 Q720 330 698.5 350 Q677 370 643 387 L633 391 L642 398 Q708 444 708 526 Q708 537 705.5 555 Q703 573 693.5 594.5 Q684 616 666 637.5 Q648 659 617.5 677 Q587 695 542 706.5 Q497 718 433 720 L13 721 L13 602 L149 602 L149 133 L13 133 L13 14 L433 14 L463 14 L463 15 L469 15 Z " />
<glyph glyph-name="b" unicode="b" horiz-adv-x="890" d="M413 359 Q423 359 445 358 Q467 357 494.5 352.5 Q522 348 550.5 340 Q579 332 603 317 Q627 302 642 279.5 Q657 257 657 225 Q657 193 641 171 Q625 149 601 134.5 Q577 120 548.5 112.5 Q520 105 495 101 Q470 97 452.5 96.5 Q435 96 433 96 L246 96 L246 359 L407 359 L413 359 Z M542 124 Q644 153 644 225 Q644 254 629.5 274 Q615 294 592.5 307.5 Q570 321 543 328.5 Q516 336 490.5 340 Q465 344 444 345 Q423 346 413 346 L407 346 L258 346 L258 108 L433 108 Q434 108 443.5 108.5 Q453 109 468.5 110.5 Q484 112 503 115 Q522 118 542 124 Z M603 566 Q607 558 609 548 Q611 540 611 528.5 Q611 517 609 503 Q603 479 586 462 Q569 445 547.5 434 Q526 423 502 417 Q478 411 457.5 408 Q437 405 423 404.5 Q409 404 407 404 L246 404 L246 638 L433 638 L434 638 Q435 638 436 638.5 Q437 639 439 639 Q451 639 474 637 Q497 635 522 627.5 Q547 620 569.5 605.5 Q592 591 603 566 Z M596 506 Q598 516 598 525.5 Q598 535 596 543 Q594 552 592 560 Q582 583 561 596 Q540 609 516.5 616 Q493 623 471.5 624.5 Q450 626 439 626 L433 626 L258 626 L258 417 L407 417 Q407 417 420 417.5 Q433 418 452 420.5 Q471 423 494 428.5 Q517 434 538 444 Q559 454 575 469 Q591 484 596 506 Z M569 387 Q729 347 729 229 Q729 218 727 203.5 Q725 189 718.5 172.5 Q712 156 700 138.5 Q688 121 669 105 Q593 41 439 38 L433 38 L37 38 L37 108 L174 108 L174 626 L37 626 L37 696 L433 696 Q518 694 567.5 674.5 Q617 655 643 628 Q669 601 676.5 573 Q684 545 684 526 Q684 428 569 387 Z M433 51 Q484 52 535 61.5 Q586 71 626 92 Q666 113 691 147 Q716 181 716 229 Q716 286 673 324 Q630 362 547 379 L542 380 L542 392 L547 394 Q671 430 671 526 Q671 543 664 569 Q657 595 632.5 620 Q608 645 561 663 Q514 681 433 683 L50 684 L50 638 L186 638 L186 96 L50 96 L50 51 L426 51 L433 51 Z M413 322 Q415 322 431.5 321.5 Q448 321 471 318 Q494 315 520 309.5 Q546 304 568.5 293 Q591 282 605.5 265.5 Q620 249 620 225 Q620 169 525 144 Q508 139 491.5 137 Q475 135 462 134 Q447 133 433 133 L283 133 L283 322 L413 322 Z M433 145 Q434 145 447 145.5 Q460 146 479 148.5 Q498 151 520.5 156 Q543 161 562.5 170 Q582 179 594.5 192.5 Q607 206 607 225 Q607 277 515 298 Q497 302 479 304.5 Q461 307 446.5 308 Q432 309 423 309 Q414 309 413 309 L295 309 L295 145 L433 145 Z M570 551 Q572 545 573 539 Q574 534 574.5 527 Q575 520 573 512 Q568 491 547 477 Q526 463 499.5 455 Q473 447 447.5 444 Q422 441 407 441 L289 441 L283 441 L283 602 L440 602 Q459 602 479.5 599 Q500 596 518 590 Q536 584 550 574.5 Q564 565 570 551 Z M560 515 Q562 520 561.5 525.5 Q561 531 560 536 Q559 541 558 546 Q553 557 541 565 Q529 573 512.5 578.5 Q496 584 477 586.5 Q458 589 440 589 L435 589 L295 589 L295 454 L407 454 Q423 454 447.5 457 Q472 460 496 467.5 Q520 475 538 486.5 Q556 498 560 515 Z M658 394 Q693 376 714 353.5 Q735 331 746.5 308.5 Q758 286 762 265 Q766 244 766 229 Q766 220 763.5 201.5 Q761 183 752 159.5 Q743 136 724.5 110 Q706 84 674 62 Q642 40 593.5 24 Q545 8 476 3 L476 1 L433 1 L0 1 L0 145 L137 145 L137 589 L0 589 L0 733 L433 733 Q500 731 547 718.5 Q594 706 626 687 Q658 668 676.5 644.5 Q695 621 705 599 Q715 577 717.5 557.5 Q720 538 720 526 Q720 497 708 461 Q696 425 658 394 Z M469 15 Q536 19 583.5 34.5 Q631 50 662.5 71 Q694 92 712 116 Q730 140 739 162.5 Q748 185 750.5 203 Q753 221 753 229 Q753 247 748.5 267.5 Q744 288 732 309 Q720 330 698.5 350 Q677 370 643 387 L633 391 L642 398 Q708 444 708 526 Q708 537 705.5 555 Q703 573 693.5 594.5 Q684 616 666 637.5 Q648 659 617.5 677 Q587 695 542 706.5 Q497 718 433 720 L13 721 L13 602 L149 602 L149 133 L13 133 L13 14 L433 14 L463 14 L463 15 L469 15 Z " />
</font>
</svg>
