<?xml version="1.0" encoding="UTF-8"?>
<svg xmlns="http://www.w3.org/2000/svg" xmlns:xlink="http://www.w3.org/1999/xlink" version="1.2" >
<font id="AnsleyDisplay-Black">
<font-face  font-family="Ansley Display" units-per-em="1000" ascent="750" descent="-250" font-style="normal" font-weight="400" font-stretch="normal" cap-height="733" x-height="527" underline-position="-75" underline-thickness="50" />
<missing-glyph  horiz-adv-x="500" d="" />
<glyph glyph-name="NULL" d="" />
<glyph glyph-name="nonmarkingreturn" unicode="&#xd;" horiz-adv-x="500" d="" />
<glyph glyph-name="space" unicode="&#x20;" horiz-adv-x="500" d="" />
<glyph glyph-name="b" unicode="b" horiz-adv-x="880" d="M652 392 Q689 374 712 352.5 Q735 331 747.5 308.5 Q760 286 764 264 Q768 242 768 225 Q768 216 765.5 197.5 Q763 179 754 156 Q745 133 727 107.5 Q709 82 677 60 Q645 38 597 22 Q549 6 481 1 Q478 0 474.5 0 Q471 0 468 0 L462 0 L435 0 L1 0 L1 134 L140 134 L140 599 L1 599 L1 733 L436 733 Q502 731 549 718.5 Q596 706 628 687 Q660 668 678.5 645.5 Q697 623 706.5 601 Q716 579 719 559.5 Q722 540 722 529 Q722 497 708 460 Q694 423 652 392 Z M289 448 L409 448 Q427 448 453 451.5 Q479 455 504 463 Q529 471 548 483.5 Q567 496 572 515 Q573 520 573 522.5 Q573 525 573 528 Q573 530 572.5 532 Q572 534 572 536 L572 541 L571 542 L572 542 Q571 542 570.5 545.5 Q570 549 569 551 Q563 564 549.5 573 Q536 582 518 588 Q500 594 480 596.5 Q460 599 442 599 L437 599 L289 599 L289 448 Z M435 134 Q436 134 449.5 134.5 Q463 135 483.5 138 Q504 141 527.5 146.5 Q551 152 571.5 161.5 Q592 171 605.5 186 Q619 201 619 222 Q619 245 604.5 260.5 Q590 276 568 286.5 Q546 297 520.5 302.5 Q495 308 472.5 310.5 Q450 313 434 313.5 Q418 314 416 314 L289 314 L289 134 L435 134 Z " />
<glyph glyph-name="C" unicode="C" horiz-adv-x="945" d="M856 276 L843 240 Q798 117 693 52 Q588 -13 435 -13 Q337 -13 257 14.5 Q177 42 120 91.5 Q63 141 31.5 210.5 Q0 280 0 365 Q0 434 25.5 502 Q51 570 103.5 624.5 Q156 679 237 712.5 Q318 746 428 746 Q497 746 560.5 729 Q624 712 676 680 L676 733 L819 733 L819 440 L683 440 L676 475 Q669 508 645 534 Q621 560 586.5 577 Q552 594 511.5 603 Q471 612 432 612 Q370 612 318.5 594.5 Q267 577 230.5 545 Q194 513 174 468 Q154 423 154 369 Q154 313 174.5 267.5 Q195 222 232 189.5 Q269 157 321.5 139 Q374 121 437 121 Q538 121 604 163 Q670 205 709 295 L727 338 L856 276 Z " />
<glyph glyph-name="c" unicode="c" horiz-adv-x="965" d="M856 276 L843 240 Q798 117 693 52 Q588 -13 435 -13 Q337 -13 257 14.5 Q177 42 120 91.5 Q63 141 31.5 210.5 Q0 280 0 365 Q0 434 25.5 502 Q51 570 103.5 624.5 Q156 679 237 712.5 Q318 746 428 746 Q497 746 560.5 729 Q624 712 676 680 L676 733 L819 733 L819 440 L683 440 L676 475 Q669 508 645 534 Q621 560 586.5 577 Q552 594 511.5 603 Q471 612 432 612 Q370 612 318.5 594.5 Q267 577 230.5 545 Q194 513 174 468 Q154 423 154 369 Q154 313 174.5 267.5 Q195 222 232 189.5 Q269 157 321.5 139 Q374 121 437 121 Q538 121 604 163 Q670 205 709 295 L727 338 L856 276 Z " />
<glyph glyph-name="D" unicode="D" horiz-adv-x="1030" d="M789 641 Q856 592 892.5 522 Q929 452 929 373 Q929 284 892 211.5 Q855 139 783 85 Q750 63 704 45 Q665 30 607 16.5 Q549 3 472 0 L0 0 L0 134 L123 134 L123 599 L0 599 L0 733 L472 733 Q550 733 609 718.5 Q668 704 708 687 Q755 667 789 641 Z M434 134 Q438 134 462.5 135 Q487 136 521.5 141.5 Q556 147 597 158.5 Q638 170 674.5 191 Q711 212 739 244 Q767 276 776 322 Q778 330 778 334 L779 341 Q780 348 780.5 354.5 Q781 361 781 369 Q781 426 756 465 Q731 504 693.5 529.5 Q656 555 612.5 569 Q569 583 530.5 589.5 Q492 596 465 597.5 Q438 599 435 599 L272 599 L272 134 L434 134 Z " />
<glyph glyph-name="d" unicode="d" horiz-adv-x="1057" d="M789 641 Q856 592 892.5 522 Q929 452 929 373 Q929 284 892 211.5 Q855 139 783 85 Q750 63 704 45 Q665 30 607 16.5 Q549 3 472 0 L0 0 L0 134 L123 134 L123 599 L0 599 L0 733 L472 733 Q550 733 609 718.5 Q668 704 708 687 Q755 667 789 641 Z M434 134 Q438 134 462.5 135 Q487 136 521.5 141.5 Q556 147 597 158.5 Q638 170 674.5 191 Q711 212 739 244 Q767 276 776 322 Q778 330 778 334 L779 341 Q780 348 780.5 354.5 Q781 361 781 369 Q781 426 756 465 Q731 504 693.5 529.5 Q656 555 612.5 569 Q569 583 530.5 589.5 Q492 596 465 597.5 Q438 599 435 599 L272 599 L272 134 L434 134 Z " />
<glyph glyph-name="E" unicode="E" horiz-adv-x="947" d="M827 498 L688 498 L688 599 L273 599 L273 442 L593 442 L593 308 L273 308 L273 134 L688 134 L688 237 L827 237 L827 0 L0 0 L0 134 L120 134 L120 307 L48 307 L48 442 L120 442 L120 599 L0 599 L0 733 L827 733 L827 498 L827 498 Z " />
<glyph glyph-name="e" unicode="e" horiz-adv-x="947" d="M827 498 L688 498 L688 599 L273 599 L273 442 L593 442 L593 308 L273 308 L273 134 L688 134 L688 237 L827 237 L827 0 L0 0 L0 134 L120 134 L120 307 L48 307 L48 442 L120 442 L120 599 L0 599 L0 733 L827 733 L827 498 L827 498 Z " />
<glyph glyph-name="F" unicode="F" horiz-adv-x="893" d="M0 733 L791 733 L791 497 L654 497 L654 599 L275 599 L275 442 L572 442 L572 308 L275 308 L275 134 L400 134 L400 0 L0 0 L0 134 L122 134 L122 307 L50 307 L50 442 L122 442 L122 599 L0 599 L0 733 L0 733 Z " />
<glyph glyph-name="f" unicode="f" horiz-adv-x="916" d="M0 733 L791 733 L791 497 L654 497 L654 599 L275 599 L275 442 L572 442 L572 308 L275 308 L275 134 L400 134 L400 0 L0 0 L0 134 L122 134 L122 307 L50 307 L50 442 L122 442 L122 599 L0 599 L0 733 L0 733 Z " />
<glyph glyph-name="G" unicode="G" horiz-adv-x="1067" d="M987 -3 L987 -143 L949 -143 Q873 -143 829 -97 Q812 -79 802.5 -59 Q793 -39 789 -21.5 Q785 -4 784.5 8.5 Q784 21 784 24 L784 33 Q724 4 651 -12 Q578 -28 497 -28 Q393 -28 302.5 -1.5 Q212 25 145 75 Q74 127 37 198 Q0 269 0 351 Q0 432 36 502.5 Q72 573 141 627 Q207 678 294.5 705 Q382 732 481 732 Q568 732 645 711 Q722 690 784 651 L784 718 L924 718 L924 425 L795 425 L787 450 Q776 483 747 511 Q718 539 677.5 559.5 Q637 580 587.5 591.5 Q538 603 484 603 Q412 603 351.5 584.5 Q291 566 247 532.5 Q203 499 178.5 453.5 Q154 408 154 354 Q154 298 179.5 251.5 Q205 205 250.5 171.5 Q296 138 359 119.5 Q422 101 498 101 Q536 101 577 107 Q618 113 656.5 125.5 Q695 138 728 157.5 Q761 177 784 203 L784 226 L510 226 L510 366 L924 366 L924 23 Q924 18 926.5 10 Q929 2 937 -1 L939 -2 Q943 -3 949 -3 L987 -3 Z " />
<glyph glyph-name="g" unicode="g" horiz-adv-x="1083" d="M987 -3 L987 -143 L949 -143 Q873 -143 829 -97 Q812 -79 802.5 -59 Q793 -39 789 -21.5 Q785 -4 784.5 8.5 Q784 21 784 24 L784 33 Q724 4 651 -12 Q578 -28 497 -28 Q393 -28 302.5 -1.5 Q212 25 145 75 Q74 127 37 198 Q0 269 0 351 Q0 432 36 502.5 Q72 573 141 627 Q207 678 294.5 705 Q382 732 481 732 Q568 732 645 711 Q722 690 784 651 L784 718 L924 718 L924 425 L795 425 L787 450 Q776 483 747 511 Q718 539 677.5 559.5 Q637 580 587.5 591.5 Q538 603 484 603 Q412 603 351.5 584.5 Q291 566 247 532.5 Q203 499 178.5 453.5 Q154 408 154 354 Q154 298 179.5 251.5 Q205 205 250.5 171.5 Q296 138 359 119.5 Q422 101 498 101 Q536 101 577 107 Q618 113 656.5 125.5 Q695 138 728 157.5 Q761 177 784 203 L784 226 L510 226 L510 366 L924 366 L924 23 Q924 18 926.5 10 Q929 2 937 -1 L939 -2 Q943 -3 949 -3 L987 -3 Z " />
<glyph glyph-name="h" unicode="h" horiz-adv-x="1064" d="M943 599 L827 599 L827 134 L943 134 L943 0 L561 0 L561 134 L678 134 L678 299 L267 299 L267 134 L383 134 L383 0 L1 0 L1 134 L118 134 L118 599 L1 599 L1 733 L383 733 L383 599 L267 599 L267 434 L678 434 L678 599 L561 599 L561 733 L943 733 L943 599 L943 599 Z " />
<glyph glyph-name="H" unicode="H" horiz-adv-x="1038" d="M943 599 L827 599 L827 134 L943 134 L943 0 L561 0 L561 134 L678 134 L678 299 L267 299 L267 134 L383 134 L383 0 L1 0 L1 134 L118 134 L118 599 L1 599 L1 733 L383 733 L383 599 L267 599 L267 434 L678 434 L678 599 L561 599 L561 733 L943 733 L943 599 L943 599 Z " />
<glyph glyph-name="I" unicode="I" horiz-adv-x="497" d="M382 599 L265 599 L265 134 L382 134 L382 0 L0 0 L0 134 L116 134 L116 599 L0 599 L0 733 L382 733 L382 599 L382 599 Z " />
<glyph glyph-name="i" unicode="i" horiz-adv-x="507" d="M382 599 L265 599 L265 134 L382 134 L382 0 L0 0 L0 134 L116 134 L116 599 L0 599 L0 733 L382 733 L382 599 L382 599 Z " />
<glyph glyph-name="J" unicode="J" horiz-adv-x="484" d="M382 733 L382 599 L265 599 L265 7 Q265 -15 257.5 -34 Q250 -53 241 -67 Q230 -84 218 -97 Q170 -148 83 -148 L45 -148 L45 0 L83 0 Q101 0 109 8 Q117 18 117 29 L117 599 L0 599 L0 733 L382 733 Z " />
<glyph glyph-name="j" unicode="j" horiz-adv-x="494" d="M382 733 L382 599 L265 599 L265 7 Q265 -15 257.5 -34 Q250 -53 241 -67 Q230 -84 218 -97 Q170 -148 83 -148 L45 -148 L45 0 L83 0 Q101 0 109 8 Q117 18 117 29 L117 599 L0 599 L0 733 L382 733 Z " />
<glyph glyph-name="K" unicode="K" horiz-adv-x="1007" d="M732 134 L888 134 L888 0 L506 0 L506 134 L545 134 L328 338 L265 296 L265 134 L382 134 L382 0 L0 0 L0 134 L117 134 L117 599 L0 599 L0 733 L382 733 L382 599 L265 599 L265 451 L487 599 L448 599 L448 733 L830 733 L830 598 L711 598 L436 411 L732 134 L732 134 Z " />
<glyph glyph-name="k" unicode="k" horiz-adv-x="1028" d="M732 134 L888 134 L888 0 L506 0 L506 134 L545 134 L328 338 L265 296 L265 134 L382 134 L382 0 L0 0 L0 134 L117 134 L117 599 L0 599 L0 733 L382 733 L382 599 L265 599 L265 451 L487 599 L448 599 L448 733 L830 733 L830 598 L711 598 L436 411 L732 134 L732 134 Z " />
<glyph glyph-name="L" unicode="L" horiz-adv-x="903" d="M634 238 L778 238 L778 0 L0 0 L0 134 L118 134 L118 599 L0 599 L0 733 L382 733 L382 599 L266 599 L266 134 L634 134 L634 238 L634 238 Z " />
<glyph glyph-name="l" unicode="l" horiz-adv-x="898" d="M634 238 L778 238 L778 0 L0 0 L0 134 L118 134 L118 599 L0 599 L0 733 L382 733 L382 599 L266 599 L266 134 L634 134 L634 238 L634 238 Z " />
<glyph glyph-name="M" unicode="M" horiz-adv-x="1254" d="M1130 599 L1011 599 L1011 134 L1130 134 L1130 0 L748 0 L748 134 L866 134 L866 533 L591 75 L535 75 L264 531 L264 134 L383 134 L383 0 L1 0 L1 134 L119 134 L119 599 L1 599 L1 733 L296 732 L563 288 L839 732 L1130 733 L1130 599 L1130 599 Z " />
<glyph glyph-name="m" unicode="m" horiz-adv-x="1267" d="M1130 599 L1011 599 L1011 134 L1130 134 L1130 0 L748 0 L748 134 L866 134 L866 533 L591 75 L535 75 L264 531 L264 134 L383 134 L383 0 L1 0 L1 134 L119 134 L119 599 L1 599 L1 733 L296 732 L563 288 L839 732 L1130 733 L1130 599 L1130 599 Z " />
<glyph glyph-name="N" unicode="N" horiz-adv-x="1093" d="M603 733 L985 733 L985 599 L862 599 L862 0 L740 0 L257 538 L257 134 L383 134 L383 0 L1 0 L1 134 L121 134 L121 599 L1 599 L1 733 L266 733 L725 212 L725 599 L603 599 L603 733 L603 733 Z " />
<glyph glyph-name="n" unicode="n" horiz-adv-x="1085" d="M603 733 L985 733 L985 599 L862 599 L862 0 L740 0 L257 538 L257 134 L383 134 L383 0 L1 0 L1 134 L121 134 L121 599 L1 599 L1 733 L266 733 L725 212 L725 599 L603 599 L603 733 L603 733 Z " />
<glyph glyph-name="O" unicode="O" horiz-adv-x="1083" d="M484 746 Q589 746 677.5 717.5 Q766 689 830.5 638.5 Q895 588 931 518 Q967 448 967 366 Q967 285 931 215.5 Q895 146 831.5 95.5 Q768 45 681 16 Q594 -13 493 -13 Q384 -13 293.5 15 Q203 43 137.5 93 Q72 143 36 212.5 Q0 282 0 366 Q0 448 36 518 Q72 588 136.5 638.5 Q201 689 290 717.5 Q379 746 484 746 Z M484 617 Q412 617 351.5 598.5 Q291 580 247 546.5 Q203 513 178.5 467 Q154 421 154 366 Q154 312 178.5 266 Q203 220 247 186.5 Q291 153 351.5 134.5 Q412 116 484 116 Q556 116 616 134.5 Q676 153 720 186.5 Q764 220 788.5 266 Q813 312 813 366 Q813 421 788.5 467 Q764 513 720 546.5 Q676 580 616 598.5 Q556 617 484 617 Z " />
<glyph glyph-name="o" unicode="o" horiz-adv-x="1070" d="M484 746 Q589 746 677.5 717.5 Q766 689 830.5 638.5 Q895 588 931 518 Q967 448 967 366 Q967 285 931 215.5 Q895 146 831.5 95.5 Q768 45 681 16 Q594 -13 493 -13 Q384 -13 293.5 15 Q203 43 137.5 93 Q72 143 36 212.5 Q0 282 0 366 Q0 448 36 518 Q72 588 136.5 638.5 Q201 689 290 717.5 Q379 746 484 746 Z M484 617 Q412 617 351.5 598.5 Q291 580 247 546.5 Q203 513 178.5 467 Q154 421 154 366 Q154 312 178.5 266 Q203 220 247 186.5 Q291 153 351.5 134.5 Q412 116 484 116 Q556 116 616 134.5 Q676 153 720 186.5 Q764 220 788.5 266 Q813 312 813 366 Q813 421 788.5 467 Q764 513 720 546.5 Q676 580 616 598.5 Q556 617 484 617 Z " />
<glyph glyph-name="P" unicode="P" horiz-adv-x="864" d="M745 554 Q746 547 748 538 Q749 530 750 521 Q751 512 751 502 Q751 462 737 428 Q717 375 677 343.5 Q637 312 591.5 294.5 Q546 277 501 271 Q456 265 428 264 L265 264 L265 134 L382 134 L382 0 L0 0 L0 134 L116 134 L116 599 L0 599 L0 733 L421 733 Q511 733 570 715 Q629 697 666 670 Q703 643 720.5 611.5 Q738 580 745 554 Z M406 398 Q423 398 456 400.5 Q489 403 521 413.5 Q553 424 577.5 445 Q602 466 603 503 Q603 508 602.5 512.5 Q602 517 601 522 Q596 549 570 564.5 Q544 580 513.5 587.5 Q483 595 454.5 597 Q426 599 416 599 L399 599 L265 599 L265 398 L392 398 L406 398 Z " />
<glyph glyph-name="p" unicode="p" horiz-adv-x="854" d="M745 554 Q746 547 748 538 Q749 530 750 521 Q751 512 751 502 Q751 462 737 428 Q717 375 677 343.5 Q637 312 591.5 294.5 Q546 277 501 271 Q456 265 428 264 L265 264 L265 134 L382 134 L382 0 L0 0 L0 134 L116 134 L116 599 L0 599 L0 733 L421 733 Q511 733 570 715 Q629 697 666 670 Q703 643 720.5 611.5 Q738 580 745 554 Z M406 398 Q423 398 456 400.5 Q489 403 521 413.5 Q553 424 577.5 445 Q602 466 603 503 Q603 508 602.5 512.5 Q602 517 601 522 Q596 549 570 564.5 Q544 580 513.5 587.5 Q483 595 454.5 597 Q426 599 416 599 L399 599 L265 599 L265 398 L392 398 L406 398 Z " />
<glyph glyph-name="Q" unicode="Q" horiz-adv-x="1085" d="M871 130 Q875 127 888 127 L926 127 L926 -13 L888 -13 Q835 -13 803.5 5 Q772 23 755 46 Q640 -13 494 -13 Q385 -13 294.5 15 Q204 43 138.5 93 Q73 143 37 212.5 Q1 282 1 366 Q1 448 37 518 Q73 588 137.5 638.5 Q202 689 291 717.5 Q380 746 485 746 Q590 746 678.5 717.5 Q767 689 831.5 638.5 Q896 588 932.5 518 Q969 448 969 366 Q969 300 944 240 Q919 180 871 130 Z M485 617 Q413 617 352.5 598.5 Q292 580 248 546.5 Q204 513 179.5 467 Q155 421 155 366 Q155 312 179.5 266 Q204 220 248 186.5 Q292 153 352.5 134.5 Q413 116 485 116 Q579 116 654 148 L654 287 L692 287 Q724 287 747.5 280 Q771 273 788 262 Q815 310 815 366 Q815 421 790.5 467 Q766 513 722 546.5 Q678 580 617.5 598.5 Q557 617 485 617 Z " />
<glyph glyph-name="q" unicode="q" horiz-adv-x="1067" d="M871 130 Q875 127 888 127 L926 127 L926 -13 L888 -13 Q835 -13 803.5 5 Q772 23 755 46 Q640 -13 494 -13 Q385 -13 294.5 15 Q204 43 138.5 93 Q73 143 37 212.5 Q1 282 1 366 Q1 448 37 518 Q73 588 137.5 638.5 Q202 689 291 717.5 Q380 746 485 746 Q590 746 678.5 717.5 Q767 689 831.5 638.5 Q896 588 932.5 518 Q969 448 969 366 Q969 300 944 240 Q919 180 871 130 Z M485 617 Q413 617 352.5 598.5 Q292 580 248 546.5 Q204 513 179.5 467 Q155 421 155 366 Q155 312 179.5 266 Q204 220 248 186.5 Q292 153 352.5 134.5 Q413 116 485 116 Q579 116 654 148 L654 287 L692 287 Q724 287 747.5 280 Q771 273 788 262 Q815 310 815 366 Q815 421 790.5 467 Q766 513 722 546.5 Q678 580 617.5 598.5 Q557 617 485 617 Z " />
<glyph glyph-name="R" unicode="R" horiz-adv-x="968" d="M847 134 L847 0 L605 0 L409 321 L266 321 L266 134 L382 134 L382 0 L0 0 L0 134 L117 134 L117 324 L46 324 L46 458 L117 458 L117 599 L0 599 L0 733 L460 733 Q533 733 586 716 Q639 699 673.5 670.5 Q708 642 724.5 606 Q741 570 741 533 Q741 461 695 411 Q649 361 563 338 L688 134 L847 134 Z M266 455 L445 455 Q445 455 456 455.5 Q467 456 483.5 458.5 Q500 461 519 465.5 Q538 470 554 478.5 Q570 487 581 500 Q592 513 592 532 Q592 556 572 569.5 Q552 583 526.5 589.5 Q501 596 478.5 597.5 Q456 599 450 599 L446 599 L266 599 L266 455 Z " />
<glyph glyph-name="r" unicode="r" horiz-adv-x="950" d="M847 134 L847 0 L605 0 L409 321 L266 321 L266 134 L382 134 L382 0 L0 0 L0 134 L117 134 L117 324 L46 324 L46 458 L117 458 L117 599 L0 599 L0 733 L460 733 Q533 733 586 716 Q639 699 673.5 670.5 Q708 642 724.5 606 Q741 570 741 533 Q741 461 695 411 Q649 361 563 338 L688 134 L847 134 Z M266 455 L445 455 Q445 455 456 455.5 Q467 456 483.5 458.5 Q500 461 519 465.5 Q538 470 554 478.5 Q570 487 581 500 Q592 513 592 532 Q592 556 572 569.5 Q552 583 526.5 589.5 Q501 596 478.5 597.5 Q456 599 450 599 L446 599 L266 599 L266 455 Z " />
<glyph glyph-name="S" unicode="S" horiz-adv-x="770" d="M352 446 Q406 435 462.5 421.5 Q519 408 566 382.5 Q613 357 643 316 Q673 275 673 211 Q673 163 648.5 122 Q624 81 581 51 Q538 21 479.5 4 Q421 -13 352 -13 Q292 -13 238.5 0.5 Q185 14 142 39 L142 0 L1 0 L1 303 L142 303 L142 240 Q142 215 159 192.5 Q176 170 204.5 153 Q233 136 270.5 126 Q308 116 350 116 Q386 116 417 123.5 Q448 131 470.5 144 Q493 157 506 175 Q519 193 519 214 Q519 235 504.5 250 Q490 265 463 276.5 Q436 288 398 297.5 Q360 307 314 317 Q262 327 207 341 Q152 355 106.5 379.5 Q61 404 32 443 Q3 482 3 542 Q3 586 25.5 623.5 Q48 661 87.5 688 Q127 715 181.5 730 Q236 745 301 745 Q353 745 401.5 734.5 Q450 724 490 704 L490 732 L630 732 L630 476 L490 476 L490 531 Q490 543 475.5 558 Q461 573 435.5 586 Q410 599 374.5 608 Q339 617 298 617 Q264 617 237 610.5 Q210 604 191 593 Q172 582 162 568.5 Q152 555 152 542 Q152 522 166 508 Q180 494 206.5 483.5 Q233 473 270 464 Q307 455 352 446 Z " />
<glyph glyph-name="s" unicode="s" horiz-adv-x="773" d="M352 446 Q406 435 462.5 421.5 Q519 408 566 382.5 Q613 357 643 316 Q673 275 673 211 Q673 163 648.5 122 Q624 81 581 51 Q538 21 479.5 4 Q421 -13 352 -13 Q292 -13 238.5 0.5 Q185 14 142 39 L142 0 L1 0 L1 303 L142 303 L142 240 Q142 215 159 192.5 Q176 170 204.5 153 Q233 136 270.5 126 Q308 116 350 116 Q386 116 417 123.5 Q448 131 470.5 144 Q493 157 506 175 Q519 193 519 214 Q519 235 504.5 250 Q490 265 463 276.5 Q436 288 398 297.5 Q360 307 314 317 Q262 327 207 341 Q152 355 106.5 379.5 Q61 404 32 443 Q3 482 3 542 Q3 586 25.5 623.5 Q48 661 87.5 688 Q127 715 181.5 730 Q236 745 301 745 Q353 745 401.5 734.5 Q450 724 490 704 L490 732 L630 732 L630 476 L490 476 L490 531 Q490 543 475.5 558 Q461 573 435.5 586 Q410 599 374.5 608 Q339 617 298 617 Q264 617 237 610.5 Q210 604 191 593 Q172 582 162 568.5 Q152 555 152 542 Q152 522 166 508 Q180 494 206.5 483.5 Q233 473 270 464 Q307 455 352 446 Z " />
<glyph glyph-name="T" unicode="T" horiz-adv-x="913" d="M0 734 L783 734 L783 451 L648 451 L648 600 L466 600 L466 135 L582 135 L582 1 L200 1 L200 135 L317 135 L317 600 L135 600 L135 451 L0 451 L0 734 L0 734 Z " />
<glyph glyph-name="t" unicode="t" horiz-adv-x="900" d="M0 734 L783 734 L783 451 L648 451 L648 600 L466 600 L466 135 L582 135 L582 1 L200 1 L200 135 L317 135 L317 600 L135 600 L135 451 L0 451 L0 734 L0 734 Z " />
<glyph glyph-name="U" unicode="U" horiz-adv-x="1012" d="M918 734 L918 600 L801 600 L801 228 Q801 172 778 127.5 Q755 83 712 52 Q669 21 607 4.5 Q545 -12 466 -12 Q299 -12 207.5 50.5 Q116 113 116 228 L116 600 L0 600 L0 734 L382 734 L382 600 L265 600 L265 228 Q265 192 282.5 169 Q300 146 327.5 133 Q355 120 388.5 115.5 Q422 111 455 111 Q529 111 569.5 124.5 Q610 138 628.5 156.5 Q647 175 650 194.5 Q653 214 653 226 L653 600 L536 600 L536 734 L918 734 Z " />
<glyph glyph-name="u" unicode="u" horiz-adv-x="1020" d="M918 734 L918 600 L801 600 L801 228 Q801 172 778 127.5 Q755 83 712 52 Q669 21 607 4.5 Q545 -12 466 -12 Q299 -12 207.5 50.5 Q116 113 116 228 L116 600 L0 600 L0 734 L382 734 L382 600 L265 600 L265 228 Q265 192 282.5 169 Q300 146 327.5 133 Q355 120 388.5 115.5 Q422 111 455 111 Q529 111 569.5 124.5 Q610 138 628.5 156.5 Q647 175 650 194.5 Q653 214 653 226 L653 600 L536 600 L536 734 L918 734 Z " />
<glyph glyph-name="V" unicode="V" horiz-adv-x="1088" d="M623 733 L1005 733 L1005 599 L859 599 L559 0 L451 0 L141 599 L0 599 L0 733 L382 733 L382 599 L300 599 L510 197 L712 599 L623 599 L623 733 L623 733 Z " />
<glyph glyph-name="v" unicode="v" horiz-adv-x="1111" d="M623 733 L1005 733 L1005 599 L859 599 L559 0 L451 0 L141 599 L0 599 L0 733 L382 733 L382 599 L300 599 L510 197 L712 599 L623 599 L623 733 L623 733 Z " />
<glyph glyph-name="W" unicode="W" horiz-adv-x="1413" d="M964 733 L1336 733 L1336 599 L1205 599 L976 0 L869 0 L667 517 L479 0 L368 0 L131 599 L1 599 L1 733 L373 733 L373 599 L283 599 L428 217 L568 599 L473 599 L473 733 L868 733 L868 599 L775 599 L925 216 L1066 599 L964 599 L964 733 L964 733 Z " />
<glyph glyph-name="w" unicode="w" horiz-adv-x="1421" d="M964 733 L1336 733 L1336 599 L1205 599 L976 0 L869 0 L667 517 L479 0 L368 0 L131 599 L1 599 L1 733 L373 733 L373 599 L283 599 L428 217 L568 599 L473 599 L473 733 L868 733 L868 599 L775 599 L925 216 L1066 599 L964 599 L964 733 L964 733 Z " />
<glyph glyph-name="X" unicode="X" horiz-adv-x="1017" d="M893 599 L730 599 L537 377 L753 134 L893 134 L893 0 L503 0 L502 134 L567 134 L448 270 L329 134 L391 134 L391 0 L1 0 L1 134 L154 134 L360 368 L154 599 L1 599 L1 733 L391 733 L391 599 L340 599 L448 476 L557 599 L502 599 L502 733 L893 733 L893 599 L893 599 Z " />
<glyph glyph-name="x" unicode="x" horiz-adv-x="1025" d="M893 599 L730 599 L537 377 L753 134 L893 134 L893 0 L503 0 L502 134 L567 134 L448 270 L329 134 L391 134 L391 0 L1 0 L1 134 L154 134 L360 368 L154 599 L1 599 L1 733 L391 733 L391 599 L340 599 L448 476 L557 599 L502 599 L502 733 L893 733 L893 599 L893 599 Z " />
<glyph glyph-name="Y" unicode="Y" horiz-adv-x="1030" d="M533 733 L915 733 L915 599 L765 599 L526 320 L526 134 L641 134 L641 0 L259 0 L259 134 L377 134 L377 320 L138 599 L0 599 L0 733 L382 733 L382 599 L322 599 L458 439 L595 599 L533 599 L533 733 L533 733 Z " />
<glyph glyph-name="y" unicode="y" horiz-adv-x="1033" d="M533 733 L915 733 L915 599 L765 599 L526 320 L526 134 L641 134 L641 0 L259 0 L259 134 L377 134 L377 320 L138 599 L0 599 L0 733 L382 733 L382 599 L322 599 L458 439 L595 599 L533 599 L533 733 L533 733 Z " />
<glyph glyph-name="Z" unicode="Z" horiz-adv-x="867" d="M603 238 L740 238 L740 0 L0 0 L0 112 L505 599 L165 599 L165 494 L30 494 L30 733 L725 733 L725 620 L221 134 L603 134 L603 238 L603 238 Z " />
<glyph glyph-name="z" unicode="z" horiz-adv-x="869" d="M603 238 L740 238 L740 0 L0 0 L0 112 L505 599 L165 599 L165 494 L30 494 L30 733 L725 733 L725 620 L221 134 L603 134 L603 238 L603 238 Z " />
<glyph glyph-name="one" unicode="1" horiz-adv-x="468" d="M264 134 L382 134 L382 -1 L0 -1 L0 134 L119 134 L119 599 L0 599 L0 733 L264 733 L264 134 L264 134 Z " />
<glyph glyph-name="two" unicode="2" horiz-adv-x="695" d="M599 275 L599 -1 L4 -1 L1 33 Q-3 67 7.5 105 Q18 143 39.5 181 Q61 219 93 255 Q125 291 164 320 Q205 350 244 370.5 Q283 391 318 408 Q346 422 369.5 434 Q393 446 412 460 Q426 471 439.5 489.5 Q453 508 453 536 Q453 578 415.5 604 Q378 630 318 630 Q160 630 157 496 L157 448 L17 448 L17 733 L157 733 L157 713 Q224 746 316 746 Q380 746 431.5 731 Q483 716 519.5 688.5 Q556 661 575.5 621.5 Q595 582 595 534 Q595 434 512 373 Q489 356 461 341.5 Q433 327 401 312 Q365 294 326 273.5 Q287 253 251 227 Q218 202 197 178 Q176 154 165 134 L467 134 L467 275 L599 275 Z " />
<glyph glyph-name="three" unicode="3" horiz-adv-x="723" d="M643 261 Q653 184 625 124 Q613 98 591.5 73.5 Q570 49 534.5 29.5 Q499 10 448.5 -1.5 Q398 -13 329 -13 Q260 -13 202 5 Q144 23 100.5 56 Q57 89 31 135 Q5 181 2 236 L0 276 L134 276 L139 243 Q146 195 171 167 Q196 139 226.5 124.5 Q257 110 286 106.5 Q315 103 330 103 Q353 103 383.5 108 Q414 113 441 126 Q468 139 487 161 Q506 183 506 217 Q506 238 497.5 253.5 Q489 269 475 280.5 Q461 292 443 299 Q425 306 406 311 Q362 322 306 321 L220 321 L220 434 L405 599 L169 599 L169 457 L37 457 L37 733 L626 733 L626 620 L416 431 Q471 430 518 412 Q538 404 558 392 Q578 380 595 362 Q612 344 624.5 319 Q637 294 643 261 Z " />
<glyph glyph-name="four" unicode="4" horiz-adv-x="692" d="M611 181 L454 181 L454 134 L578 134 L578 0 L195 0 L195 134 L320 134 L320 181 L0 181 L0 288 L339 733 L454 733 L454 313 L611 313 L611 181 Z M320 488 L184 313 L320 313 L320 488 Z " />
<glyph glyph-name="five" unicode="5" horiz-adv-x="682" d="M304 494 Q386 495 451 469 Q479 458 505.5 440.5 Q532 423 553 396 Q574 369 586.5 332 Q599 295 599 246 Q599 182 572.5 133.5 Q546 85 503 52.5 Q460 20 405 3.5 Q350 -13 293 -13 Q211 -11 147 16 Q120 28 93.5 46.5 Q67 65 46.5 92.5 Q26 120 13.5 158 Q1 196 1 247 L128 247 Q128 219 135 198 Q142 177 153.5 161.5 Q165 146 180 135.5 Q195 125 210 119 Q246 103 292 103 Q324 103 354.5 111.5 Q385 120 409 137.5 Q433 155 447.5 182 Q462 209 462 246 Q462 306 419 342 Q376 378 304 378 Q256 378 219.5 362 Q183 346 148 308 L129 288 L32 335 L76 733 L549 733 L549 517 L418 517 L418 599 L195 599 L180 470 Q223 487 256.5 490.5 Q290 494 304 494 Z " />
<glyph glyph-name="six" unicode="6" horiz-adv-x="656" d="M306 493 Q363 493 411 474.5 Q459 456 494 423 Q529 390 548.5 345 Q568 300 568 246 Q568 189 547.5 141.5 Q527 94 490.5 59.5 Q454 25 403 6 Q352 -13 291 -13 Q228 -13 181.5 4 Q135 21 103 49 Q71 77 50.5 113.5 Q30 150 19 189.5 Q8 229 4 267.5 Q0 306 0 339 Q0 534 77.5 640.5 Q155 747 298 747 Q364 747 419 725 L419 733 L553 733 L553 512 L422 512 L417 544 Q403 631 305 631 Q279 631 253.5 625 Q228 619 206 599.5 Q184 580 167.5 544 Q151 508 142 449 Q218 493 306 493 Z M291 104 Q359 104 395.5 140.5 Q432 177 432 245 Q432 269 425 292.5 Q418 316 402 335 Q386 354 360.5 365.5 Q335 377 298 377 Q257 377 214 358 Q171 339 135 306 Q141 104 291 104 Z " />
<glyph glyph-name="seven" unicode="7" horiz-adv-x="695" d="M596 733 L596 629 L369 134 L469 134 L469 0 L86 0 L86 134 L221 134 L434 598 L137 598 L137 511 L1 511 L1 733 L596 733 L596 733 Z " />
<glyph glyph-name="eight" unicode="8" horiz-adv-x="729" d="M537 388 Q587 360 614 316.5 Q641 273 641 219 Q641 169 617 126.5 Q593 84 550.5 53 Q508 22 449.5 4.5 Q391 -13 322 -13 Q251 -13 192.5 4 Q134 21 92 52 Q50 83 26.5 125.5 Q3 168 3 219 Q3 273 29.5 316 Q56 359 106 388 Q70 414 50 451.5 Q30 489 30 534 Q30 581 51.5 620 Q73 659 111.5 687.5 Q150 716 203.5 731.5 Q257 747 322 747 Q385 747 438.5 731 Q492 715 531 686.5 Q570 658 591.5 619 Q613 580 613 534 Q613 489 593 451.5 Q573 414 537 388 Z M322 324 Q290 324 259 318.5 Q228 313 203.5 301 Q179 289 163.5 269.5 Q148 250 148 222 Q148 191 163.5 169.5 Q179 148 203.5 134.5 Q228 121 259 115 Q290 109 322 109 Q361 109 393 117 Q425 125 448 140 Q471 155 483.5 176 Q496 197 496 222 Q496 240 487 258 Q478 276 457 290.5 Q436 305 403 314.5 Q370 324 322 324 Z M322 625 Q255 625 213 599.5 Q171 574 171 533 Q171 502 189.5 484.5 Q208 467 233 458 Q258 449 283.5 446.5 Q309 444 322 444 Q335 444 360.5 446.5 Q386 449 410.5 458 Q435 467 453.5 484.5 Q472 502 472 533 Q472 566 451 584.5 Q430 603 403 612 Q376 621 352 623 Q328 625 322 625 Z " />
<glyph glyph-name="nine" unicode="9" horiz-adv-x="656" d="M278 747 Q341 747 387 730 Q433 713 465.5 685 Q498 657 518 620.5 Q538 584 549 544.5 Q560 505 564 466.5 Q568 428 568 395 Q568 298 548 222 Q528 146 490 94 Q452 42 396.5 14.5 Q341 -13 270 -13 Q204 -13 149 10 L149 1 L15 1 L15 222 L147 222 L151 190 Q164 104 263 104 Q289 104 314.5 110 Q340 116 362 135 Q384 154 401 190 Q418 226 427 285 Q389 264 347 252.5 Q305 241 262 241 Q205 241 157 259.5 Q109 278 74 311 Q39 344 19.5 389 Q0 434 0 488 Q0 545 20.5 592.5 Q41 640 77.5 674.5 Q114 709 165 728 Q216 747 278 747 Z M278 631 Q210 631 173 594 Q136 557 136 489 Q136 465 143 441.5 Q150 418 166 399 Q182 380 207.5 368.5 Q233 357 270 357 Q311 357 354.5 376 Q398 395 433 428 Q428 631 278 631 Z " />
<glyph glyph-name="zero" unicode="0" horiz-adv-x="781" d="M351 746 Q427 746 492 717.5 Q557 689 603.5 638.5 Q650 588 676.5 518.5 Q703 449 703 367 Q703 286 676.5 216.5 Q650 147 604 96 Q558 45 494.5 16 Q431 -13 358 -13 Q279 -13 213 15 Q147 43 100 93 Q53 143 26.5 213 Q0 283 0 367 Q0 449 26.5 518.5 Q53 588 99.5 638.5 Q146 689 210.5 717.5 Q275 746 351 746 Z M351 617 Q303 617 262.5 598.5 Q222 580 193 546.5 Q164 513 147.5 467 Q131 421 131 367 Q131 313 147.5 267 Q164 221 193 187.5 Q222 154 262.5 135 Q303 116 351 116 Q399 116 439.5 135 Q480 154 509.5 187.5 Q539 221 555.5 267 Q572 313 572 367 Q572 421 555.5 467 Q539 513 509.5 546.5 Q480 580 439.5 598.5 Q399 617 351 617 Z " />
<glyph glyph-name="asciitilde" unicode="&#x7e;" horiz-adv-x="505" d="M407 459 L407 338 L394 331 Q386 326 377 322 Q368 318 359 314 Q316 297 275 297 Q222 297 176 326 Q165 332 154 335.5 Q143 339 129 339 Q101 339 75.5 328 Q50 317 36 309 L0 287 L0 402 L13 409 Q73 438 128 438 Q183 438 229 409 Q252 396 275 396 Q290 396 304.5 400 Q319 404 331.5 409.5 Q344 415 353.5 421 Q363 427 369 431 L407 459 Z " />
<glyph glyph-name="exclam" unicode="&#x21;" horiz-adv-x="200" d="M123 165 L9 165 L1 733 L131 733 L123 165 Z M1 0 L1 128 L130 128 L130 0 L1 0 Z " />
<glyph glyph-name="numbersign" unicode="&#x23;" horiz-adv-x="794" d="M722 380 L540 380 L528 307 L713 307 L686 189 L505 189 L478 1 L354 1 L381 189 L309 189 L282 1 L158 1 L185 189 L0 189 L26 307 L208 307 L220 380 L35 380 L62 498 L243 498 L270 686 L394 686 L367 498 L439 498 L466 686 L590 686 L563 498 L748 498 L722 380 Z M404 307 L416 380 L344 380 L332 307 L404 307 Z " />
<glyph glyph-name="underscore" unicode="&#x5f;" horiz-adv-x="471" d="M0 104 L366 104 L366 0 L0 0 L0 104 L0 104 Z " />
<glyph glyph-name="asterisk" unicode="&#x2a;" horiz-adv-x="463" d="M396 600 L396 480 L280 491 L354 397 L245 335 L196 447 L142 333 L41 397 L112 491 L0 480 L0 600 L113 587 L41 683 L146 744 L198 633 L247 745 L353 686 L280 586 L396 600 L396 600 Z " />
<glyph glyph-name="dollar" unicode="&#x24;" horiz-adv-x="729" d="M387 427 Q432 418 482 404.5 Q532 391 573.5 366 Q615 341 642.5 302.5 Q670 264 670 205 Q670 161 649 123.5 Q628 86 590.5 57.5 Q553 29 501 10.5 Q449 -8 387 -12 L387 -44 L277 -44 L277 -8 Q230 0 189 15.5 Q148 31 116 54 L116 0 L0 0 L0 286 L116 286 L116 236 Q116 213 128 191 Q140 169 161.5 151 Q183 133 212.5 119 Q242 105 277 98 L277 338 Q232 348 183.5 361.5 Q135 375 95 398.5 Q55 422 29 458.5 Q3 495 3 551 Q3 592 23.5 626.5 Q44 661 80 687 Q116 713 166.5 728.5 Q217 744 277 747 L277 778 L387 778 L387 739 Q457 726 510 693 L510 733 L625 733 L625 497 L510 497 L510 538 Q510 565 475 591 Q440 617 387 631 L387 427 Z M277 643 Q245 641 217.5 633 Q190 625 170 613 Q150 601 138.5 585 Q127 569 127 551 Q127 511 166 489 Q205 467 277 450 L277 643 Z M387 92 Q456 100 498 131.5 Q540 163 540 208 Q540 250 500.5 273.5 Q461 297 387 315 L387 92 Z " />
<glyph glyph-name="parenleft" unicode="&#x28;" horiz-adv-x="291" d="M127 365 Q127 273 149.5 192.5 Q172 112 217 43 L245 0 L114 0 L106 12 Q0 162 0 365 Q2 573 106 721 L114 733 L246 733 L217 690 Q127 556 127 365 Z " />
<glyph glyph-name="parenright" unicode="&#x29;" horiz-adv-x="302" d="M119 368 Q119 461 96.5 541 Q74 621 29 690 L1 733 L131 733 L140 721 Q246 571 246 368 Q244 162 140 12 L132 0 L0 0 L29 44 Q119 178 119 368 Z " />
<glyph glyph-name="plus" unicode="&#x2b;" horiz-adv-x="513" d="M278 337 L440 337 L440 222 L278 222 L278 60 L163 60 L163 222 L1 222 L1 337 L163 337 L163 499 L278 499 L278 337 L278 337 Z " />
<glyph glyph-name="equal" unicode="&#x3d;" horiz-adv-x="510" d="M1 424 L415 424 L415 313 L1 313 L1 424 Z M1 158 L1 270 L415 270 L415 158 L1 158 Z " />
<glyph glyph-name="hyphen" unicode="&#x2d;" horiz-adv-x="304" d="M1 404 L237 404 L237 292 L1 292 L1 404 L1 404 Z " />
<glyph glyph-name="endash" unicode="&#x2013;" horiz-adv-x="330" d="M1 404 L237 404 L237 292 L1 292 L1 404 L1 404 Z " />
<glyph glyph-name="emdash" unicode="&#x2014;" horiz-adv-x="333" d="M1 404 L237 404 L237 292 L1 292 L1 404 L1 404 Z " />
<glyph glyph-name="question" unicode="&#x3f;" horiz-adv-x="466" d="M103 141 L243 141 L243 0 L103 0 L103 141 Z M238 735 Q278 735 303 719 Q328 703 342 683 Q356 663 361 643 Q366 623 366 616 L366 402 L240 261 L240 165 L107 165 L107 322 L125 341 L240 464 L240 598 Q240 610 231.5 611.5 Q223 613 207 613 L160 613 Q143 613 135 611.5 Q127 610 127 598 L127 508 L1 508 L1 562 Q1 586 3 616.5 Q5 647 17 673 Q29 699 55 717 Q81 735 129 735 L238 735 Z " />
<glyph glyph-name="bar" unicode="&#x7c;" horiz-adv-x="229" d="M1 733 L118 733 L118 0 L1 0 L1 733 L1 733 Z " />
<glyph glyph-name="fraction" unicode="&#x2044;" horiz-adv-x="281" d="M129 733 L247 733 L118 0 L0 0 L129 733 L129 733 Z " />
<glyph glyph-name="backslash" unicode="&#x5c;" horiz-adv-x="328" d="M118 733 L247 0 L129 0 L0 733 L118 733 L118 733 Z " />
<glyph glyph-name="slash" unicode="&#x2f;" horiz-adv-x="286" d="M129 733 L247 733 L118 0 L0 0 L129 733 L129 733 Z " />
<glyph glyph-name="bracketleft" unicode="&#x5b;" horiz-adv-x="343" d="M233 616 L119 616 L119 117 L233 117 L233 0 L1 0 L1 733 L233 733 L233 616 L233 616 Z " />
<glyph glyph-name="bracketright" unicode="&#x5d;" horiz-adv-x="341" d="M1 616 L1 733 L233 733 L233 0 L1 0 L1 117 L116 117 L116 616 L1 616 L1 616 Z " />
<glyph glyph-name="braceleft" unicode="&#x7b;" horiz-adv-x="403" d="M288 616 L174 616 L174 425 L231 425 L231 308 L174 308 L174 117 L288 117 L288 0 L56 0 L56 308 L0 308 L0 425 L56 425 L56 733 L288 733 L288 616 L288 616 Z " />
<glyph glyph-name="braceright" unicode="&#x7d;" horiz-adv-x="388" d="M0 616 L0 733 L231 733 L231 425 L288 425 L288 308 L231 308 L231 0 L0 0 L0 117 L114 117 L114 308 L56 308 L56 425 L114 425 L114 616 L0 616 L0 616 Z " />
<glyph glyph-name="asciicircum" unicode="&#x5e;" horiz-adv-x="479" d="M240 733 L390 365 L280 365 L195 569 L111 365 L0 365 L152 733 L240 733 L240 733 Z " />
<glyph glyph-name="less" unicode="&#x3c;" horiz-adv-x="440" d="M345 426 L158 349 L345 271 L345 165 L0 308 L0 391 L345 532 L345 426 L345 426 Z " />
<glyph glyph-name="greater" unicode="&#x3e;" horiz-adv-x="427" d="M0 426 L0 532 L345 391 L345 308 L0 165 L0 271 L187 349 L0 426 L0 426 Z " />
<glyph glyph-name="percent" unicode="&#x25;" horiz-adv-x="666" d="M566 728 L152 0 L29 0 L442 728 L566 728 Z M470 353 Q501 353 527 340 Q553 327 572.5 303.5 Q592 280 603 248.5 Q614 217 614 180 Q614 140 603.5 107 Q593 74 574 50 Q555 26 528.5 13 Q502 0 470 0 Q439 0 412.5 13 Q386 26 367 49.5 Q348 73 337.5 105.5 Q327 138 327 177 Q327 215 337.5 247.5 Q348 280 367 303.5 Q386 327 412.5 340 Q439 353 470 353 Z M470 260 Q444 260 428 236.5 Q412 213 412 177 Q412 140 428 116.5 Q444 93 470 93 Q496 93 512 116.5 Q528 140 528 177 Q528 213 512 236.5 Q496 260 470 260 Z M143 406 Q112 406 85.5 419.5 Q59 433 40 456.5 Q21 480 10.5 512.5 Q0 545 0 583 Q0 622 10.5 654.5 Q21 687 40 710.5 Q59 734 85.5 747 Q112 760 143 760 Q174 760 200 746.5 Q226 733 245.5 710 Q265 687 276 655 Q287 623 287 586 Q287 546 276.5 513 Q266 480 247 456 Q228 432 201.5 419 Q175 406 143 406 Z M143 500 Q169 500 185 523.5 Q201 547 201 583 Q201 619 185 643 Q169 667 143 667 Q118 667 101.5 643 Q85 619 85 583 Q85 547 101.5 523.5 Q118 500 143 500 Z " />
<glyph glyph-name="ampersand" unicode="&#x26;" horiz-adv-x="700" d="M661 106 L661 -1 L483 -1 Q473 10 462 21 Q453 30 443.5 40 Q434 50 427 58 Q342 -12 229 -12 Q170 -12 127 6.5 Q84 25 55.5 55 Q27 85 13.5 123 Q0 161 0 199 Q0 328 125 405 Q101 439 89 474 Q77 509 77 543 Q77 578 89.5 612 Q102 646 126 672.5 Q150 699 186 715 Q222 731 269 731 Q306 731 337.5 718.5 Q369 706 391.5 684.5 Q414 663 427 632.5 Q440 602 440 566 Q440 506 404 459.5 Q368 413 292 373 Q303 361 324 339 Q345 317 367 293.5 Q389 270 407.5 251 Q426 232 432 226 Q442 243 449.5 264 Q457 285 464 309 L373 309 L373 418 L617 418 L617 309 L580 309 Q567 252 550.5 211.5 Q534 171 511 141 Q512 139 516.5 135 Q521 131 526.5 125.5 Q532 120 537 114.5 Q542 109 545 106 L661 106 Z M189 324 Q178 316 165 305 Q152 294 140.5 280 Q129 266 121 248 Q113 230 113 209 Q113 184 123.5 162.5 Q134 141 151.5 124.5 Q169 108 192.5 98.5 Q216 89 243 89 Q282 89 311 105.5 Q340 122 357 137 L356 137 Q327 169 282.5 218.5 Q238 268 189 324 Z M227 449 Q269 474 300 501.5 Q331 529 331 562 Q331 572 327 584.5 Q323 597 315 608.5 Q307 620 294 628 Q281 636 263 636 Q246 636 233 628.5 Q220 621 211 609 Q202 597 197.5 582 Q193 567 193 551 Q193 500 227 449 Z " />
<glyph glyph-name="at" unicode="&#x40;" horiz-adv-x="489" d="M245 303 L245 234 L263 235 Q271 235 273.5 236.5 Q276 238 276 248 L276 316 Q276 329 263 329 L127 329 Q113 329 110.5 324.5 Q108 320 108 316 L108 120 Q108 106 121 106 L384 106 L384 -2 L121 -2 Q100 -2 78.5 1.5 Q57 5 39.5 16.5 Q22 28 11 50 Q0 72 0 109 L0 316 Q0 434 110 434 L274 434 Q310 434 331.5 424 Q353 414 365 400 Q377 386 380.5 369.5 Q384 353 384 340 L384 224 Q384 207 381 189.5 Q378 172 368 158 Q358 144 339 135 Q320 126 289 126 L137 126 L137 303 L245 303 Z " />
<glyph glyph-name="period" unicode="&#x2e;" horiz-adv-x="190" d="M1 114 L114 114 L114 1 L1 1 L1 114 L1 114 Z " />
<glyph glyph-name="colon" unicode="&#x3a;" horiz-adv-x="187" d="M1 0 L1 113 L114 113 L114 0 L1 0 Z M1 416 L114 416 L114 303 L1 303 L1 416 Z " />
<glyph glyph-name="semicolon" unicode="&#x3b;" horiz-adv-x="203" d="M1 416 L114 416 L114 303 L1 303 L1 416 Z M1 -1 L1 112 L114 112 L114 18 L91 -46 L5 -46 L19 -1 L1 -1 Z " />
<glyph glyph-name="comma" unicode="&#x2c;" horiz-adv-x="169" d="M1 112 L114 112 L114 18 L91 -46 L5 -46 L19 -1 L1 -1 L1 112 L1 112 Z " />
<glyph glyph-name="florin" unicode="&#x192;" horiz-adv-x="833" d="" />
<glyph glyph-name="quotesinglbase" unicode="&#x201a;" horiz-adv-x="211" d="M1 112 L114 112 L114 18 L91 -46 L5 -46 L19 -1 L1 -1 L1 112 L1 112 Z " />
<glyph glyph-name="quotedblright" unicode="&#x201d;" horiz-adv-x="377" d="M1 614 L1 731 L118 731 L118 633 L95 566 L5 566 L21 614 L1 614 Z M149 731 L267 731 L267 633 L243 566 L154 566 L170 614 L149 614 L149 731 Z " />
<glyph glyph-name="quotedblleft" unicode="&#x201c;" horiz-adv-x="385" d="M267 614 L247 614 L262 566 L173 566 L149 633 L149 731 L267 731 L267 614 L267 614 Z M118 731 L118 614 L98 614 L114 566 L24 566 L1 633 L1 731 L118 731 L118 731 Z " />
<glyph glyph-name="quotedbl" unicode="&#x22;" horiz-adv-x="328" d="M1 614 L1 731 L118 731 L118 633 L95 566 L5 566 L21 614 L1 614 Z M149 731 L267 731 L267 633 L243 566 L154 566 L170 614 L149 614 L149 731 Z " />
<glyph glyph-name="quotesingle" unicode="&#x27;" horiz-adv-x="167" d="M1 731 L118 731 L118 633 L94 566 L5 566 L21 614 L1 614 L1 731 L1 731 Z " />
<glyph glyph-name="quoteright" unicode="&#x2019;" horiz-adv-x="226" d="M1 731 L118 731 L118 633 L94 566 L5 566 L21 614 L1 614 L1 731 L1 731 Z " />
<glyph glyph-name="quoteleft" unicode="&#x2018;" horiz-adv-x="226" d="M117 731 L117 614 L97 614 L113 566 L23 566 L0 633 L0 731 L117 731 L117 731 Z " />
<glyph glyph-name="grave" unicode="&#x60;" horiz-adv-x="245" d="M115 731 L154 601 L60 601 L0 731 L115 731 L115 731 Z " />
<glyph glyph-name="bullet" unicode="&#x2022;" horiz-adv-x="174" d="M44 428 Q62 428 75 415 Q88 402 88 384 Q88 366 75 353 Q62 340 44 340 Q26 340 13 353 Q0 366 0 384 Q0 402 13 415 Q26 428 44 428 Z " />
<glyph glyph-name="A" unicode="A" horiz-adv-x="1119" d="M274 404 L380 599 L269 599 L269 733 L752 733 L752 599 L642 599 L897 134 L1023 134 L1023 0 L652 0 L652 134 L737 134 L661 270 L358 270 L285 134 L377 134 L377 0 L0 0 L0 134 L128 134 L202 270 L162 270 L162 404 L270 404 L274 404 L274 404 Z M431 404 L585 404 L506 545 L431 404 L431 404 Z " />
<glyph glyph-name="a" unicode="a" horiz-adv-x="1148" d="M274 404 L380 599 L269 599 L269 733 L752 733 L752 599 L642 599 L897 134 L1023 134 L1023 0 L652 0 L652 134 L737 134 L661 270 L358 270 L285 134 L377 134 L377 0 L0 0 L0 134 L128 134 L202 270 L162 270 L162 404 L270 404 L274 404 L274 404 Z M431 404 L585 404 L506 545 L431 404 L431 404 Z " />
<glyph glyph-name="B" unicode="B" horiz-adv-x="864" d="M652 392 Q689 374 712 352.5 Q735 331 747.5 308.5 Q760 286 764 264 Q768 242 768 225 Q768 216 765.5 197.5 Q763 179 754 156 Q745 133 727 107.5 Q709 82 677 60 Q645 38 597 22 Q549 6 481 1 Q478 0 474.5 0 Q471 0 468 0 L462 0 L435 0 L1 0 L1 134 L140 134 L140 599 L1 599 L1 733 L436 733 Q502 731 549 718.5 Q596 706 628 687 Q660 668 678.5 645.5 Q697 623 706.5 601 Q716 579 719 559.5 Q722 540 722 529 Q722 497 708 460 Q694 423 652 392 Z M289 448 L409 448 Q427 448 453 451.5 Q479 455 504 463 Q529 471 548 483.5 Q567 496 572 515 Q573 520 573 522.5 Q573 525 573 528 Q573 530 572.5 532 Q572 534 572 536 L572 541 L571 542 L572 542 Q571 542 570.5 545.5 Q570 549 569 551 Q563 564 549.5 573 Q536 582 518 588 Q500 594 480 596.5 Q460 599 442 599 L437 599 L289 599 L289 448 Z M435 134 Q436 134 449.5 134.5 Q463 135 483.5 138 Q504 141 527.5 146.5 Q551 152 571.5 161.5 Q592 171 605.5 186 Q619 201 619 222 Q619 245 604.5 260.5 Q590 276 568 286.5 Q546 297 520.5 302.5 Q495 308 472.5 310.5 Q450 313 434 313.5 Q418 314 416 314 L289 314 L289 134 L435 134 Z " />
</font>
</svg>
