<?xml version="1.0" encoding="UTF-8"?>
<svg width="60px" height="64px" viewBox="0 0 60 64" version="1.1" xmlns="http://www.w3.org/2000/svg" xmlns:xlink="http://www.w3.org/1999/xlink">
    <!-- Generator: sketchtool 50.2 (55047) - http://www.bohemiancoding.com/sketch -->
    <title>1987B24F-D3BD-4E72-A628-3FD4112BF119</title>
    <desc>Created with sketchtool.</desc>
    <defs></defs>
    <g id="Symbols" stroke="none" stroke-width="1" fill="none" fill-rule="evenodd">
        <g id="UI/Logo-White" transform="translate(1.000000, 1.000000)">
            <g id="Logo">
                <path d="M29,0 C19.0352762,0.054 8.74737222,1.4616 1.13468234,4.7871 C1.13468234,4.7871 7.70152508,14.16555 3.7246128,22.7457 C-0.256788094,31.32585 -2.44723188,42.50025 4.51909754,48.2868 C11.3642344,53.973 17.8233504,50.98905 29,63 C40.1766496,50.98905 46.6357656,53.973 53.4809025,48.2868 C60.4472319,42.50025 58.2567881,31.32585 54.2753872,22.7457 C50.2984749,14.16555 56.8653177,4.7871 56.8653177,4.7871 C49.2526278,1.4616 38.9647238,0.054 29,0" id="Fill-57" stroke="#FFFFFF" fill-opacity="0.049999997" fill="#FFFFFF"></path>
                <path d="M5.20623901,6.32402423 C7.09512773,10.1407806 9.47851327,17.1000146 6.33779028,23.8566086 C4.60036905,27.5878554 -0.522796116,40.2076464 6.4090691,45.9497048 C8.68108147,47.8313612 10.9753685,48.6214342 13.6394144,49.5357634 C17.6844874,50.9266304 22.7051892,52.6510739 29,58.7520944 C35.2948108,52.6510739 40.3155126,50.9266304 44.3605856,49.5366541 C47.0246315,48.6214342 49.3189185,47.8313612 51.5909309,45.9505955 C58.5227961,40.2076464 53.399631,27.5878554 51.6666647,23.8566086 C48.5214867,17.1000146 50.9048723,10.1407806 52.793761,6.32402423 C46.4944953,4.15733581 38.0746847,2.93971481 29.0089099,2.89072494 C19.9342251,2.93971481 11.5055047,4.15733581 5.20623901,6.32402423 Z M29,60 L28.6881552,59.6918092 C22.3888895,53.4852378 17.3770975,51.7625757 13.3498442,50.3788345 C10.6056096,49.4355568 8.23558885,48.6209889 5.83883854,46.635563 C-1.58306856,40.4868887 3.72274858,27.3580484 5.5269937,23.4807227 C8.64098714,16.7904877 6.02149051,9.82991761 4.18160598,6.27637045 L3.94994982,5.82388218 L4.43108185,5.65241763 C10.9620037,3.31471002 19.4620029,2.05166205 29.0089099,2 C38.5469069,2.05166205 47.0379963,3.31471002 53.5689182,5.65241763 L54.0500502,5.82388218 L53.818394,6.27637045 C51.9785095,9.82991761 49.3590129,16.7904877 52.4730063,23.4807227 C54.2772514,27.3580484 59.5830686,40.4868887 52.1611615,46.6364537 C49.7644112,48.6209889 47.3943904,49.4355568 44.6501558,50.3779438 C40.6229025,51.7625757 35.6111105,53.4852378 29.3118448,59.6918092 L29,60 Z" id="Fill-58" fill="#F7EED5"></path>
                <text id="RG" font-family="UnifrakturMaguntia" font-size="18" font-weight="300" letter-spacing="0.84375" fill="#FFFFFF">
                    <tspan x="13" y="33">RG</tspan>
                </text>
            </g>
        </g>
    </g>
</svg>